<mxfile host="65bd71144e">
    <diagram id="0Hjq51s_DuB5mAuWxCwc" name="Page-1">
        <mxGraphModel dx="623" dy="391" grid="1" gridSize="10" guides="1" tooltips="1" connect="1" arrows="1" fold="1" page="1" pageScale="1" pageWidth="850" pageHeight="1100" background="#ffffff" math="0" shadow="0">
            <root>
                <mxCell id="0"/>
                <mxCell id="1" parent="0"/>
                <mxCell id="11" style="edgeStyle=none;html=1;entryX=0.25;entryY=1;entryDx=0;entryDy=0;" parent="1" source="2" target="3" edge="1">
                    <mxGeometry relative="1" as="geometry"/>
                </mxCell>
                <mxCell id="35" style="edgeStyle=elbowEdgeStyle;html=1;" parent="1" source="2" edge="1">
                    <mxGeometry relative="1" as="geometry">
                        <mxPoint x="380" y="70" as="targetPoint"/>
                    </mxGeometry>
                </mxCell>
                <mxCell id="2" value="" style="shape=image;verticalLabelPosition=bottom;labelBackgroundColor=default;verticalAlign=top;aspect=fixed;imageAspect=0;image=data:image/png,iVBORw0KGgoAAAANSUhEUgAABAAAAAQACAYAAAB/HSuDAABV5ElEQVR42uzBAQEAAACAkP6v7ggCAAAAAAAAAAAAAAAAAAAAAAAAAAAAAAAAAAAAAAAAAAAAAAAAAAAAAAAAAAAAAAAAAAAAAAAAAAAAAIDZtXeUiKEoAMOptNU92MnIkIeNswGxuYnY6ErEQhfjrEFBEHtttXUBSh4WFjbxDDMrEActvg9+uITAqQ/3AgAAAAAAAAAAAAAAAAAAAAAAAAAAAAAAAAAAAAAAAAAAAAAAAAAAAAAAAAAAAAAAAMA/0KXp1tBU1dAUp0PKL7u6uO5Tften8jHOz31dvEZt9LWqXX17iZ6W/xbzrimvhjo/G1K53x9NtjMAAADgb4wnuxsfTXkQC/t5X5c3scC/ReOaeo85tzHnoq2L2Xi4s5kBAAAA69Ee53uLm/1YyO+jz19Y7H/Ucnb+sHgp0KVqmgEA3+zcvWoUURzG4aOVjbETEQQlINqIO2eTKIJoJSmMMxOCrbaCeAOCuQPBTtHC1sJLsBQs0mohKWwNyczspvBjYzyLNmojZKL78Tzw9sN0v4H5AwDszeaNuRNVHu+l6F5rIdz3a2+HHwN6xfzpAAAAAPydjaVLh5sy3qmL7usU199aCPR/uTfp2e9uLi7MBAAAAOBP9fX5U03efZgiumkhxP/3elUeH9V5nA0AAABACFV+/mRddh+naP7aQniP2nbSXvSW45kAAAAA02h7Ze5YiuMnExr+v29QF9mzjaXO8QAAAADTYPfWlUNNHu+nKO63ENbjtTJuN3n2YPgOAgAAAEyqquxcHl7N33NIj//Wm+XsWgAAAIBJMrzsX5fx6Rhe9d/XNUV8vrUSjwQAAAAYd02ZXUjx/75uIZgncnn8UJXxagAAAIBxtBvCgZ//+g/2HMmTv52q7K7uroaDAQAAAMbF5uLCTIraly2E8bTtVb84dzQAAADAqKvzOJtC9l0LMTytW+8X2dkAAAAAo6pXdC6mgP3YQgRP+7bcBQAAAGAkVWV3KYXrpxbi137sc1VkZQAAAIBRUZfZzRSsX1qIXvt1g6rIbgcA+M7OHdsACMNQFGQmYJFQ0VHRsDwwAIgliBPJd9Ib4rswAEBrZ5k2n/6r9lxl3AcAAABo5S7zavyH9N7LdAwAAAAQzfgPzxEAAACAWMZ/sxwBAAAAiGH8N88RAAAAgLqM/25yBAAAAKAO47+7HAEAAAD4l/HfbY4AAAAA/MP47z5HAAAAAIz/JDkCAAAAYPwnyREAAAAA4z9JjgAAAAAY/0lyBAAAAMD4T5IjAAAAAMZ/khwBAD527NgGABCAYdj/N7OwcAJTaks5ogUAwPgfyQkAAACA8T+SEwAAAGCd8T+TEwAAAGCV8T+XEwAAAGCN8T+bEwAAAGCF8T+fEwAAAKDO+JcTAAAAIM74lxMAAAAg7o3/82E0qpUTAAAAoML4lxMAAAAgzviXEwAAACDO+JcTAAAAIM74lxMAAAAgzviXEwAAACDO+NennADAZccOagCEYiAKogkpXPDvAAmY+G036UzyROwCAJDK+NfhnAAAAABpjH8V5QQAAABIYfyrOCcAAADANONfTTkBAAAAphj/as4JAAAA0M3411BOAAAAgC7fc7/GvwZzAgAAAFQz/hWSEwAAAKCK8a+wnAAAAACnGf8KzQkAAABwivGv8JwAAAAAl/GvHTkBAAAAjH8tyQkAAABg/GtJTgAAAADjX0tyAsDPjh3QAAAAIAzq39oeHraHUAAAMP4VyQkAAABg/CuSEwAAAMD4VyQnAAAAgPGvSE4AAAAA41+RnAAAAECX8a9YTgAAAKDH+Fc0JwAAANBh/CueEwAAAPhn/EtOAAAA4JzxLzkBAACAc8a/5AQAAADOGf+SEwAAADhn/EtOAAAA4JzxLzkBAACAc8a/5ARg7NhREYBADENBTyjhC/8SkIAIrm04dmeeiAQAADZn/EtOAAAAYHPGv7QkJwAAAJDL+JeW5gQAAADyGP9SSU4AAAAgh/EvleYEAAAA5hn/UktOAAAAYM59HpfxL7XlBAAAAPoZ/9JITgAAAKCP8S+N5gQAAADqGf9SRE4AAACgjvEvReUEAAAA1jP+pcicAAAAwDrGvxSdEwAAAHjP+Jc+kRMAAAAw/qWf5AR42LG3GgChGIiCBAN44RohJFhAB+5ADUEBDxF8dWeS46FbAADA+JdC8gQAAACMfykkTwAAAMD4l0LyBAAAAIx/KSRPAAAAwPiXQvIEAAAAjH8pJE8AAADA+JdC8gQAAIBkxr8UlScAAAAkMv6lyDwBAAAgifEvRecJAAAACYx/SZ4AAABQnPEvyRMAAACKM/4leQIAAEBxz9b136G//zAWJNXrvqZx7QAAgBrOpQ3X3I4fxoKker3s2gEJAAAAwrD+re3hN3gJ0RMAAACeGAEkGQEAACDCCCDJCAAAABFGAElGAAAAiDACSDICAABAhBFAkhEAAAAijACSjAAAABBhBJBkBAAAgAgjgCQjAAAARBgBJBkBAAAgwgggyQgAAAARRgBJRgAAAIgwAkgyAgAAQIQRQJIRAAAAIowAkowAAAAQYQSQxo4dkAAAAAAI+v+6ISl0IpkAAAAwYQJIMgEAAGDCBJBkAgAAwIQJIMkEAACACRNAkgkAAAATJoAkEwAAACZMAEkmAAAATJgAkkwAAACYMAEkmQAAADBhAkgyAQAAYMIEkGQCAADAhAkgyQQAAIAJE0CSCQAAABMmgCQTAAAAJkwASSYAAABMmACKXTvEQRiIoig6iiDZB4ZMugAMviNIkKgaFsge2AzFE0pNDQLVUtJ/TnL3MP9lJCMAAAAEYQSQZAQAAIAgjACSjAAAABCEEUCSEQAAAIIwAkgyAgAAQBBGAElGAAAACMIIIMkIAAAAQRgBJBkBAAAgCCOApK8jQMmXBAAALIMRQJIRAAAAgjACSDICAABAEEYASUYAAAD+TluqQ3fcrhKjute7TVvybYRjQdLyerV1bhIAAPzKo1Sn/iH67EeAa3ferxOj8hNAkp8AAADMbjj+h8eoEWAaRgBJRgAAAGbzefwbAaZlBHizY8c2AMNADMR2yvCZL1Wab23ZKkjghpAkOQEAADhujn8nwBlOAElOAAAAjpnj3wlwlhNAkhMAAIC4Of6dAHc4ASQ5AQAAiJnj3wlwlxNAkhMAAIDt5vh3AnRwAkhyAgAAsM36+HcCJDkBJDkBAABYtm/8OwGSnACSnAAAABSNfydAkhNAkhMAAICi8f/3vE6A/ZwAkpwAAAAUjX8nQJITQJITAACAovHvBEhyAkhyAgAAUDT+nQBJTgBJTgAAAIrGvxMgyQkgyQkAAEDR+HcCJDkBJDkBAAAoGv9OgKSPHTuoYSCAYSDY3xEpmfIn1O8RsJQ4M9KCsJ0AkpwAAACHzRv/ToAkJ4AkJwAAwEFzx78TIMkJIMkJAABwyPzx7wRIcgJIcgIAABywZ/w7AZKcAJKcAAAAxfaNfydAkhNAkhMAAKDQ3vHvBEhyAkhyAgAAFNk//p0ASU4ASU4AAIACPePfCZDkBJDkBAAAWKxv/DsBkpwAkpwAAAAL9Y5/J0CSE0CSEwAAYJH+8e8ESHICSHICAAAscGf8OwGSnACSnAAAAIPdG/9OgCQngCQnAADAQHfHvxMgyQkgyQkAADCI8f86AX7f58OfHXupgRAAgijoaTGyEvB/QQEJWCCZTx+qkudhpksZASQZAQAAAnj+jQATjACSjAAAAIs8/0aASUYASUYAAIAFnn8jwAYjgCQjAADAIM+/EWCTEUCSEQAAYIDn3wiQwAggyQgAANDI828ESGIEkGQEAABo4Pk/jACBjACSjAAAAIU8/1UZAToYASQZAQAACnj+qzMCdDACSDICAAB4/gMzAnQwAkgyAgAAeP4DMwJ0MAJIMgIAAHxw/X/neyjdBceWjADjjACSjAAAAJ7/wIwAHYwAkowAAACe/8CMAB2MAJKMAAAAnv/AHnbswAQAGAiB2P5bdwqh+gncEOoESHACSHICAAAY/x/mBEhwAkhyAgAAGP8f5gRIcAJIcgIAAKcZ/7/mBEhwAkhyAgAAJxn/v+cESHACSHICAACnGP8tOQESnACSnAAAwAnGf1tOgAQngCQnAAAwzfhvzQmQ4ASQ5AQAACYZ/+05ARKcAJKcAADAFON/JSdAghNAkhMAAJhg/K/lBEhwAkhyAgAA1Yz/1ZwACU4ASU4AAKCS8b+eEyDBCSDJCQAAVDH+r+QESHACSHICAAAVjP9rOQESnACSnAAAwNeM/8fe/bM2FUYBHA6ijiLq6iaCCGJzU6WK0EFRh9qbhm5uQsXJycFB8AM46yCImzgIioig38BdXQRBxckmb+LgoDSe2q7aP/cmN3KfB360UxLoGfqevmnqmiXAKFgCSLIEAAAmksN/vYtfRJ8NF4/ublCqXn58byxY3qQSfkYblKLuel+ij+vf/yzhsSWNppW00LraAAAYJ4d/WQKMTsElwK/oQ8qzF9Gd6Fovz/LBQuv0oH3i8PLFk3s2ev7V2x39xZl9/UvNQ9355pl+3rwcj3MzHvdeardextfPqYT5kWQJAABMOId/WQKM3iaXACvR+ziUP0h560q30zw2rrdmDOayA/G85+I13oge9drZ11TCPEmyBAAAJoTDvywBxucvS4BP8X8C7sZf5ufiL/r7GxPke7t5ZPU9yrEYeBKvczmVMFuSLAEAgAo4/OvfS4DsqSVA+daWANnj/kJ2q9dpTTX+E8PZ2Z1rNwSy+9G3VMKMSbIEAADGwOFflgAUWQb0O83zMR8PY05+pBJmTZIlAAAwAg7/8hGBlOXPRx3mzaX4nwFvi8+aJB8RCACUxuFfbgIwCsPbjR1xYLkQy4DXqYSZk+QmAADg8K/KchOAzRm0p2biRsDz4jMn1T43AQAAh39Vk5sAbGkRMD99KubmVSph9qQa5yYAAODwr6pyE4CtSZ3pszE774rPnlTb3AQAABz+VVWWAGzNcCnb1cuz6zE/g+LzJ9UySwAAwOFf1eTtAGzH8vz0wdXZSSXMoFTDvB0AAHD4V1W5CcD2xPwsRt3iMyjVLjcBAACH/9/s3TFKA1EQgOFVsPEClp7BbMDOGyiJrYXYCFaWaS3FO1h7AuvYewxBsMoWdgrxeYXMwu7b+T74bzAE3uzbjQZq0b5aArCLzeXJcZmhdXgGpXxZAgAADv8aJq8DsKvtQ7NfZmhV+ul6mEUpUV4HAIDMHP41aG4CELsNcFbm6Cs8h1Ku3AQAgIw2y9mNw78GzxKA4AcCu8X8PTyHUq4sAQAgE0/+Naa8DkDE53l72C1nL10PsyglyusAAJCBJ/8aZW4CELBtmr1uOX8Kz6GUKzcBAGDKHP416iwBiP9V4Co8h1KuLAEAYIoc/lVFlgAElRm681snWQIAQFre+VdN+SYAUeUwc1Vm6bfrYR6lJPkmAABMgSf/qjI3AQj/9rXX/4ea8CxKeXITAABq5vCvqrMEIGizaO/DcyjlyhIAAGrk8K9JZAlAE/4w4GN4DqVcWQIAQE0c/jWlfBOA+F8Ezp67HmZRSpRvAgBADRz+NcncBCBge9selCXAW3gOpVy5CQAAY+bwr0lnCUDA98XpUZmjj/AcSrmyBACAMXL4/2PnDk4aiIIADBfgxZv2IIjsutiAeJRNgralCNbg0Q4sxpMXyQYSD558dpBkdvMC833wdzAEZnhZpcgRgIBh3jZljn7CcyjlyhEAAI6J5V+pmrfvvglA5PcyPINSvnwTAACOgeVfKfMSgIBh1ryFZ1DKl5cAAFCT5V+pcwRgT8v+6rTM0Gd4BqV8OQIAQA2Wf8kRgP0Ni+72f5kJz6CUL0cAADgky7/kCEBcmZ3X8PxJOXMEAIBDsPxLPgzIOL7uLk/8FUDyYUAAOEqWf8lLAMY19M1jePakvHkJAABTsPxLjgBMo8zOR3j2pLw5AgDAmCz/kiMA0/ledBdldn7DsyflzREAAMZg+Zd8E4DpLfv2JTx3Uu58EwAALP9SpbwEYAfr+5uzMjeb8NxJufMSAAAs/1KlHAHYwaq/fgrPnCRHAACw/EuVcgRgS+uH7twrAGmUHAEAwPIvVcoRgC2tZu1zeN4kOQIAgOX/j737R6kjigI4fCLYBm1tLYRAIL55YG0lIpg3uoaEVBbZgG7BTVi4AK1dgmArdjYS5mqqFNHM24C+P9fcx8z3wW8HB+Fczjylgo1/GPB7tRzwiof9zTX/EUDK1nPbjwAALP/Sf88lABNoZ+V87lmT5BIAACz/UtkeR4PjgFc0B9V2yjBrklwCAIDlXyrYeLkLePu3AG5ShnmT5BIAACz/UpnuXk5iKeDtB4CjDPMmySMAAFj+pRI1B8OTgAmkvc+r7cz8SRnmTpLPAQDoMcu/VKTnNKrWAyaU6sFFhrmT5BIAgL6y/EulGl4FTPn3ev65k+QSAIBesvxL5Wrq6mfAFJrRlxWfAUjvmksAALrJ8i+V7Wl/uBEwpVQPL1OG+ZPkEQCAnrD8S8W7DZjBeDHJMH+SfA4AQB9Y/qXyNXV1GjCD3183P6UMMyjJJQAAHWf5lxajx8PBTsAMXiI+tA9I9ynDHEpyCQBAR1n+pYXp76/drY8BM2pn6CzDHEpyCQBAF1n+pYXqOmAOqR58yzCHkjwCANA1lv9/7N0xThtBFIDhKdym5AwpSAOzSEg0Liki5DHKBUKNOArUIFFyAKSUHCFdCu4QOZ41RZQmTjjDvrV24Puk/wavmZ03Wmly3SUYYHV+tB8wh5I8BwDgLXH4lybYortIMMB2Pp/Vkn8PnkVJNgEAeBsc/qVp9qt0nxIMfgaQv9eAeZTkIwAAjVuX7qvDvzTJ/rze3iYY/AGguw+YR0meAwDQMjf/0qR7ThBgvchXAfMoySYAAK1y8y9NvEX+liDA/4PH6eB5lLStNgEAaJGbf2n69SXfJAjgTwDSZLIJAMBuOfxLbdQv82WCAD/PTj7UgJmUFJKPAADshrV/qZ025fBzgiC15FoD5lJSSJ4DADAuN/9SW/XLw+MEQfqSf9SAuZQUlk0AAMbh5l9qr81Z9zFBkFryUw2YS0mh2QQAIJabf6nNXr4c7CUI0i+7xxowl5LCswkAQAyHf6nZ/m7n81mCILXkh4C5lDROPgIAkKz9S++3TYJAteTbgLmUNF6eAwDg5l96p60SBOoX3XXAXEoaN5sAALj5/8fOHaNEDEQBGB47G09gpRcQk2hjYymCQrJYCt7BC9jaWFkKdoLHsLC09w6KmYCNlR4iz91s5vvgv8Fr3iQzUoF9JQiUu+o2YC4l/X/+BADAl3+psPoEgYa2uguYS0nLyZ8AAFj+pYIaEgTq2+Y+YC4lLS+HAABY/qVC8gggoTwCKK1lDgEAcOdfKqCfBIGGrn4MmEtJy8+bAABY/qW593F+tJUgSG7r5xwwl5JWkkMAgNL57V+aeWeHOwmC5LZ5GT2TklaZ6wAApfLlXyqgxX6TIEhu6/fRMylp1TkEACiN5V8qo6GtThIEyW2dc8BcSlp5DgEASmH5l8pp6JrLBAF+r443c8BMSppM3gQAmDvLv1RWfdfcJAiQFwe7OWAmJU0qhwAAc2X5l4rsKUGAYdGcBsyjpOnlOgDA3Fj+pWJ7SxCg7+rrgHmUNM0cAgDMheVfKriu/v5NaSPBSLmrH0bPo6Qp5xAAYN1Z/iV9XuxtJxip76rXHDCPkiadNwEA1tUfO3esGkUUBWD4CDaCnbVVSlPtHYV0eQDBvQPbmNpGbKx8AMmTpPENrKJvYmMnmL2TJk2IIZUgKjszN8nM8P3wvcGB5ZydGcs/cOM8r16GNKJfEQ9KTttSYR6ByXMEkKS5ZfkHfmuOQxrRWW72x88hMCNeB5CkuWT5B/7wNaQR3fwbWGEOgXlxBJCkqWf5B/76IcDDw4chDf9tORk9h8AcOQJI0lSz/AP/1KZVSAMrbfo2egaBuXIEkKSpZfkH/mebm/chDejnq+dPS4UZBGbNhwElaSpZ/oEdfAlpQF2b3laYP2D+PAkgSfed5R/Y0eV5fvEkpJ6V3HyuMH/AMjgCSNJ9ZfkH+ujy6iikHv3YPHtccrooFeYPWAxHAEm66yz/QG/r5lNIPSo5bUbPHbBEjgCSdFdZ/oGBuu+bg0ch7VjJqzcV5g5YJh8GlKTbzvIPjNG16XVI/Z4C+FAqzB6wSJ4EkKTbyvIPVHAakiMAUM9Vt27ehSSpXpZ/oJKrsk57ITkCAPU4AkhSrSz/QE3bNn0MyREAqMsRQJKu2btjlAaCMAzDv2LA2mvYZWJhl9ZuNmKtIAQ8hOgBPJtdyAGsw2ZLsVjxCvovTMzzwnODNPPtMPlr+7p4dPgHkn2M6zIL6RcNdf6S8BsE/icPA0qSL/9Aa/qu3IfkJgCQz00ASXL4BxqzHV/jNCQjAJDPCCBJDv9AS/puvgrJCABMwwggSQ7/QDNqeR8jTkIyAgDTMAJIkgf/gFYMdXETkocBgel4GFCSfPkHWtB3ZTMul2chhZsAwGTcBJAkh3+gCbU8hZSQEQAwAkiSwz/Qtt1wd30RUkJGAMAIIEkO/0DLankLKSkjAGAEkCQP/gHt+tzdXl2GlJSHAQEPA0qSL/9Aq37+FnBdZiEl5SYA4CaApKPO4R9o2bAqzyElZgQAjACSjjKHf+AAfO3rvISUmBEAMAJIOqoc/oFD0XdlMz4sz0NKzAgAGAEkfbNztzgRQ1EARi+BYFE4doCadhLsKHQp6QowsAIkFjQCyw5GY1gDW0ATYCYIHOXHkZBRr0z7er7k7ICQ3PtuZxQZ/oGhea2L65ASZwkAWAJIyjrDPzBU3/+/QkqcJQBgCSApywz/wMC9L44n05ASZwkAWAJIyirDP5CFqnx8aya7ISXOEgCwBJCURYtqemL4BzJy3zb72yElblkVFwn+PoE8fXw5DUnqc17+gSzV5bydzbZCSpxLAMAlgKRBZvgHcrY8Km/biI2QEmcJAFgCSBpUhn9gJC5D6iBLAMASQNIg8s0/MDLnIXWQ3wQA/CaApF7n5R8YKZcA6iSXAIBLAEm9zPAPjFpdXIXUQZYAgCWApF7l7B/gx03bNJshJc7nAMDKzwGq8iwk6T/y8g/wy91LU+6ElDiXAIBLAElrzcs/wJ8enuuDvZAS5xIAcAkgaS15+QdY6WlRlYchJc4lAOASQPpk745tGgaiAAyfWAKlRaKiQZwtJDagAcfuqOnZAGUSCiQaFkBswDLINiJNhAIZAchdOOHvl74N0tzzu4t2msM/wLd89G21+FyEvSAlzBAAMASQtJOs/QP8VPW0bOMsSAlzHQBwHUBS1nz5B/i1fmzjVZASZhMAsAkgKUtDG68d/gG21MSH94vT/SAlapzH261/l8B/ZRNAki//AH+s75t4420ApcomAGATQFKSfPkHyKSNL2+X9VmQEmQTALAJIMnhH6Bs643HoasPgmQIAORjCCDJ2j9AIVZ9c3I/dseHQXIdAMjDdQBJvvwDFGQ1zKu7164+CpJNACA9mwCSHP4BCrPeeB6b6jxIhgBAWoYAkqz9A5TIvwXIdQAgA9cBpCnn8A9QJgMAGQIAmRgCSFPM4R+gXAYACoYAQD6GANKUcvgHKJsBgFJkCAAYAkgTz4N/AOWb4gBg2cZZUPI8DAh4GFBf7N1LEcJQEERRT4AQMINIVGTLLg4AEbxPz5xbdRxkM51URU3z5h8gQ8cB4HxcXn6FOCZfAgC+BJCa5fgHyNFzALgeP28jwJiMAIARQGqS4x8gS+MB4GMEGJcRADACSMVz/APkaT4AGAEGZgQAjABS0Rz/AJkMAEaAkRkBACOAVCzHP0AuA4ARYHTn/fY8//CsAiUZAaSkHP8A2QwARoAZGQEAI4AUnuMfIJ8BwAgwKyMAYASQQnP8A9RgADACzMwIABgBpLAc/wB1GACMALMzAgBGACkkxz9ALQYAI8CKjACAEUDaPMc/QD0GACPAqowAgBFA2jTHP0BNBgAjwMqMAIARQNosxz9AXQYAI8DqjACAEUDaJMc/QG0GACPADhkBACPAlx07uAEQiGEgWCz990ABPIk5i4ylqSHKmh2e5x/g/wQAEaBlIgAgApgdmucfYAcBQARomggAiABmH8/zD7CHACACtE0EAEQAs4/m+QfYRQAQARonAgAigFl4nn+AfQSA10SA0EQAQAQwC83zD7CTADBCBAhNBABEALPhef4B9hIAxogAoYkAgAhgNjTPP8BuAsAoESA0EQAQAcw8/wAIAE0BQAQITgQARAAzzz8AAkBTABABghMBABHAzPMPgADQFABEgOBEAEAEMPP8AyAANAUAESA4EQAQAcw8/wAIAE0BQAQITgQARAAzzz8AAkBTABABghMBABHA7HkcL88/AALAsQAgAgQnAgA3O3ZAAzAQw0CMP9tBGImPlLaOZBA5EcDM+QdAAGgKACJAcCIAIALY+Tn/AAgAVQFABAhOBABEADs75x8AAaAyAIgAwYkAgAhg5+b8AyAAVAcAESA4EQAQAezMnH8ABIARAUAECE4EAEQAWz/nHwABYFQAEAGCEwEAEcDWzvkHQAAYGQBEgOBEAEAEsHVz/gEQAEYHABEgOBEAEAFszZx/AASAFQFABAhOBABEABs/5x+ATwDYFABEgOBEAEAEsLFz/gF4QQCoJAKEJgIAIoCNm/MPwCsCQC0RIDQRABABbMycfwBeEgCqiQChiQCACGD1c/4BeE0AqCcChCYCACKA1c75ByBBABhBBAhNBICfvXtnjSIKwDC8pQhaa6d2NqIzG1N47cQiZmcWS0EEBbHwB6iVtTZWVoKFpf/A3kq0VwLipRB3ZohaCF7OQNqEgHNm54zPBw+BFMmSnIU9LxuCCGCDm8s/ALEIAMkQASJNBABEABvMXP4BiEkASIoIEGkiACAC2NLn8g9AbAJAckSASBMBABHAljaXfwD6IAAkSQSINBEAEAGs97n8A9AXASBZIkCkiQCACGC9zeUfgD4JAEkTASJNBABEAIs+l38A+iYAJE8EiDQRABABLNpc/gFYBgFgFESASBMBABHAOl9dZNfbA9TBIQQAAeD/CwCtz5tFdnRina8p83sd/H528itYbHkfvNvyNvjQft7rRBis3/Usvzkxc/kHIAUCwKiIAJH2jxHgR7ggvAofn9XF9E5TTq808+zCYp4d+3Z55cBun4N/rp7f873MDzbr+Wp4Z8K8muW3myJ/EL7u8zYYeD0JSyMCmMs/AGkQAEZHBIi0XUaAn3WZv2yK7GFVZGU9XznS13Ps68XV/YsiPx2+963wWJ+Ex7LRwXkCRADrYi7/AAxBX5eTIW3kAUAEiLhtIsDrqszvV8XKuU9r+d7JgFavnTxcFdNr1Sx72p6LDs4WIAKYyz8AqRIARksEiLRmlt8NP98X7Vvwq9nxQ5NE1j7Xq/LE2arMHoU/HfjYwRkDRABz+QcgJQLAqIkAtm0MWKxnZ+py+jick80OzhogAph/9QfA0AkAo+dfBNqO+3Lp1L56lt0IZ+VNB+eNv+zdsU0DQRAFUBOQ0AESJRB5kYhIyBGcJVqgABKKoA8CCBFNEFMDIrENAREB7DWAjG+Qbm/el14HY8v3d9YHXhEoTv4BGCsFQAo2AWSjrPsrAl159JsVQtgEyBon/wCMlQIgDZsAsnH6VxTWmblXBMBgNgGypV+p8uUJwFgpAFKxCSB//R1b+o2AgNmDzGwCZImTfwDGTgGQjk0A2eYq6+lHV14C5g+ysgkw9Xj4B6AFCoCUlADy53xfld3+1Yd1fj4CZhAyUgJMNdb+AWiFAiAt1wFkq3wuyn6dn4eAGYSMXAeYWpz8A9ASBUBqNgFkyOfosloGzCFkYxNgKvHwD0BrFADpKQFk2DbARXkKmEPIRgnQeqz9A9AiBQCuA8iQfM9mO+uuXNc5+gqYRcjEdYBW4+QfgFYpALAJIBFZnc9P6hy9BcwiZGIToLV4+AegZQoAlAASleXi+OC9mz8HzCJkogRoJdb+AWidAgDXASQyr2dlr87RXcAsQiauA4w9Tv4BmAIFADYBJDr9/wLUOboNmEXIxCbAWOPhH4CpUACgBJD/Sp2jm4BZhEyUAGOLh38ApkQBwG8lwKo7OpyJDEi/1vzD3t2kOBGEYQDulQsXouItZEC7BsSFC3WjyDDdgbgSxIUbF55B8QqeQMQz6M6TKP7gzumOG1HGaMUDiJN86aRTzwvPBaq+mXTerk67dgYlwCjjmX8Ado0CAL8JIOvOrKnv5Vk6DphHKMV8NkmPKtlc3PkHYBcpAHASQIZI16b7rqXBSYBRxJ1/AHaVAgAnAWSozNr0OGAWoSROAgwdbSUAu0wBgBJAhkw32X8SMItQEiXAUMmLPfW8EgC7TAGAEkCGzOIVgV1TvwiYRSjJfPGDmpWsL31z+WZe6B8BmwUAW0sBgBJAhs7v6cVTfVu/DZhFKMm8a+sHlcRn8aGWF7gL2CQA2GoKAJQAsonMplfP5zl6HzCLUJLjvqnvVhKXbwfpQj9J7wI2BwC2ngIAJYBsKvmLTMpz9D1gFqEkP/MJmhuVrJ7FRVDfpNcBmwIAo6AAwCsCZZPJX2QeBswhlGZ2dJj2Klkt3SQ9C9gMABgNBQABnASQVf8mXwXMIZQln1pfnF6vZPkf/fO6PwBKowAgiBJAlk7XXDqbZ+hjwBxCad6U+Dm+cv7+02nSh4ANAIBRKfHCQQGwNh4HkKVzdFhfczMOTq5r09NKTpa8aC/7gMUHgLFRABDMSQBZ4Zp8/3nADEJpfnWTdL2S/8usrW8FLDoAjJICgDVwEkCWytfbV87k+fkcMINQmk/9nb1zlfw7Xw7Saa/8A6BkCgDWxEmAP+zdvWoUURgG4NNbiFhYiJWIIvi3J6vgBaQRkt2JuQpBxN5GxEZsbMRKsBDsvA0ttLexTaHumSUWISmc1UoMcX9Odtg5zwvPBezHNwzzMrNH5kqq1u5m2D8ozmjQexPk6KRh70nKMGwAWFUKAI6REkDmimO5YU6DuB7k8Hzbvna2GdLPhYcMACtMAcAx8zmAzJxJcdTszn6G/YPSfN1Zv3oiyL+ZvCKRYcAAsNIUACzBjjcBZI5PAV5l2D0ojlMBDmsVN29cdswIACgAWBolgMyU3Y1bZ1IVdzPsHpSluW4mb7sH+evG/3bhwQJABygAWCIlgMx6rT7LsHdQnLqKr4P8yXhj7WIzlIOUYbAAsOoUACyZEkBmegvAf3bBXA4mz71Bft/0X2YYKAB0ggKAFigBZOrUw/g8w85BcRwL2CTduXLKt0QAoABIGWaHEkCOP983++ecCABz2U+DeD6UnNEwPswwSADoDAUALVICyLTX7LsM+wbFGQ3ii1By0iB+ShkGCQBdoQCgZTv11vULQeSIjDf7tzPsGpRo/GM7ngwlZrwVL2UYIAB0igKAtk2OZw4i/79uP6cM+walqYfxfigxo0F8nDIMEAC6RAFAu3ofg8gUGVW9B4vvGxTpQygxzQ//kmF4ANApCgDaVA9794LIFBkPb55udmYvZdg7KE1xn1rVVb+fMgwOALpGAUCL9iYPdUFk+iMB32fYOyhOXcVHoaSkKj5NGQYHAF2jAKBFv9i7Y9Uo4iAA4wMWQkqxkNQhncjtbAKCVoJgEd3/ylXpLGwsfACJxEafwUZs7MTOQkEFQa0tLMVOkUh29hCxECJ5hLsddsPM98HvBYY5uBvY2xdCtNQBoNp12Dsgna7oF8mUlfqjOQwOAIBoOABgKsc/5oRoiY7/zdyK/jWH/QOy6crsgmTo+46u8bwQAAAcADgAnCj/Fjt6VoiWf633S4f9A9Lp2npfMmTN7Io5DAwAgIg4AGAin4RotccA7jjsH5DRW8lQV/SBw7AAAAiJAwCm0Be9L0SrvQ1g0xx2EEjoz9G1jdMSPSv6zmFYAACExAEAk7g5q4Vo9c/wt8E7CCR0WPSSRM+KLsxhWAAARMQBABOwjHtHflmpnzjsIZBQfU8i93u+dW74kAAAiCvjDzEOAJN7LUQDsqa67bCHQEavJHKHN6rLDkMCACAsDgAYXasPhWjQd3w9P3gPgZx+SeS6Ut9yGBIAAGFxAMDYukYbIRrQ0Xx+isd8gdX084tnJGpW9JE5DAkAgKg4AGBsB9dn60I0sK6tPpjDPgLZ9E29LVGztnpuDkMCACAqDgAY2Q8hcsja+rHDPgLp9KXalahxGQQAgAMAB4CToy/6Xogc6hq9aw47CWTTtfW+RM2KfjaHIQEAEBUHAIypL/pUiByyRq+aw04C6TT6TKJmRb8OHhAAAIFxAMCY+lb3hMihRdneNIedBBJ6I1Gzoj8dBgQAQFgcAPCfnTtWjSKK4jB+xMZOsLT0DTJ3tkilTyBzRraIlUXeQxAbbcRG7C0Ewd4ilYWQSiwMIpioTQohc0aJIIGs7Ctk/1zCud8Hvxc4HNjhDDs1zWO5b0SCVg/uXAsv5yHYS6Ax+5a18HIqGBAAAGlxAEBNv31r24hEhZfjEOwl0JgDy9j6gYarIAAAHAA4AFwi9xa3jEhUePm48U4C7flpGVstl1cFwwEAIDUOAKhpXm7fMCJR4f1eCPYSaMyJZS28/BUMCACAtDgAoKLz9QsaIxIVXt4I9hJozZlljY8AAgDAAYADwKUxG5Gw8O6lYC+B1iQ+AIzlUDAgAADS4gCAir4bkbDJy3PBXgKtSf0XgE+CAQEAkBYHAFT0xYiEhfdPBXsJtCbnRwDXhfcfBAMCACAtDgCo6KsRCQvvHgv2EmjK5OWzZS28fxuCIQEAkBUHAFT0zYiETUN5JNhLoDX7lrUYuyeCAQEAkBYHAFR0ZETCeNYHLqLfs6zFWHY3HxAAAHlxAEA1Q/lhRMLmoX+28V4CjZm8f2VZm3xxOwRDAgAgKw4AqOjYiITFWF4I9hJoyjx0Dy1rv+5u3QzBkAAAyIoDACr6tzK7YkSiwrvXgr0EmjIP/Y5lbf0jE17+hGBQAABkxAEANZ0sy3UjEhVDeReCvQRaMo+LhWVu9vI+BIMCACAjDgD/2bt/H5miKIDjRyIqCiqlX40MCfe+EWubbVTYffdtpqJSaERJNCpRKElU/gSFUkEtCg16iWjWCu+8YRtiRq8z9+RO9p7vN/n8AyfnNSeTuSiqjceFyChN8W32TgLeXDp9UGqu7+L97CEBAFApDgAoaejCeSEyStv4SQ32EnBkW2pPU3PRYFAAAFSJAwBKmqZwWYgMmq+t7dUUf6vBXgJ+NC+k9rYno/2a4q/8YQEAUB8OAChp6OItITKob88cUYOdBJy5Kx7SLr4xGBYAANXhAICi2vhEiAziuW/g/003xhfEQ9qFh2owMAAAasMBAGU1r4TIIG3Djfx9BFzZmU9G+8RD03R2xWBgAABUhwMACvssRAb1KT4y2EfAEUcH2LnIHu3ix/yhAQBQFw4AKGz2dX31gBBJ9i8AXhrsI+DG0MV74ilNzQM1GBwAADXhAIDSpl2zKkT53/EXNdhHwIvvqTklnvqRwkk1GBwAADXhAIDywm0hykg3x8fy9xBw5Z14TFN8bzA8AACqwQEAxXXxuRBlNKRwNXsPAV98PP/3b9o2dwyGBwBANTgAYAm2hCijvo2PDfYQ8GKmV84dFY8Nk5VDmuKOwRABAKgCBwAsw7AeTgjR4t/wBzXYQ8CH5rV4TlN8mj9EAADqwAEAy9Cn5roQLdDPyfiwpjhTgz0EPBhSuCme+7Y5HmmKf9RgmAAA7HYcALAU/A8ALdjQhmvZ+wf4oTy9KiKa4jODYQIAsOv9Ze/uVaOIogCOH1EUBQVBsBWSTvy6Z0JQmwg2a0wyd5at9B0sxMK8gQhiq5hOsLOwsxG74BvEQiyCSSE6d9aAkGhWFgUjWeOOc2C+/n/4vcCdE1jObuayAEApEt1Y7V08LEQ5S70+LTx/QEtk3j0QEvncdWf56RAAACwAUJ6+d9eFKEeD3umDwWsIBvMHtMBmGp8/JfSz4N0zg0MFAKDWWACgRI+FKEdZN7pmMHdAS7glod8NtyHB69fiBwsAQH2xAECJ1ge93n4hGrPg3ZLB3AFtsBVinRD6s5C4ewaHCwBAbbEAQJmyRGeFaIyG74zg5//AmJLokdDu1ub0SPD6vvABAwBQUywAULLnQjRGmXc3DOYNaIMvw+syhUaX+mjB4JABAKglFgAo2ebG/PRJIfr33+1Lg3kDmi9xi0JcCwgAAAsAFgDV5O4I0R6FWCeC1+/FZw1ovJVBZ/KQ0N715/RE6nXN4MABAKgVFgCogJWByD4h+kuZ14cGcwY03Xaa6BWh8criqBO8bhscPAAAtcECAFWQxhoL0Yg+daaPBa/9YDBnQKMl+kQo9weC+4UPHgCAGmEBgIp4I0QjShO9bTBfQNO9+zh/+ahQvgYzMweCd68NHgAAALXAAgCV0Z26KkS7r/5bLzxbQLN96y9MXRL6v4ZXJgSvqwYPAgCAymMBgAp5JUQ7SmO9ZTBXQLPFeleoWKm/cI7/NQIAtAELAFQJ32LRzm//M68fgsFcAU2VJdELXqJq1K+XAm4FgwcDAEBVsQBAxSzzYZaGhcQtGswT0GRvw+yZ40J2ZbG7yZ2jAIAf7N09bhNBAIbhQVDR0EENBQVISNlxgoRAygWCPY7cQEkDHVwAKk5AQ8chKGno0nABWoSoIB7nRynyB6aGiknYmX1e6TmBp5nPa2/LDAD0zSJ1j4MG3W66czWnuMgFzhM06vtOWrsZVL6c4lOvBwSgVQYAeujLt414OWiw5dS9LXCOoFUH2yneDzq75mn0osAHBQC9YwCgjxaT7lXQIMubK6Oc4lEucI6gQYfzNBoHnX1GAABaZACgp/bzxtr1oEF1OptdzCl+KnB+oEXHi2l8FHR+GQEAaI0BgP7qPg7xfA45r/2DvzrOk9GToPNvPu2eF/gAAaAXhnjBMgDUY3khDBpEeXP1htdwwx+d5El8FvT/MgIA0AoDAD13sDteuRXUdKfr65dyilsFzgu0xuW/LxkBAGiBAYAKbC1/Gx7UbIsUXxY4J9Aal/++5T8BAKidAYA6jF4HNdn2uHuQUzz89zMCTfGb/77mSQAAamYAoBInv8yCmmrv4d1rOcWvBc4HtMQ3/33PCABArQwAVGT3x+bq7aAm+v3Kv0n3ocC5gJa4/NeSEQCAGhkAqMzn7Vm8ElR982n3psB5gJa4/NeW/wQAoDYGAGozT/H98l/jg6rNF2fgN//NZAQAoCYGAGq0mMZ3pyFcCKqueRqNc4pHucA5gEa4/NeeVROAWhgAqNXyEfKgqtoZr97L07iXC3z+0AiP/beSEQDgJ3t3rBpFEMYBfAQrwVLETl9Akp3TFKIErJPsnOQ5hDSChbZ2VnY2Vj6AhY2dVvoeKRLJzpJoIyR6goWNhTfGudnfH34vcN8WN//5lmUVKABYafPucZCVyNDfWsspDkvPHNrh8N9avA4AQO0UAKw8f6Crz9GD7mZO8fPSs4Z2WPtvNTYBAKiZAoAGnA4p7gWpMrnvYk7xsMCcoRVu/luPEgCAWikAaMizIFVlmK/fyymOBWYLrXD4n0q8DgBAjRQAtGTsZ8+n+EzXmKGPfU7xay4wV2iEtf+pxSYAALWZ4mFJAdC62dvD7TuXg/y3DH18uDjsLD9LaIab/6nGJgAANVEA0KR+9unLPF4Lcq4529y8mPv4Yun5QVvc/E89NgEAqIUCgIYd5H79fpBzyfHu+pWcZu8KzA1a4uZflAAA1EMBQOO+/fDoLIQLQf5Zjna6u0OK+wXmBS1x+BevAwBQFwUAUzCk+OZke+NqkKJZrPyPfff0Z9FSYE7QEGv/YhMAgPooAJiQg6GPfZAiyVu3b4wpvi8wF2iNm3+xCQBAnRQATM2Y4qvF++pB/vrWf0hxL8/jSS4wD2iMm3+xCQBAvRQATNTR4lN1U3z+l0mexy6n7mOB3x9a5OZfbAIAULcpHoAUAPwypPhh3IkbQf6YxScV8zy+9G1/cPMvhWMTAIDzpACAeJpT93ro164H+S37W/HSmOKTnOJxgd8ZWuXwL0VKgNMCDyPAd/bun8WJIA4D8FqJWGllJ8gVWihkJ1fcF1BE1J2EfAA7K8FK8RNoaWGhYnNio4WNndhoYWljY6sI/gF3cmejcJy7p50gp87ebZLnhYeQKslCIL93ZiegAFAAsD3f66pcnZ4rl4oFz4eTJ/a3t0hMY3if4brCPLPtX/LETgAAdoICAH4vAhp318bhaLFgSWeOH0gxXG18ynAdYd5Z+Ze8sRMAgK4pAODPZwR8OV+e3SyKPcUcp931UMdw08n+YOVfdjlKAAC6pACAbXnbuJ7Gy0eKOcm7ycq+FMMkVeVTvzXB8C89itsBAOiKAgD+ykbjWePi18nyoWLG0g79dRWqOg7vO9gPbPuXHkcJAEAXFADwzzamMTxPMVxJo1D29btUjwaH24ElxfDQFn8w/MsMRQkAQG59HVq6jAKAjnxuPKrj8PJaHKxsnl7aW+xw2rMK1mN5rI7lhRTDncabDJ8LMPzLbkUJAEBOCgDozLfGq1SFB2lUXqtHZazHw8F0snKwyLCVvx30p+Py1DSGS2k0vN08vkgx1BneN2D4lz5FCQBALgoA2BXrv1bnX9YxPKmrcrUd4n8qb2wdOFiFW1vPY3kvjcLj9naDxusUw8cMrw8Y/mWW4t8BAMhBAQAATvuXGYgSAICkAFAAAJCb4V/6GSUAAAoABQAA2Rj+pd9RAgCgAFAAAPDfDP8yG1ECAKAAUAAAYPiXBYkSAAAFgAIAAMO/LEiUAPCDHTu2AQCGYRj2/9c9Ikth0QAfyBYBAoAAAIDn3yITAQAQAAQAADz/FpkIAIAAIAAA4Pm3yEQAAAQAAQAAz79FJgIAIAAIAAB4/i0yEQAAAUAAAMDzb5GJAAAIAAIAQJjn31oTAQAQAAQAgCDPvzUnAgAgAAgAACGef2tPBABAALjfDoDvef7NRAAABID77QD4muffTAQAQAAQAADGef7NRAAABAABAGCc599MBABAABAAAMZ5/s1EAAAEAAEAYJzn30wE4LFjB0YAwgAIxPbf2iVsBczfZQgAcAA4AADGGf+SEwAAB4ADAGCc8S85AQBwADgAAMYZ/9IbOQEA/sEBAEAp4196MycAwD4HAACFjH/pRE4AgG0OAADKGP/SyZwAALscAAAUMf6lGzkBADY5AAAoYfxLN3MCAOxxAABQwPiXvsgJALDFAQBAOONf+jInAMAOBwAAwYx/KSEnAMAGBwAAoYx/KSknAEA/BwAAgYx/KTEnAEA3BwAAYYx/KTknAEAvBwAAQYx/qSEnwMOOHRQBCEMxFBQFQhhMcEQ6SMAEbfPbfTMrIgGoyQEAQAjjX6qUEwCgHgcAAAGMf6liTgCAWhwAAAxm/EuVcwIA1OEAAGAg41+aIScAQA0OAAAGMf6lmXICAORzAAAwgPEvzZgTACCbAwCAzox/aeaeY7udAACZHAAAdGT8SyvkBADI5AAAoBPjX1opJwBAHgcAAB0Y/9KKved+OQEAcjgAAGjM+JdWzgkAkMMBAEBDxr8kJwBACgcAAI0Y/5KcAABJHAAANGD8S3ICAKRxAADwM+Nf0sfeHaM0DAVwHI6Tzk4ewBPkpYObg4tbktLFqSC4Orp6AE8geASP4BnUVS8gCOYVXKVaXBQqlCZtYvP94LtACpX3f6EaAQC6yAAAQIMc/iUZAQC6ygAAQEMc/iUZAQC6zAAAQAMc/iUZAQC6zgAAgMO/pNYyAgCsjwEAAId/Sa1mBABYDwMAAA7/klrPCACwegYAABz+JXWiKg/nRgCAlXipyuxymiRbSc8yAADU8hHz7DSRpFVkBABo1GOVp+Pp8f520tMMAAAO/5I6nBEAoLaHqkjLPt74zxkArv1NAXD4l9ThjAAAS3mKeTZ08P9dzNMQi3DXwPMF6AOHf0nrzw8DAizs7ctFn1/1X6Q4HBzFItw38LwBNpUf/JPUXt4EAPjb9/djejMZHewmWqjZf0KIeXoWixAbeP4Am8TNv6T28yYAwBxleJ7daCdaqvfRYC8W2W3tzwFgM7j5l9SdvAkA8POGJlxNx4c7iWo3KcNJLMJrA58LwH/l5l/SJ3t3jGI1EABgeBRtxMJGvIIggr4J2FisnRaumSxbeAELO2+wB7D2DDaCYimIjWDrAUQstLDYJCoIsvIkeIQ3b99M8v3wnWBSZCYzk/KyCAAsXhu/9F28E5S1n4c3L9sNACyUyb+kcrMIACzVmOLLvr1xKWgrrUM406fmyZDinyHDeAFUwORfUvm5EwBYmJO+a46my+uCtt5xirfHFL9mGDeAkjnzL6me7AQAFuLYRX+n3/8LAlfvMowfQIl8+ZdUXxYBgJn79OMgXg3aSeu9vXNDF59lGEeAkpj8S6o3iwDAHPXd6v10MV3QzpuOXwwZxhSgACb/kurPnQDAzLz9fnjtYlAxjV18PL04ZxhbgF1x5l/SfLIIAMxBn+Jr//cvs7FtHvpDAFApk39J88txAKBqbfN8OnceVGxj29wbUvy98VgDnB7b/iXNNzsBgBqNafVq/SieDyq+vmv27QQAKuHLv6T5ZxEAqEq7emPbf10NbXMwpHiy8dgDbI/Jv6Tl5DgAUIUufvh2P14Iqq7pxXrj8QfYDtv+JS0vOwGAwn3+tX/rSlC1DW18muE5AMjJl39Jy80iAFCo8fhBvB5UdeujcHZIzYsMzwNADib/kuQ4AFCYv2Na3Q2aRdMRjiHFjxmeCwDb/iX9Y++OVZwIwgCOD6goeNhYCZbXCYKZ6JWmEk5QMznSHxY+hIhgZS++guAz+Bg2VnKNiCi6E48rbFwJWNnJfZsLO78//N7gg7A732wUkU0AYFusSn6eNKpWDye7teRaA+YDwMm/JAXkJQCwBd71y+W5pNH149Hkgd8Y4Ax4+Jck1wGAbdOV/PlnuXM1abR18/yqBswKgLV/SQrKJgBwBn6vDqb3k0Zdfzi7VEt+HzAvAE7+JSkqLwGATerK9HVSE3UH01u15F81YG4APPxLUlCuAwAbcvTl3s3LSc3UlfwiYG4ArP1LUmQ2AYChrT8Ol9RU/f7uxVryhxowPwBO/iUpMC8BgMHMp2+Tmqwrt+/6bQECefiXpKhcBwAGcHyyyNeSmq3O85uAOQKw9i9J0dkEACKt5vlZUtN9X+xdryWf1IB5Aprl5F+ShspLACDIJx/+07pa8suAeQLa5OFfkobOdQCgnv5v/x4nab0FsL93pZb8rQbMFdAUa/+StKlsAgCn8LGfzc4n6W91MXkaMFdAO5z8S9Km8xIAcPqviL4ub+zYAgA8/EvSluc6APCfjvon+UKS/mn9UciA+QLGzdq/9Iede0eRIogDOFyJGBioYOABBANRpKs3MhfEB1MtCyaCGBiKR/AIYmRo5AnMNxLMvYSJdnUzgWCwIhgIuus8Cuyu/j743eDPNPUa+N/cBJC0aX3XvAjwF/nu9Yu5i+tcYM4kVZmTf4CpsAkgaYPGr4fxfIAT5NS8KTBnkurL4h9gamwCSDqtfhVfBzjF+KC96jsiyeIfYCb8J4Ckk/ry8OBagH/IKR7lAvMmqYq8+QeYOjcBJP1RFz8G2EC/ap7sPW+SasjJP8Bc2ASQ9Hs/fxMCbODz7Rvncorj3jMnac5Z/APMjecAkn71rV/dvBBgQ0OKbwvMnaR55to/wFy5CSCpT/F9gC2MqbmXC8yepNnl5B9g7mwCSMuuT+3TAFs4vnPlbE5xyAXmT9JssvgHqIXnANJi+z7ej5cCbCmn+K7A/EmaR679A9TGTQBpefVd8yHADoaufZwLzKCkyefkH6BWNgGkZdV37csAO1gfHlz2vZCqz+IfoHY2AaTlNHbtrQC7PwP4lAvMoaRJZvEPsBRDis9tAkiV18X18bN4JsDu34pXe8+hpCnmzT/A0rgJIFXfUYA9DKl9VGAOJU0rJ//wg507tpEaiAIw/CCiBYi4ApC4nRUSGREZsLMVIEQfQIB0ybWARAcXkpNRAgUQgITHCHThUsQ8e3ft75P+Dl7yxjOGtXIIIC26q4AOw+7xw4Q5lHQ6Wf4B1s5zAGmZDXWzD+g01PKjJcyjpKPn2j8AbgJIi+3Fk4uATm1XvnTPoqRj58s/AA4BpMW2L38P7+NuQP8tsevueZR0zCz/ADgEkJbd5ltAgqFu3/TPo6QjZfkHwD8BpKU31vI5IMGfevm0JcykpNnz5h8ANwGkNTTU8iEgwb99ud8SZlLSrPnyD4BDAGk17cvbgASHiDutltvumZQ0V5Z/ADwHkFbVrjwPSNJq+d49k5LmyLV/ANwEkNbW71flUUCSsZavLWEuJU2aL/8A5HAIIJ1Xv15ePghIMtZy0xLmUtJkWf4ByOUQQDqfDq+f3QtI0ur2U0uYS0mTZPkHYBr+CSCdRbcBicZarhPmUlJ+3vwDMC03AaSTrwUkanX7MWEuJeXmyz8A83AIIJ10PwMSjbvNu4S5lJSX5R/+s3P3NnFEUQBGL5krIECiAwuJnd3cknPYtzkSVIEcOSWgBdyCAzogoAUaIEEI9o0QpEsRczXzNHuO9HVwk/cLjMsmgNRszwGJ6rr7kzCXknKy+AdgGv4EkJrMBgCpaumuE+ZS0vC8+QdgWm4CSM31EpDIEwCpiZz8A9AGmwBSU20DEvkEUJo8i38A2uI5gNRMXwGJ6rq7TZhLSa79AzAnbgJIbbS7/PUjIEkti7uaMJeSnPwDMDM2AaTpez07PQpIUjfd/5owl5Is/gGYIZsA0rS9l+XPgCR96R5qwlxKsvgHYKb8CSBN2Pr0d0CSWrqnwTMpyZt/AObNTQBpmrZlcRWQYBdxUEv3WRPmUpKTfwBmziaANH79evE3IMFHOTmsCTMpyeIfgD3hOYA0dst/AQn6zWo1fB4lufYPwF5xE0Aas+VjQIJ+s7wYPo+SnPwDsHdsAkij1e8iDgJi8AeANwnzKMniH4B9ZBNAGqe389VxwEDb0t3XhHmUZPEP3+zcP4pTQRzA8QEXG4stttvGwlIQ8iZrnUKsRDIvvGqx9RC2FoIHsPMGlnaCHsBT2AkBMwk2YpFlL7CbZOYlxXw+8L3Br3jz7wGN8k8Aafw2qXsVoFCex1+5wjxK8uYfgIa5CSCN26qP7wMUWL6eXOYKsyjJyT8A2ASQxmzefQtQIM+ni+I5lGTxDwCeA0ijl7fD8CDAgXKafqwwh5Jc+wcANwGk0VtMpgEOvwHws3gGJTn5BwCbANIR6rt3AQ6wSc8vbk8si2dQksU/ANgEkI7SjwAHyCkOFeZPaj2LfwDwTwDpaP37M8TzAHvKqftcYf6klvPmHwB2kefdW5sAUp3WqbsOsIftbHaWU1zmCvMnNZqTfwCwCSCdoL77EmAPeXH1onjupHaz+AcAzwGkE9XHv79fPnsUYEe5j5+K505qM9f+AcBNAOm0rfvpmwA72A5PH7r+Lzn5B4CTsQkgFfc9gL//S2Nl8Q8ANdkEkIo/Tp8EuMcqxa8V5k1qKYt/ABiDTQCpqA8B7rDqJ49ziv8rzJrUShb/cMPeHas4FUQBGB4EFcRiC19AsFsQuXNV8A0swmay7iO4hbKtjc32luL7WNkL2m2lYKG4maRUJBIslEXMTTLuJnO/D/43OM3MnOQC/E8uAaSVO/VngPxLTvFFgTmT+pLDPwCcB5cA0qo1jwP8xadBvJZT/Lr+jEm9yOEfAM6TTwRKyzdO8f3sOFwKcMZkFI9ygRmTepBP/QHARbAJIK3QqH0U4A+zh7eu5hQ/rj1bUv15+QeAi+QSQFquSYrvbAFw5vX/SS4wW1LlOfwDwCbwcwBpyYbtfoDfr/8f1p4pqe6s/QPAJrEJIC3Vyexg90qg9/KwfVZgnqSa8/IPAJvIJYDUvfmfvgV6bTqIN3KKOReYJ6nSHP4BYJPNDzUuAaROfRkP7+wEems8al4WmCOp1qz9A8A2sAkgdWwYXwV66XS/uZ1T/Lb2DEl15uUfALaJSwCpUz+me3cfBHpl/hWInNo3BeZHqjGHfwDYRn4OIHXq7ewwXg70xiQ1TwvMjVRj1v4BYJvZBJAWNx61x4FeyIN7N3OK01xgbqTK8vIPADVwCSAt7PtkL94PVO3X6n/zusC8SLXl8A8ANXEJIC3s5PPB7vVAtXJqnxeYE6m2HP7hJ3t3rxpVEAZgeEQEryCVF2C1mDMbFAvxCvTMCbEWhHTiZdiLYK3Y2FoK1nZegaVW/pxvExEFw0rQUtefHZPs7PPAewUzzcz5ZhegRS4BpMWNJT9ONGk2dJei5C9RYZ9IDeXwDwAtcwkg/aa+2000Zb9MNqLk10vvDamtHP4BYB24BJAW9jm2N6eJJnx/95+fVdgXUks5/APAOnEJIP26Wclv3g8XzyVW3tjne1FhT0gN5fAPAOvIJYC0oD6/9KOAq23s852l94HUVg7/ALDOZkO+7RJA+nmzYfp0vrNzOrFyxmF6LUr+GhX2gdRIB9FPbyUAYL2ZBJAWPgd4ePiOPLEy9q5vXY4hf4wK6y81ki//AIBLAOlPGsv0fmIljP3WhSh5jArrLjWSwz8A4DmA9JfdTZxoH7a7SZT8rsJaS61k7B8AMAkg/eskwDylU4kTJ/ouR8lvo8I6S43kyz8A4BJAWqax7x75YcCTZRw2r0TJs6iwvlIjOfwDAJ4DSJV6Mr959Wzi2I1DV6LkTxXWVGolY/8AgEkAqXIv9stkI3FsfvzP/0GFtZRayZd/AMAkgPSferW3nc8njtR8N5+Jkh9UWD+ppXz5BwCWZxJAWthe9N2NxJE4nLqIkp9XWDeppXz5h2/s3T1rFEEYwPERfCt8KQQ7myCiBILOMxvBNFfYRMTM7HKNgmhjJaT0pVHEQvwGKWyClmIhgqBfQAURFFsbEVHu9tkLRLFwzZHKxrtk587N3v8H/w+wu9xx87JzAIB4mAQgGlDqlvor0wYj0z/sLw/ypfKzImpWDP4BAEB8TAIQDexVL8weMYiqbLW2a5BrGuRXhGdE1KQY/AMAgNFhEoBoYKu5l8XSmG0GlfXPWFDv3kR4LkRNi8E/AAAYPQ4GJBoiL881S6YMqhz0d52/+CPiwD8AAPCfsROAaMjdAKm7Xc4f3mUwtF7q5jTI+wj3n6iJsfIPAADGj50AREP3sRfsWYN/6iwkh3Jvl/leIWLlHwAA1BCTAEQbyb3MfXLc4C/fz83t1WDvst2fiME/AACoOV4HINpQv/MgT9VbMRPuW3t6T+5lUYN8jXBfiZoc2/4BAEB9sBOAaBM/6FN50ltITpkJsxJmDhbe3tIgnQj3kajpsfIPAADqh0kAos1mXxfBXijb0ztNg3UzO6PBPtAgP6rfM6KJiME/AACoL14HIKpUV1O31KTXA7pt2Z8Hd1G9fcF3AxHb/gEAQMOwE4AoSu80tTd7mRw1W0xn/uS+IpXzGtxjVvuJWPkHAAANxyQAUbyKIB80yD3NktPlpdZuU0MrwR7rf+7VyzMN8lMjXDfRhMbgHwAAbD1MAhCNpNX1vxOUO0XmzvTC7AEzZuUV2aHZCVd4dzUP8lCDfI5wXUTE4B8AAGxlTAIQjaVP6yvv7n4e7OXcu5ZmyVR/oF75tP40SdS7TL3cWOvRWm/Z1k80khj8A3/Yu0MbBIIgDKM93VIIS3cIGsBRAIoCcHgccs7gSNgNLZAQZt5LPnMG/c8lBwD/zxFA+lmv0WN0W3u7rH05RW/H+dY+dpt9zPpymM/i03l0jW27R2/PL/y+JOMfAKjGvwNIkuRr/wBAEY4AkiQZ/wBAEY4AkiQZ/wBAEY4AkqTiGf8AQB2OAJKkohn/AEA9jgCSpGIZ/wBAXY4AkqQiGf8AAI4AkqTkGf8AAI4AkqTkGf8AAI4AkqTkGf8AAI4AkqTkGf8AAI4AkqTkGf8AAI4AkqTkGf8AAI4AkqTkGf/wZsdOaAAAgRgI4l81Ju5pYCZZES0AOAEkSY9n/AMAHCeAJOntjH8AgCpOAElSaMY/AEA1J4AkKSzjHwCgixNAkhSS8Q8A0M0JIElazvgHAJjiBJAkLWX8AwBMcwJIkoYz/gEAtjgBJElDGf8AANucAJKk5ox/AIAUTgBJUlPGPwBAGieAJKk44x8AIJUTQJJUlPEPAJDOCSBJMv4BAD7hBJAkGf9w2bEDGgAAAIRB/Vvbw8P2EAoAEU4ASZLxDwAQ4QSQJBn/AAARTgBJkvEPABDhBJAkGf8AABFOAEmS8Q8AEOEEkCQZ/wAAEU4AScpn/AMAVDgBJCmb8Q8AUOMEkKRcxj8AQJUTQJIyGf8AAHVOAEm6z/gHAMAJIEnnGf8AADgBJOk84x8AACeAJJ1n/AMA4ASQpPOMf8aOndBADAAxEONUJgei/AvhSOwTrWxpQCQAAE4ASTqe8Q8AgBNAko5n/AMA4ASQpOMZ/wAAOAEk6XjGPwAANZwAkhSb8Q8AQC0ngCTFZfwDANDDCSBJMRn/AAD0cgJI0nrGPwAAM5wAkrSW8Q8AwKzv97xOAEkazfgHAGCHE0CSxjL+AQDY5QSQpPaMfwAAMjgBJKkt4x8AgCxOAEkqz/gHACCTE0CSyjL++bNjB0UAwDAMw/izLoh9ulq6M4gEAGA3J4AkPWf8AwDwByeAJBn/AABEOAEkyfgHACDCCSBJxj8AABFOAEky/gEAiHACSJLxDwBAhBNAkox/AAAinACSZPwDABDhBJAk4x8AgAgngKRwxj8AAC1OAEnBjH8AAJqcAJJCGf8AALQ5ASQFMv4BAMAJIOl4xj8AADgBJB3P+GfYsQMTAIAYBGL7b/1LfFuRBG4IBQDACSCpPOMfAACcAJLKM/4BAMAJIKk84x8AAJwAksoz/gEAwAkgqTzjHwAAnACSyjP+AQDgByeApOCMfwAA+MkJICkw4x8AACY4ASQFZfwDAMAkJ4CkgIx/AADY4ASQdJjxDwAAm5wAkg4y/gEA4IITQNJixj8AAFxyAkhayPgHAIAETgBJgxn/PHbswAQAGIZh2P9f74kOWiyBj0gAANjECSDpQ8Y/AABs5ASQNJjxDwAAmzkBJA1k/AMAwAVOAEnGPwAARDgBJBn/AAAQ4QSQZPwDAECEE0CS8Q8AABFOAEnGPwAARDgBJBn/AAAQ4QSQZPwDAECEE0CS8Q8AABFOACmd8Q8AACVOACmZ8Q8AAEVOACmV8Q8AAGVOACmR8c9jx05IAACCGIj5d30ibj9KAiOiBQAAJ4AUnvEPAAA4AaTwjH8AAMAJIIVn/AMAAE4AKTzjHwAAcAJI4Rn/AACAE0AKz/gHAACcAFJ4xj8AAOAEkMIz/gEAgH9OAOl0xj8AAFDHCSCdzPgHAADqOQGkUxn/AABAHyeAdCLjHwAA6OcEkFYz/gEAgDlOAGkl4x8AAJjnBJBGM/557NiBDQAgDMOw/7/miQGTYks5ogUAgH+cANKTjH8AAOA/J4B0NeMfAADYwwkgXcn4BwAA9nECSKMZ/wAAwF5OAGkk4x8AANjPCSAZ/wAAQIQTQDL+AQCACCeAZPwDAAARTgDJ+AcAACKcAJLxDwAARDgBJOMfAACIcAJIxj8AABDhBJCMfwAAIMIJoHjGPwAA0OEEUDTjn8OOHdgADMMwDNv/V++JFg0UEtARNgAA7OME0LKMfwAAYC8ngJZk/AMAADgBFM/4BwAAcAIonvEPAADgBFA84x8AAMAJoHjGPwAAgBNA8Yx/AAAAJ4DiGf8AAABOAMUz/gEAAJwAimf8AwAAfE4AtTP+AQAATnECaGjGPwAAwGlOAA3L+AcAALjFCaAhGf8AAAC3OQH0OOOfnx07OAEghmEg2H/RgfukBMf2oRnYIiQAAKCLE0BDGf8AAADdnABqzvgHAACY4gRQU8Y/AADANCeAHmf8AwAAbOEE0KOMfwAAgG2cACrO+AcAANjKCaCijH8AAIDtnAAy/gEAAEI4AWT8AwAAhLgnwCkYhcrI+AcAAPgrJ4CMfwAAgBBOABn/AAAAIZwAMv4BAABCOAFk/AMAAIRwAsj452PHDmoAgIEYhvFnPRL3mBpbCogWAACIcALkM/4BAAAqnADZjH8AAIAaJ0Au4x8AAKDKCZDJ+AcAAKhzAsxn/AMAAOAEGM/4BwAAwAkwnvEPAACAE2A84x8AAAAnwHjGPwAAAE6A8Yx/AAAAnADjGf8AAAA4AcYz/gEAAHACjGf8AwAAcMMJ8G3GPwAAALecAN9l/PPYu3uUBqIwDKNXrC3ENYiVoEm0ERQFKyFmIrGxsHAV1m7D1h1YuBV/QLAVmUkaQaPxBm0EC4ubzCQ5B95FPF8yMwAAAKPhCFCZiX8AAABGyxGg9Il/AAAAxsMRoLSJfwAAAMbLEWDsE/8AAACUwxFgbBP/AAAAlGsYpsNATRC59vc+ilbjLAAAAEDZulntJIbqe4LYtd/r51n9NAAAAEBVFK3acQzWtwTRa997zbPGYQAAAICqie8E2IvhmieI31nfS55t7AQAAACoqu7R2nIM2LsEETyre+g1GysBAAAAqq6XbS7FlwPeJIjhmVp83v+6OFhdDAAAADApBp3OfN6uX/hM4L/WjweT80EIcwEAAAAm0c97AZ4SRPK07jFvr28HAAAAmHTDv7XHX7ivEsTyNO2zaNcvn5tbCwEAAACmSXwkYDeG722CeJ7stev3RdbYD/DFzh282BTGcRw+K2QlKRtFYjYsZs45ZkjJ1mJ03nealZK9jZ1YSOztFDsp5T+wMWo2Vraa2JIV97znMinK9V7dhZIFc8bgPk99d6fO+lNvPwAAgP/Vm8Vq5+Q2wPqGQ/rf2zDF8urozKHtBQAAAEyDd3FhXxeqe1NyJPBzCuWdD2cX9hYAAAAwjdLSsYMp1nfHkdxDaP9t+9Q25f1hmJ8pAAAAgKLolmYPp6a6naP5fQ/hvdVLXShvtc3sgQIAAAD4UY7mXW0sL+WIftZDiP/JfUmhfprD/6LL/gAAAPAL2ji3P4f15by1HgJ9U9aG6nkb6+vjFwwFAAAAsDEpVmXbVDdSqFdzeH9MPcT7b249b6UL1bVBqI8WAAAAwOYYXTi9o41zp8YRnkL9OAf5oIew/9ne5n88Sk11ZRjrk6PlI9sKAAAAYGsMF6s9XSyPt6E+38bqZmrqhznen0xuCbzMe53Xfhf2g7xXeS8m36zkyH/w7Tl/KM91TT3fLZ/YXQAAAAAAAAAAAAAAAAAAAAAAAAAAAAAAAPCVPTgQAAAAAADyf20EVVVVVVVVVVVVVVVVVVVVVVVVVVVVVVVVVVVVVVVVVVVVVVVVVVVVVVVVVVVVVVVVVVVVVVVVVVVVVVWlPTgkAAAAABD0/7UzLAAAAAAAAAAAAAAAAAAAAAAAAAAAAAAAAAAAvwCixHTr4WWEkwAAAABJRU5ErkJggg==;" parent="1" vertex="1">
                    <mxGeometry x="60" y="300" width="80" height="80" as="geometry"/>
                </mxCell>
                <mxCell id="12" style="edgeStyle=none;html=1;entryX=0;entryY=0.5;entryDx=0;entryDy=0;" parent="1" source="3" target="4" edge="1">
                    <mxGeometry relative="1" as="geometry"/>
                </mxCell>
                <mxCell id="3" value="" style="shape=image;verticalLabelPosition=bottom;labelBackgroundColor=default;verticalAlign=top;aspect=fixed;imageAspect=0;image=data:image/png,iVBORw0KGgoAAAANSUhEUgAAAgAAAAIACAMAAADDpiTIAAADAFBMVEVMaXEeiP8fiP8Ziv8gh/8eif8eif8gif8gh/8VpP8djP8XiP8ah/8eiP8Ai/8kkP8gh/9MaXEgh/8eiP8ggf8biP8eh/8eiP8eiP8fif8fh/8giP8fif8fh/8giP8fiP8eh/8eh/8giP8eiP8eh/8eh/8fiP8gif8giP8gif8giP8eiP8fiP8fif8giP8iif8eif8dh/8eiP8eiP8fif8cj/8eiP8fiP8giP8eh/8eiP8fiP8eif8eif8eh/8fiP8giP8giP8eiP8eh/8ciP8fh/8Ugf8eiP8eh/8eiP8cif8gif8eif8eh/8gif8eiP8eif8eiP8eh/8eif8eiP8cj/8eh/8Sgf8eh/8eiP8eif8gif8gj/8gif8eif8eiP8eif8ei/8ah/8eif8eiP8eif8eiP8eif8giP8gif8gif8cif8Uif98vf8eh/8diP8gh/8eif8gif8fiP8gif8gh/8eif8eif8eiP8eif94uP8eh/8ci/8gh/8eh/8eh/8gif8eif8cif8gi/95uv8gh/8ah/8eh/8eh/8gif8giP8gif8chf8gh/96uv8eh/94uP94uP94uP8eh/8eh/8eif8gh/8eif94uP8eif8gh/8gh/8gh/8ci/94uf93xP96uv94uP8eh/94uf8eif8chf8gif8ch/8gif94uP8gif8gh/8gh/93uf94t/95u/94u/90u/8eh/8gif94uf94uf94uf93uf8eh/94uP8eh/8gif8gif94uf8eif94uP8gif8eh/8eif94uf8eif94uf8gif94uf94uP94uf93uf94uf94uP8ch/94uP94t/94uP94uP8eh/93uf94uP93u/8gi/8eh/94uf94uf94uf94vf94uP94uf94uf95uf8gif8gif94t/8eh/94uf94t/94uf94t/93uP8eif94uf94uf94uf94t/92t/95uP94uf94uf8gh/94uP+B1f96vf93uP95uP92uf96uf94uf90tf9mzf8gif94uf8eif/0vNazAAAA/XRSTlMAUhgUQFb9qasCHgocKgQFqQD3aggWLjpLXpbZ3LHRt/P9ua1U74+wYPOZfCi/cA4yT5JyvAhiw4m8NkiWnvWzoMlC+zTkDGTVpizv7RDgjfecx4TNEoQO7aPVzxBY5XfrIBLFXMta9cHn8RoMC91GWKvHZunh435BRP3FIus4evnfPjAw8SZubKFoJiyRD3Ry8Pfb51TLterX+el2JMAIH+YiK2wagSSH8/uB12DfGSgUMDiDVUdNSqTPblDhPKp+h4ucetand4+xP2W5PLzMxom1OXsjPos1bK0SUe2fW054lJvPmZfZHHRo2375JkK1ySDUBhY8WW5EfBgEXagLGgAAAAlwSFlzAAALEwAACxMBAJqcGAAAIABJREFUeNrtfQlMVcf+/wA26WURHquAAheNGkBQECgQUYtSjEGiVQE1blGDGhEliFxcEhU31IoLMUCsS4w2VNtnN419GtL8avtqq10MrbVWbX02rXZ51tfX9++5+Qc37vKdc+acMzPnHJzPz9efr+/eme+d7+fMmfmuCDFE5nqftuditvRPrIjruzBBCp09Ydqk4YPKk0pqo6MikEBPxtCs9IpWSQ4J87ek9ioVK9XjEHB206jpEikq+6/NE5tBj0HmsJgiST1m9s/yE4tneSwO+0zSjvrkILGEFkZaVo5d0om4tsViIa2JdwdJdFBRHS5W02rwu1Ej0UNZySGxpFZCVLlEGzk+YlktgvCsyRILTGibIRbX/CieWiYxQ9K/xQKb/OlvGy+xREtJsVhk88I2eIXEGotmiSuBWbGuSOKBmnk2sdYmxMZ4iRem54rlNhvSYiSeWBYoltxUqGqV+CLhjHgPmAdHEiX+mL9NLLxJsDVfMgS1YulN8fbvJxmFbHESMB4fL5SMw6JhQgEGo12b5voOf3ZiSW1q9Lu9+iwIu/FcUkh8c6g247BQgZEIUH33X10/Yta7Kb2hwQLrwrbH16iNIFku4saMw6FYVbqqHBGt7MwpPPXc6AI1o+4ZKhRhEJY2qNjzk+b5km8seR2TVFBgnlCFIUglflCLao+qv1xk5RCPf0wYhfjDNoI0jqNjvcYpIjbXE54IPssUCuF9+68gC+ZLj9I1jf+saWTuIV+hEq6YEkeilrEZAfqnOpVN5CMWNiGe8CU5/sdmBdOZ7Y2RBG+CmUeFWrjh3wQh3/P3UjyZBZUrHwhXRwrFcMJGZd9vaxXlOVOUzxwNwiDAB4F7lFRRUFJIf9oFik6H1Y1CORzgV6mY0pnCZOLS7UrvgZniJMgepUqRn63sDHORo5WMzeI2yBqZ8xV0EJPGcvoshayTojShIqawKbj/ZtexvoAuV4gRCRZKYgmFpM9s9oVdbFPljQL9hJIYotYMQXp18rfQEqEmZlgqf/qL4iRGhLxx+F2hKEZYLJv4mTiX30kkWe5C2OAvVMVm2ZtlT/9cZcmTiyCcLg6CTHBMZs3tbZyFGSp3H9wulMUAvWRO3y17uYtzSM4hlSfURf/ktRq/3vnrDBDITyZUZPwRoTDaBwCZk3erMY7YQhkH4WgRJUgZMgkgZauMEmokXqgOoTK6Zy78AaDBuECMTBnnkAgOoAq8C7BljYFipeFD0+LES4AiNuHvf30MFcx3JlayDKE2ejeABOwyRxss2kasdTJfdByghhCs/ttJh8hNbW9P7cOg+PsafB0hoThKqMOucX8y5bclPtlCZibSDhddgJWuTqiOCnpjgwAnEMR+2gZ7muxq2uiG7WBz1Cp7C+XRQDL2ESMo19fnVej1nE6z4Gv4qzj51grlUUAg1vGWqvjdUtzpYfUCihIG4YpUhYooYQqYiNP/SMWvRspEkCdS9Npn4SaZKNSnG3Nwi7tCsXq/j2zZn9Ab9IQch5tExIboxiicBWiM0jevK+VxxFEz12ZOEDWkeG8ALyp98yRBAvH2AEpinhRbAOcTQI3SF9MqCQggjT1FSc4YU0Sq9TxEFGgNvR1JWvebjsU2DWMSDhUdRnRhKkZt8UpfjCav9hnG9CaQLJSox8aCCb1smaPwRZuaroHLqWQTY2KWW0WIsA6EafUBDVBX7rOdgqxDMWNnCTVqR1/MCVCxb1OOyoKvsRTCSpPgoacJNWpGndYggED1VZ8n6vYQRWBGfkMoUiuexWwAitFWWzXU/dZfVigdHniUUCTlR2qr4jdDNJV+j9fpu8HsO6Gi46xGrMUUgVA+V2tsIJiQqi+SExMZcEaoUhsqNUdbam4B0rxej8CNmJKFQpWasB6TdhXOkABSQaeeus+YV48IC6BpBSQJs4EzSMgoUKMjlG8bPGSbUKYWwMa8hDStBFiwlrAt0DjtXWDgDmbNQpn0LGvfIa0EGIDmDCFjQJlm691S8Q5g/QZYp5kAzyCE5s0mo0DFHG1C21o1Ri8KeGEyHAiGdBEAFY8iY0BosjYnzkBwtByhTtWYi2nPo5MACJ0lbDVWpKlH/Bj4bhEgFKoWGP96im4CoOD2FiIG2DVVnd0NjiU6jKpGfziOE+knAEJHyRoOSTN91MtdK4JD6QC+tb9EhQDKRZ+f5B6oLv+9CnY3C4WqRBC8K0dQIgDyG0fGgIbNat0DcDXpuUKl6lCty6quTACEehFGjc3fpk5y2IV1XahUHeDbWidFAqDMY2StQVs6VLkHonTcXgSeAL6r9aFJAIS2zSfbBCp7qbEFgQbnCqFSVZgCa6JUDwEGAB8MSyCjwCgV4f2JYMEYoVNVWAmqYTKiuwN0VXlaRsaA2eSdiOB6BqKjmCqk6uvFQE4AhE6tIKPAENI0v7Pg132EUtVghD57mhoCoIASssNgfhvZjRA+BLQLpaoBmGZjD2BCAIQip5NtAqMXE80OJiUMEkpVA/AhqkS6CDBA7pWTTxYosJJk9ueELVAv4ADrRMRoB0AIHSHLJi4gqS0EGrEKhFZV4GNw9dMZEgChZxYSUWCz8uzrRKkIvYCTuzcxJQBKS7eTOImVwwQWaw9lEngIuDvAUnZngIfIJUkoWaEcJZBgxqrGlsIWcOkPsSYAQrMIAoeV30TgpaJWqJUciTqPUZpeAQ/gn6j8ElDsULFMVAvSCTAg9FUeBECoqlUxSkRpiA7oWyFCreQAXfVD+BAApSUpHAbtSmH+Z6BvDRdqJQd4iurHiQAInX1VngFTtVxipgu16lRgOTcCoOBk2cNgkcLXfTRVNhRQUGCMzu8PUCNBo2wWmcJ9BCxtkyDUqlOBnfx2gAf7uEyr0sHyX4XbyGQKvepTYDJfAiC/LVgCKAQmRIJf8hV61afAVM4EQGglrt7wZwrGBPBLQUKv+hSYxZ0AKPNFOItskvzX5gpnAAsCVOn8/gAtkqTUa7kGiPxAnSjQ6U2htQMgtFELATJFVKBOgLfwMP4ECD8GvwLq5b8GFzg8JfRKjAadpZYovQLycNljCkZJuM2J6CNJjjKdcbVUdgDfZ+leAz8WeiXGTF1ZAXQIkCqTNKSQJQKnB+YKvRKjSGeRBf2vgNw4OVPwv+W/vFTYAXQCPHqP47cDlMqHByrdAvcKS6BOjGThDibfAQYoBAgrtayDY1qFWslRrrPmsq4dwF+p3Yj9iMIIN8Aax0Kt5Bio05+qZweoVQwKVMzyGiFSg3TiJXDhIzgQYB1BFUHFjrPZ0LeyhVrJUaXzIq31FTB3C0FigPJtZLbOgCaBj3W6AzUSoHoRgf7HKnaAmSGJ/HCdgG2pHWwJkDKaqH5olLINQUsUkYCyBvuzPAOEd5DVCCDwSCwQ4QBsTIFFDAlwirBqIElYUrvoGaAbsB8mnBUBFvcnLCJPFNQBDtYglKoGcLeIlboIgD0D2FIJi8XVkJnzyzSEEAiQ3APbmewA8n4fF0wk6wC5TW9WgwCuVnQFgx2gNMZOpv6+awgn3yzpjGcSQMgGFm0qsFEnQNVCwrc/eQsZ+PxyVihVFZbrukqREsCfsHOElKOiwg94BLCLvCB1iJH0VNkgI0BwLWEjwT1qGovDRwCRG6wSsEs9Rw8BPA+BKwm7R0kxpWok36yzwpnAA8DG4JYZ1HaAueWE6o87qU5yuMbMAqFSlQDjQqVqSgSwVRM2DWpQ21E+Ai48PEdoVCVgx+wQHQRweQUE1RM+/u+rDuQ7A9eWEwpVi8GwRhZTIEBAJ6H6a/JoXV9E2zjV8IV1kqH/FbB0Jpn6W46Fqxf7CDzWu0KhqgH385mslwCLBxE+/vUbtUgNtwspEFYAWksprdJFAFsGod9ntcYO8pW6rq8CLoAT7MgcQrgzwBtFhI//xLlUhd4k1EntYarRToDSGEL1x2qO3knXc3QVcAcmRitaKwG2tBLq/4Zmkf3gxiMiIlwTcjGPJ8FX8yXtyNHR2eFF7XFkAt6o0XylatWs/pkDdAgcAJ8w7RFClzTfAQQ5gpO16n9gqR6B4YQmNVWuBVzRiNGSciffcdrUHxepS97g2ZLe8mYCbsiGFzRe8YsZWtSfcEanuNUYk4JQpFZg/AHKtTaCNOg/RG8BBxvmzNIpFKkVmRiznXLvhVi16q/UX8MrDDP0UaFIzcC57RSP6rPUqb9larhuWeeO1/rCEsBiMS5DV6mLsJ8qS0BFCgVZR2EGF+UB9QAXt6X4Xl1Lrv7ZVPJ210ja7VYCWETitKb4zBKfAsqnUJEUl14kssL1Aee9V0wSiiJTf1EUHTlTMeO3ChXqw3qNxTpxSdruyL/Rm46YEQ2ScATz3QIWKebbK/cAjaeWs/8ZZgYRDMpuC1B8CWQq5H3tGUBNSKzlMUsoUDfexy2uUvtGFBwio/6CgYXURBxTgDMv2YT+dGMOVofKN+yt2O/OX09PwhnY8jKiSQgNbMcGbipb7yObYb8P1Wx9bJyxqApCBX64EzZRP+Z5k7zV3zGFpnxnsNvMGKE8tkcsaS2RMWmgW/3H6WfSqEp3Em9iEqqjBLxVj7AV25pZ3yXG5jfEDtleTbttwxHsASD/iNAcJdTh3XhRBouWFqurpKAAGUZiV3lRiqGChePTjEcLtdHDYnxC10wjO7HY+uHtDClCbRRRLZPGk2acWBPxYoni4HSRjV/q0Yal3sr4m+KEDZAu/GWyerNnGCPTVBlLs3gB0MYwmdV+1YhzgG2izqLiAuqwXa6Wyyru4gTHywUZCnUxQLPMipfx7suaJudrLhO9AVggUK6yWz7f4NuIaXJdZUSbaDb4WK6udwHPDLxDK3R2lRHQBNmUP3tnb15ynJLtLjZSKIoZ3pev68XJ+zJQPsU4QOiJ3dG7WXbty/I4yBAoL8NMUQ2CJfz2yDf162BugKuTby45fqNQElNEKiT91fuznV+hymzoGqEi1k9ggUKux9pgdpM/Xyk/eUEfoSDm8FFq8tR3Kau3fz+Fme2iGAwPRCtm/AxiYYnLrFVMOa8WyuGCMOWkv1rqk+ZVKk66VqjGPAyY2VZKcUKbD0GHCeEB5AeSKmANnbQq9GZWExQbsG8VauGINqLk/y00YsCLa4naC0ULpXDFYLL6D/F6s/PGpJP1FhRZgLyRR9j0sSxpnWbroH/yq2ST5K8TCuGONbNJqwDt6dASoTdl83LSCcpOCnUYgMXzySuBxcZcV+WkW9OeraLI5CqhDEMQXC6pQMuQG+uJXga+WSFlagYeWSpUYRS2qiwIW1Z+Zqmct6g0anBnnMoxRRkoIzG0RkNZ6MkhL85blxvZ6O87IxyhtIjAxm1jzvaZNSJ7tfqxJgwVSjAUxfGSkRind/uP3Htj1JD50yr3LJKk/LIVsXGT4ks2L7VOp2FX+cv6zk8MSTp2pg/frJjNxqk/QY/1J21pbSJ+/yoKCTP51UJW/hVDJr7ELVL/6CSD9D9a84M6ZUEMwVEjIbHdpJWmyeQPjV97lo88bUaoP1Sr8ydgnorX1up008UYqZJfSpzHQ6aN/DeBIdpiz3r3GZegcqa+7SZqOaFB/tYOfw6CZfBVf5m2IuCBU7U1tMteYA71a5V/OIdQKf8Qfuq3T9SSkG7L61egecrWDsPzDXXJP/alQuYCrovjpP9YTZWpUit1Tjso11D965W/oYN9Ev/gCRzUv3CzFtEG9KVhdTBuF6Ai/0Tmh5neg/syVn/NVi1R55GUDqmhU43JO6Mlvz2JfTGX6N0M1V/5ghaRfLfQk6DVgMhjmvLPZt9Cx1Y1jZH6i+ZpCS2xVS+iKsVyzpdC2vLXczAU++QwUH/zu5pk2ZhNXZJknvpnIH9nOHuxG7fTpW3oKG39BYKTQ1lsRdxckGzkj+WRQRtQPZ2awNNSNZ5d/FndTDmVoWQmP5+TzBvlDRRkrcjQHPG1ZrXECoN4XAcYyh/CKYzqbIeufaAhZJ6OQrSDJYaYvJj54jGVv5LbaywiWl2IX/ebduDzuiYuYWuRaGVtGGQsv8QzlT434311hsy4Eh+dbWUy2Ycq7WW5ZBzk55xMX0x4N4wbtemsfsdFab3EHgyNKlzkf4EvAxTcha1x8emb8ihdUKZM5uKWYpaQykn+VBMQIK5XF07S9VRFFKkJ+IgvWXtm8IC8XterqjNqR2SrcbkzqknJTf4XjSdAAovrM6k/oijdp9H764W5YctIV3Eqsrb8yca/AugfpouJXJINSXuLZQYJCiM7s8xC1pZ/q+EEyKBuPiVIKg191kfZreybSvAmtvtYXP69RhNgEO15lin+6BVhpOallCRlXayxtvxSncEEyKfsm3pO8cU5WE1V64gOJXt2mb+15U9YbywBKNsjXlAy4Km+vE9JV3KuFVtbfl79NXAEoPoOGCMfOBvaocWJ0zhcfgWHW1z+0TZDCdBCMWA5bazsL12mdbc+FcvHHGCQ/B3GWgLD6M0ha0AvO6XjaC7bpKAg19ry2583lAB9qU2xSTaYT5+1sU7Op7mi0Nryz44wkgDULiKRLTIkf1Hvi85XLjqvv8Xlz7YZSYB+lGaQe9G9S2F8ufDsaIvLn2okASg1epVpJRxKZ5ORuVCV+Vlb/gRfIwlA5Sa4EX+DaqB1SJPR0SiLy19uJAEkGgFq+BCK1duo/YhU/G9YY3H5o4wkQLb+4bPwz08QxV+BX8HY3taW/1WbgQTQX+x5Shknbw2+bdVai8u/yUgCLEzTOfoxbtGv2PqoCcXWlr8hzUAC6D2DpCVwi321Yc11tRaXP9lIAkj6rJHY4+1A+j8kE1cHY3yAteUvCzeSAK16LqIBuAcojkVHa6zF7obF5c8wkgDSZB2/NRkzZj6bCmm4o/TscGvL3xpsJAGkJO0bQBnn5JeRdA2qppE/zFACaE9azmLpooEQgYmz2m1x+WuMJYDmCFtMHG0ou1gnnON2ncXlv24oAaQCbT6PRhaWGYW7VBxFj4CJ5H/WWAJI+ZoM0iWsA00ARGF+QKG15ZdmGEsAKV+L3Ws1oziTo9Xpg0bGhMGm+FH0zjFmkn+rwQSQ7OojK/bCIw3Re1t+EkEzHdqXFsPe20nI2vLPN5oAGt58mFSaPH3iutnm0skfIfUHN3PJn2I4AaQQlRZV+EoTR/WmXOH9iRRae6i55J9qPAGkWFXFOOvgQXSV+A/2cphsJ7WmxKudy2TyN5uAAFKCmuIlcMR7K21LWRSp5tR6hMwmf6kJCCBJk8gzFivpe9GgZ6Pe+2NjqfjvrS4/GwJIUtJcsmFT6EcZ9gNH9K5X2UnDpWE6+UtMQgBpPJlzMgw+RlBfPyBiKhL8XKW62Uwn/2SzEECSdpNkQyRRDm4JxgXMxHh/djeFl6jp5LcXm4YAkhRXnak0LBxNHUn7+QFdcx0ULvDmk3+YiQggSQ3pkRpu0bPprx8UtVhH4ek1n/y1piJAV+ptkg/exTKHqiPdhl8/6HCUWaA71dGE8r9vNgJ0+Yknp8+Dq8YPAz+/mf76Sc+Q7t+qrvAmlH86TwJ8pqIjSkP9iLY+uUGBbuHra8GPasylGSTnp4ROI1PBj6oJbzWh/Pk8CRASzKIqdij95we2zPhITGCw/P48CSCTqaIdcdSfHykffKyD2BDAYPnr+BIAxVBfwBBQgFMDs/dINcPbx2hYP9zdjg0BDJZ/M2cCoBdpLyBUBPtsd/OafnNUr1+VKkO+xeU/xpsAqCqf7gJ6RxXZau2ux8nr6t6fBdhw5UQmBDBY/iTuBEApdJ+kOkWb11Y664cLq7G2/CH8CYBK+9FcwFzl27Z7Dkx/TfsnQmg7EwIYLH+8AQRA6KUCegvoeY0Onun9mcEUnh+cIcDi8o82hABo3WxqC+gZmJkBfShL5/npAWYxIYDB8scaQwA0d6Kd0gLOILF42hfofn5w3nyLy99qEAEQiiqis4AeMwdgPvZwBZ/V/vwgNI8JAQyWP9QwAiBbKo12w5JHmn6jzNOh6/lh1d7VYPnzjSMAQr7LKCygR9fRN7Af9NH3/LB6BRgs/0IjCYDQ0Pd1L6CHNyMS/0l5Z+Qzij+qjQkBDJY/1lgCIHQoKZTqNcpX2ygFBOUKuFwDecs/2WgCkLQ6UmVIWchq/dBALoYgzvJXGE8AhDKfGal9AT3DGju1DEJUn+d9JgQwWP5+ZiBAVwfNrByNhgHPjAL/AjbPD0JsmjwbLP84kxCgq4Bmn04tfdS9QuBj2Dw/CCUwIYDB8g80DwG6EL6yPbFV3a/3qq2QWc9m/SKY6N9o+cPMRYAHmLIyNSl7POnP9652ltasav2eIRTrYzYEMFj+OhMS4LHXOMK/MfKNdb26MRH8Cd5NsNLmM1g/TMnNBb3IYUb5A81LAG/Aca1AS2zyZ6iAvFwh6IdrsVlbfkauAEYEWAWuAVQTJ6CZ+vqhMt3udBPKP91SBEBgOCEYV022ggV7yeeGbbRJFpc/xFoEqCBxpzxEYTa987OMK6ja4vLXWosAcC88uNpgeD3N/RMXE5xrcfmXWosAcKXtHKRpBdWtnx9oqLT3trb8BcHWIsAhcCXsEVpWUM37Exeqp7ZWqOnkz0bWIgCm424bzq44hNbzgxBccTvZ4vK3W40AcK3tItzHg4dQen5wkVrrLS5/L6sR4HmVvwO3gmqfH4yHZo/F5Q+1WY0ANtgjh09vCU6k8fyguS0UrADmk384shoBcNW28VU2eidSeH7Qc/C0fSwu/2brEaBKUm3QGqndf/IYM+AHd1G4teWHTVDmJkAm7Ca2y1Q68XyG1D8/mOI+UDlGS8nPsGkQMwLg4mWWyb143cLsWtV7wOdiolaHWlz+PlYkwEnMvUi2HfHS7vv3KA1da0fAU8ZZXP5WZEUCYCwaSgkOVTldH2qI0VKWFZess9ni8ndakwCbMT9nltIXU97QGP0yHTPjDIvLH2RNAhSHcv49uGbP5RaX/zNkTQLgWi9KsZlMfkoUJl/BnmJt+VV6sk1EAN8WzC+ayOKXpOGi1J+1uPxDkFUJgM+ceJfBL8FWt02xuPwrrUsAX1zyVEIk9R9Si1u/fhaXfzmyLgHQd7hftTCC8u/AF4heb3H586xMAH/sz5oeQPVnREkMNgBTyJ+NrEwA/MYmJdL0cPuX4abJP2Jt+Qu2WZsAmBZeEt3atxGx2FnaLC5/OrI4AXrhg+X696Y0x6Ea7BxFNmvLP7vQ6gRAW2Tyrem8RyOx+6dkH2pt+TGZCJYiwFyZ9PHJNOIc6mSq2sdYXP75yPoEkO3gU/OG7uFvyAzfN8Da8kuRPYEAspVUCjL0jT1DrjdES6S15WcYCciVAJnT5H5kvJ6muLl7OKyfYfIPQj2DAOiobO+ZVs0HnRkxsvXK4i0u/4TCnkIApeLN9Zq2aluWfJGqsWnWlr8lEvUYAuBt6o+wvVT1kJEKKbmhQ60tP5cDADcCKPbxKpuqLoTybH+lnPzrFpd/FOpRBEhTbDrRMoo40sq2d7liSY5Ui8ufaOtZBEBHCEorTzrjRzDSyc6ZykMlWVz++kzUwwiAIonaUMZXzZUfJflVkmH6WVz+uFLU4wiAlkpkiEsfAEdbbAvrX0Y2REWAteXvG4F6IAHQOvIazgsrJs4aFhU5JyITpfk2Dl0X3R4ynfzbjFoscpO/Zg7qkQRAQ6n0nlLEIFbnJ07yT+P4/PMlAIpczWH9ytmdn7nIX1GIeiwBUONM5usXw3K1OMg/DqEeTAAUMZnt8hWksl0u1vJLJahnEwCFj2O5fA11rNeLrfwqC9pakQAIrbUzW77dqzisGEP5F+aip4AAaFg+q+NTGpclYyZ/vR96KgiA5ixnsXz5GbzM52zklzpt6CkhAEIvLKK+fDn+HFeNgfzjfRB6egiAfEfSXb7V0XyXjbb8UnkEeqoIgNAzYyku3wj+b0+q8seuQ+hpIwAKv0HLspodZMTK0ZM/oa03egoJgFBEEo3lqxlg1NrRkV8atRihp5MACG37TO/qtYYZuXr65U8YaKj6jSYAQo0Dx+tYvoqqYGOXT6f8e26UGiy/4QRAKLw6TuPDkx6ETADN8kvLq00gvvEEQAiN2a7ez5qTFYDMAi3y17SvMoXspiAAQra8cjU93ydn+CJTQaX8ZUlRZpHcJAToSsGbV15JtPPn1B5FJgSp/NL0jl4mEts8BHhwsfLprG+RWbsJ48LW25B5oSS/NHvcvAhziWwuAnSh98Y+qTE5K9ydrg2T32+fl1uKLABQfqm1vrw9OsrXfOKajwCPURjh37h+zbrcbat8ZyAL4rH8kY2BfoXmFdO8BBAQBBAQBBAQBBAQBBAQBBAQBBAQBBAQBBAQBBAQBBAQBBAQBBAQBBAQBBAQBBAQBBAQBBAQBBAQBBDoGQQI8AvcuH7Nx5GBAdZc2SV//+HnDZ//5/APS0wtZjmnYtsqcChvU3riBLeY6tjl/Z/bWrfKGpq//PZ/b1444XTBvtuXrnz645+XzSjtRIgAQ4ySprjP1CGhMnkVlZ+1rTGz7r9+5839Thmc+PX85yYTGaxxMN8QUXySiGrp5+esXWdK7f9x7baTAK988sU/TSR1OliyhrsYtl7flalIrmyICTKX8m2/XGtykqPpX4fNIvkxaH1nchYiqHOF6vTqSdGZplH/hg8OOtXit+Mvm0L2l8AHjKsIC+olTUhISjHFEh7/zeHUglduvW4C6eGeiOHc5vfvaNVRYqWf4YnWlz/9Rpv6u+D41fjTwHVwYXm9YVf1l3Si+RkjV+/nD5068dtbBhMgF1xWPmVLp5TQqLJWaVilnb/fclLATx8ZSgBfcFFvcJg5OLVMooMiQ2wDv59vctLBPUNtA6DdZQT7eU/VUCy1OnEu93V75x9Oenjva+MIABpf6lnP6vc+3VrLZVv5Vo7Zca3rDEft/5xNPxpW+Qasdbma9d1jvEQbzY0cF+2Xgw/0//A/FP7pcDh/+9kgAnSCy8l0Nf2HMGkYMZjXkr1889Fz63hX0PrUAAAU7ElEQVS8C3T/Q+vfnY5dx40hQDS4miwr8OYlSGwQwsc2ePj2o2ff0b0LuP03Tf/e4XSeNsRxfBJcy0HsJrzBrulS30gOC3Z1l9Pl+Xd5nGX/neznH//npw1GMEDiawzewrTt2mbmy/XBoy3bXYMABWT/G8wHh/MrAwgwHVxJRg3MIpolthjIdrHu//bo5AZpUM1DD5Gj6x8f8CfAdnAh1zKZ62iNxBpMW8ce3vf45Can0O6DHf6h93z/P/nOLe4EGABb11hMlcKj+XIIuxv1hqYnmlPSP8lnYHKc420RmAKvI4Pz1NDxEg8MYtWB5/NXXJ5UZf3LPvTgDvDwz4d/cWbANLiNIfV5osivfwsrJs4aFhU5JyITpfk2Dl0XPTWkmbxf5xA218G3d7k+3LL6P7j/vfNXP99w4P4StOO1nzf88u2b5y7eVdwBHv+L/ZxDRZ6TuEQF1RFqMC7GZwo4QFBYyGyyIUYyMf67varx+/q9m1dhy/7hr87tg3cIT178ypcAveBVpNyIeyiR/uPnFcuOsi05lqgNI4P93+2wjtsBLnwr79Y5fOe29zvA+05wmi8D4K15C9U5Ahcqq61+K0n/xzElMw24DV5ugu98rrr77av7JCfJDw4q3xdvciUA7JkroFncPk0x4rsghDgMyVY1XZEBlCMadpzAaKz7r+eIA33/9sf3MveFh7vAeZ4E8GF+o7ZVKOgrNEld7+c8pQGlLJor9NclJ2DAf7J9Ox13bx1Qd6Dc724x8N4Fjhv/DpDotTScqKCtZwPVnymVDgNnKS7QOdDa1/2PKz+oHvLP225HCu8L4n84EmAcvITptMZ/QV5V0zS10OqdKt/DfSG9KKGd3RryMuE6HRpDun7f2eRqM/S+SnKMEsqDl7CF0ikgRS7dT1qtOZjH7ztZx+JwagbAu06ZHaDpR62Gm/u3XLTvvQt8wnELwCTmJFEZPLxIVk16umitlDUMtNFZnCUnHJgd4IHVRs+D+s99+B3AwfMgOBVeQftQ1gcAe60+y3eE3GGwgI5L80NX/5/Hg+q48zddY9/fj3Modw3+JTcCHMJ16KQwdpVc72/9eb7tMsOvoNFu7COH50m9W0/79Gf2vIlzFzuczn/s4MaAeMwSbtI9coSMB2AajSaKeTInDArvsB92ub+nXXeAe/cpyP/2Xbw7iZ9v+HlcHrZuFYXIWP7otNMbir8N2PX7NC/gT+qX6MTwfdmEdyzwyyKfjPOtsrlgPLj805I9ZSx2Dt2lLt7C3tUdv/5OSf6fD+IiSpwXuRHgGdwS6su8y6xhuT0/hm8RK4PgkoPd4dseCqK4Pd+/jQkUc/AzCNp244y0ujKFO9k//w8YgPUPzU7TNfBNbMznFZryv3YQF1O4j9s5EHtYj9VRpi2FvZXmIYKw5wBd5swN2IBOylaaw7hzAEe/IHYbHaV9TGwGYBztoJ1c3F3A7q9j1Cu449k92kE7X97FxRYf4EUAH+zTGq11yI3YXE5ffjvYd9rHfB0T0evcd5+6/G85MQaB97htAVijWsFSjSOW455KFnXeknDSayfbOYxOHL8wkP8WJpz07mu8CJBSgPXWa3LXoUCcryaZhfiZRbRPAZdxu/IdFvK/fA+OEeJ4CtiOr8un6SqAcwIwKkS6qgHj1PTTOOBpzLlsPxv5L78Ch4ze/TsvAhTig+1aD6kf7ghmrLGsynngTjHPad4AwLB+Zo76tzBRgp9y2wKG4c12e9RXDEjGDHWdmfzLMAUFSzWN9iYml+cdZvKfg/PIdvHzCclUbVut2qxew8UC4HboCKVpzTwI5Po4HSzjNA7chU+d/OqI+cpEWTWoPAnWYcZhWd4T4xvO1jLW29DTz/hefgeOOb/EjQByvhspP0/VUJhAw+0sxQ/eA086R6cRyEUbTPO3fz8IZ50f4MeA7XIxVqkqBirGjOHHVPxqeNJ29SN9fRcMAbnLNlTzR6B+jMPpfJMfAZBszkUieXhAGHMfIIRwuPJwjfqR/gvn+TIO0Xh5H7gDnOBIgEDZYOvVxEZBuBKY/d+Mxa+F5X5e9UD7wSsZc8v8He/KIV1/+4UjA5bKB/GnkzkHC9nElyjCL5/OxrMDTun/kLX8970zxrr+wrVuSK08A2YSbQIY38zHzKWPAefdrXaYq7AfkH26zi3vGjNdFaV5EkAujO/hY0yQMwb7gV5lL3wQLLPa2Mb3QP3fZi//Ye+k8a7/u8+TALYcpV4dGYrR/A2GVSGPA2eep3KUfWA1Fx6pGt+DxqBvuW4BAUVKube7o+UpEAUfAX05CN8mUah/vgFO4efhmT0PeqCucSUAiqhU7tOQJVeL6Qb4nQou1xjQCT1B4yXQbTvez0P+H8AQtBN8CYACCdp41VRnqjwCvIA9u1cPLI+PLx/4whRFyU6ujQnJGTRxKt4sCb/A1N0/r3kbY7jZ5PeDQagHODOgkaSXU0LSG6pexJiTWJWLzSBngJxUabXdW1PDd5hWshkUDgHfg48hn9icneDc3yLeDCBr6FKUAdl2beA2DPejjJrv/qlJ2IzU3mfck4EL0sHIgqH6gwJsd53G3AG68CW4A3zKmwBoG2FLn4LmkuueDvdtxNYYW4f3URFTpnaKd53h2VD+rw28gahqiH0YtALwssa8Ah0DP+ROABSpoqlTXElW1AwlM9AC4L7Rn7jKWyR4LKkCPjmSfPvB4FvwJM5rF/4VYt9t/gRAq2IlVWitSErO2Bo9oM/KUaQ1h3KI04Y2YurMVpFeBJV/75Kv/9+By4c3fPmff54Gs3V/4LTu8EXQAAKgtHiaNXxbvScYhftsiecn5+KSDEO9z6F1qgNRlnx04YRbS08oWXMfr2X/E5zfmJ5C7RQJ4B2XU43/sGfrSnwlEO/sv0Dwc8OwP/Kvnd+4ax8OBuYWl3MAnP+qIQRAeYuoEcDLGBcgU+HHw3sjF6nU4SW0uopBOy55NnGDdwB+KTpgMPJ5YwiAAuNoEcDrcC/rdnQL5LTJnUZCvcwL04jeKo/w8kWHexM33A7wBbc1vwfN/4FBBECZSZQI4GXikb1lFCm/1bGJRoPUeAOuebVyw+wA/No8X4GCEa4hw1CVT4UAnlHFH7tVeD+J0JhEXCBnutuWPwWhaNc7YbOnwGBMQH/4x70DVOmEdwB+pTtvQl0lrhhHANQ4mgYBPBMLXHqHh/Z5+K8WuHw8w+WjLsG+cY/SvV3zzo54jPycioS020rNfp78e3493T6FZNiPjEQGBQLMwR/sn7zwXbyIId2fdG1x/qSqsEtVo70eI6+Fpp8O/rD/wJVZoB3gMrfV/h8kw/eGEgAdqtBNAE+nQffBrqzb8tD98dEuRkCoWsU8fLj6JnKH8B0oChsu2sYtRxPthIwRJ5DB8NHb8g1/BnSx09dDdiOXM2B3g+Aj+PYQg6Hpx4O/6hy+SJ/nH36dfI5DLUleQYYjrIwqAcDzWb/uRKTufzkM8uqG44vYLCC3BX/iUG4ByN0W+y3YYcx4AqAZnXoI4Gmx695RpnX/y25/f2X3v8yFcnxcmh4fI7EwlsE3LmL9O/jl6H4E7UZNyAwIHKWdAJ4Bgcu7/6dtgKpdLMf+kFOvBF/QNpU8O+gmSQfIh3+4lWrpOgN4xyP+A5kD/umhGgngGcATAlzRJsE+YZdRHje2Xx+KrziQrGhZeoI/sG1gvf7GzxtzB+osfA+ZBcXtNVTsANEu/9uyB/lGxcMx0QPxXoGFua7nkUISO0A9bAjepdjY9fEfjnYASI5LyETIC9FAAE9LoFvP2taYBYOTynBHBreX+vz2623xssE+oCUwHm90IWv+ys8S+C/IMHkBmQppgwepNRB7mmuQbLSBWxZhhOzAVUS+gGXwD1lykKS9c9cffr6ADyHD5DlkNoQPG6eqG7SXNzCX/IVRQuo2egCwSeFEzM/40ukkOwfw8wb+n/sm9PC/vIfMiF4diQtJCeAd6def+MNzZbabPghvYXBBLe43vLVL2QjU9Q9+/VxB18QdZFYU1720ZToBAbycdmgOdgdpXUxi3PP0GTzCRtLgwUf44YKyHdDp4Fe7/2fQNfEHMjciq6b2mx8rl07S4P2lNZgrZYJ3SbIOzKjLw70+OozoEuJmetsnfwF48IebJeaqp2viwd82IAsBjssFSg3CusqHOpdvgePRgW7jcCCjfH3y198+f2fnj39c/eXLwwfuu1liuv/GyxDwJthPeomVCABXGQkDPpkLxAXOhAvTJgPpRp9Bas2GJl+hRv4/oe3A+SOn1bvkBDrJ/sNK+kdzJeKLmL+Xn3kkrpiDz2yi6l8B4OQ5auTfAe0ADk4xOb/fhd5Cn1iKAGghuTsGvesW8VkkU0o+oN21B519y2IV24+6XugHoR3gGz5r9zZ4EL1pLQLEqzqHPR/zyAa4p0ShHGlp9GePD38ZuI7jxyiUi/0Q2gE4GYM/BQ+iH1mLAB1k4bvdmLEqN/cQWVHniKCo9Udk/nfQDCQdVXcOA++CfK7iJ8BGVT9biwAD6NTq0gI4O3ysypsYaA7gUqtrg0eRyEfN5K2lf+QHNwvJ5TB1CaEZUv4U6ADNATy6OX8AGiFOW4wALrF9rhjIfmIbbIsarPYqBvkDHRyyc2z7QDPUcasR4AZpgjBtYJKIAlUOcx40CnJIEP4T9kj9YDUCRMJ6iGY+8Ui4ppnaYQ67hOO4qIP9g/gr6JM+gSyHmYSuW8qAi9OotAI8OIu7ZQs+/vN/rOU/7G2CotyomBcwKaXDGE/7Plk0kjJuurtjH6uFdZb+aaBLAddoJGpYCWtiPttZ/e103gDdOWMeymDsEz7g8ApIs+gbwDXC3w3rjNh31moY6rbbffyJQv7JVP5bYL8IjsFIFJFswBawsYBejeLzXpVC2W8BP7uHoT2Z/zUrEsDXLlEwytOwPqjzBD7G3x2eobkP/wtLp/AlB9CnjHqvel7ABP2On8tsxmhM1NACTaNdcQ/MexIYxK5t1HEgKZhngULK2ItRxyhWE87ABKS1hmsa7h24agi7yu079jnAaNR9S6xJADSTOIyXDp7FzDdL43j/AKuGsOsdewXMTTGuPphupGIUMv4Ik+lwVQfHB2gc8EewaojT0cTGLvsRJh69yaobAArH1QEcbWMwWwouabVW64i/H4R3AOdvLOR/fRcmO+UOsizacBHix+jPlbkb19QgTfOYO4GggAccYFC7/eWfMNHor+ywLgHCcYkf9gW0p7IlMiCbex9P1/sg9XO5DZOcwoRs/LAWmyVyivJMI3AT5etpVnzeAdaQczidb1OW/xouL3XX11YmQCE2cTA/iupEHVimzdIz7JKDTngHcO76nKr8n0Kn/weznUeWRhVWMeODKE6zCd/crLeuga86cHUEmw5TlP+/uMx054m/rE0ATA/pLqxeT++wacfO0kvn0BcgzTz42zf0gsTPY+vSMPY9ccAcfEWhhF6U5ojBJ6Qu0zv2D7twtYQdr9BSzr+waamGFghmfg6UWqpoTNBbplxNfoTu4XdiS8c671LJ2P7rnMO7ItSjP7vuW58ASK4N7RkK58whMuPPoiD/907PBKHuV8FX+odfst/pxO0AVj8BPkSQXFm5UQE6R4+UayXRTMNid/muR4qg6zH9ml4z7YbbDs/Bu/9c/KsnEABtlSsb0neorrFT5dg1fjEV+Y/jdwCH8yd9R8Gdu+DBH140XkM9A/3lGNDSpv0xjUiUrUmzlJL856AL+mMO3D2vXf77Fzzjjt22gLd7iP5RoXwn6maNm4BNoXh1Jy35Xz4BmeiecOCixk3A9tU3TjAE9NGfD1CPQW6BrKbsW7Qc1qOmKdSkouey23AXLhv1WHXXtBzWP7/nwJDq4f+7aOs5BEBZCgXE8juLVY64XqmnZVkgRfm/hQvHPVHdrk/VWuw3/OrSFAKKO2j6AfUkHFOqIbcouVDFcI3L7EqUGkNV/jchP52r7pr+p+Y+8PM597hv79jDV75EPQvKxYVXp5I67lPKlYsS1lGW/zRkCXIvILOT1HH/+mmZyqSPGPZnD9M/Cq5XVlpof59g5ZN/arPySHYf2vL/fgl4B3hc4O5eufq78sl/50VsJcInHHBcRT0OxZUk5WQbkvbKRY0HhQ0nqkrLIPfg69tOzAPr+vemW2/JnQYO//iJfH/iRxz4EfVA+E8grCk8LWYAUFKyMDcshLRnUTIL+V874ZBrMdjdf/bezbeAgj5Lvvzq3DdOpf7EDwf5H+qRiChSUVq8b3zJ2jODB+T1ul5VnVE7IrtVxXeT2ch//55ci0HXe4HT6fzpwgdffHX8rbf/+c4fH+28c+3SvieticFeBG4DfoF6KKZQ60Mth4IFrOTfcRE+sLnfCh8xwOnZkd7hBCsOeL1QHN+iHou0Zvb6z69jJ/+SS/jWUu6WAQfUkd6FHvgT4K5fUA9GQA5r/c8eylL+Jb8qXN88OtF7XxcxG8CTr+/bgHo20tnqf/ccxvLfkW8x57oDuP0dLjfhGQHoPHEA9XQMLmCo//hC5vL/2UTSY8grvs+76APwWcevS1DPx7oyVuq3r+Uh/4F7TrI2U1DzP/mvfIGeCqwqYqP/1XV85F/ynsJLAHjMSXrTNf2JnhIEt7cw0P/kxdx+wDv7CDvNQSZD3De+fw09PQiaRF3/U3nKf/+KcqthKJdA5htvoqcKtk0JVNVfcYjzDzje5CRvPO+Usf4+/LP/dfS0wT+Envpbq/jLf+A0sfodSm+Bfd+ipxG5lOyCBQMLDZH/y4symz7ufAj9Tx8sQU8nbFU1FEy/Mf6G/YA/Tsgf7wjOh45dty6jpxfhbXv0qX98+1wj5X/5/EEVuwDwt6Y3v0ZPN2zD4u2a1T/hTKbR8v/t6gWHml3APff7q5eRADrUqck2mFC+1ByB05c/bVL5Cnjwj1dO//mXUP4jy5BP/1CVVt+c6ADzyP/71St3CawCLlRwfHJ8idC7K9JeGKLi1t/mazb5d3z0iRNnC/LaAvaff01o3BtHspJeVVZ+Tfr1AHPK/9pHt26D50E3i8DBm++IZx+P4j5Th2ALS00YnrR5o7nl//qdN/cfxJ35T3xy66vXhY6VETC0qra8ormocuEiSSrb3ZwYEjN169KjlpF/yYY/7pzef/HeiYNNTkfT7YsXzt369Me3dbf+/P/wmao/+swjEAAAAABJRU5ErkJggg==;" parent="1" vertex="1">
                    <mxGeometry x="80" y="140" width="70" height="70" as="geometry"/>
                </mxCell>
                <mxCell id="29" style="edgeStyle=none;html=1;" parent="1" source="4" edge="1">
                    <mxGeometry relative="1" as="geometry">
                        <mxPoint x="324.30500000000006" y="270" as="targetPoint"/>
                    </mxGeometry>
                </mxCell>
                <mxCell id="30" style="edgeStyle=none;html=1;" parent="1" source="4" edge="1">
                    <mxGeometry relative="1" as="geometry">
                        <mxPoint x="480" y="200" as="targetPoint"/>
                    </mxGeometry>
                </mxCell>
                <mxCell id="4" value="" style="shape=image;verticalLabelPosition=bottom;labelBackgroundColor=default;verticalAlign=top;aspect=fixed;imageAspect=0;image=data:image/png,iVBORw0KGgoAAAANSUhEUgAAAOMAAAEACAYAAABBKcHUAAAABGdBTUEAALGPC/xhBQAAACBjSFJNAAB6JgAAgIQAAPoAAACA6AAAdTAAAOpgAAA6mAAAF3CculE8AAAAB3RJTUUH5QQcEDkH6dTVHwAAAAZiS0dEAAAAAAAA+UO7fwAAFzFJREFUeNrt3fmXXVWVB/BUUklVhSnBDBIhjBERhGJK3rt724LY0DhgK6iII05LnGmHhlba/ZVWEBfaSIsuRbEFxabVRgWVpYII2CoqTeOADDJIVECgOd/z6iWVpF7/ULfCoywhQ1XdV1Xf71rnH7j3ft47+55z95kFZ8Shg0+E5e5ZiqJUFziHwtKvYfnEcC4I51xdFUWpBmOrHM1wfiOczw5LO0atOUdXR1GqwTgy/hzGj4flVbC8IPpbs3WVFKUajC0414WnX8F4atTzAbC8ja6UolSDcWQMwHgVnK8J557h7NEVU5RqMI6M++D8UjiPi4LLVE8qSnUYR8ZtYTwbzmehPrAw+ltduoKKUg3GFpxr4fxJGE+D5ZWwPE9XUVGqwTgyCOcV4XxjOFeEU/+SilIRxpGxGs7/DEvHR625QFdUUarDODJuDk//BucR0d/q1ZVVlOowtuBslvXkB2H5AF1dRakOYwvOITgfhPN74XxzOJfrKitKNRg37uKB8x44Lw1Lx0atub2utqJUg3FkrIHz1vD0aVi26G9pKURRKsI4MnXNcN4UxtNheU9deUWpBuPI2ABngvPacL42nE/QHVCUajCOjPVwMix9I4p8WNSa2oCuKBVh3PhPGZ4ehPOTqDX3jkMHu2FZN0URxipHWPojjP8UzsXhVD8eRRgrR+m8PpwvDUsL9amWIozVj6Gw9OUossO5UK0/FGGsGqSne+H8SNQbB8PyDrpbijBWO9aFpZvgPDmce4dT/XgUYax4MJzfhvPVYdw9ak31d1WEseJxbxg/G8bnwfJOqicVYax46grnb2A8K4p8uOpJRRirHwNw/gjOd4ezP5z6qFkRxorH/XBeHpbeEEXeVeuTijBWP+4M57/DeRxWrVErSUUYKx6DcP4yjP8Gy4fBsl7wKMJY8WjA+dNwnhbOvXWnFWGsfvwZzqvC0uui1tT3k4owVv2pFpx3hadL4Hxu9Lf6dOcVYax2rIHzt2HpU7B8sO6+IowVb0Av+/HcEM5Tw7mrngJFGKufuiY4rwnj8WolqQhj9WM9nA+Gp0tQNFytJBVh7IwPmu8L4zmwvCKcc8KpB0QRxopbf9wczneEc+cocnfUmnpQFGGsuEnWVWH5+VFkbUBXhLH6f8mUw9NuelIUYeyMscfI9Yr+1qzob+mrEEUYq8aI+sAc1Af2D0sr1AldGY9ErdkblvYRxs3F6OyD84yw9LUwvhiWd9U/pbJFCPtb3XDuGcaXh6UrhHHLMH6sPJpgNZyfiiI/G5aX6PFSNnlGanlZFHwBnF8oj7gYEsYtx/jI95PGX8F5ejjr4dROHuWv/xs6F4bzMDjPhvH2ctNJC86WMG49xpGR4PwBnO+KgvtGramdPMqoupAHwXkanD8u+zc96hkSxvHD+EgrSedXwnkiisZy1ZOqC8sdXSeF8zI4H/prz44wjj/GkVaSt4Xxc2F8vlpJzti6cHEYXwrjF+G8u31KKoyTh3FkNOG8MZxnlfWklkJmRl24bTifCee5cP4GzrWb8rwI48RiHBkPwfnjsHRK1Bu7Ra2pJlnTsy7sjiI/NSx9AM6fl+8RNvk5EcbJwTgy/hSeroDzxDhow3Z6fKdNXdiFVWuWwvnm8HRl2cd3s58PYZxcjCPfT94dlr4Cy0foUZ7ydeEcWH5BWLoMztWPVxcKY2dhbO/Hc0s4zw7nvnqsp2RteGA4zy9fzgxu7TMhjNVhHOnHQzhvCktvj1pzkR7xKVEbLg1L74Pzd2OtFwrj1MTY3o/nofB0JSy/UK0kO7Y23AbOV4ann5Y/okPj+RwIY2dgbEf5QFi6GJYP0ePfUbXhM8LS5XA+XN6ncb//wthZGNvH6nCeGc4nR8HuqDV1iM/kTkW7wjg3nPuH87yyM/2E3nNh7FyMI+PGML4+ivwkFI250d+SlIlepiga86LIu4bxnXDeNln3Whg7H+PITp7LUeRjot5YAsva7zoxU9G5UW8sg+UTwtPVm7pzRhhnFsaRBlkPwvhpOGvhXBBO7eQZnyWKOeF8ApxHwPilsi6c9PsrjFMIY1sryd+G85/D0gFRH5ivVpJbURcWebuwtCqcZ8F5R5X3VRinIMa2f8prwvgaOFdEf6tbvDa5LpwVhw72wrlfGN8G5/WdcD+FcQpjLFtJNuC8JIr8AljeWdQ2qTbcI4r8CjgvC08DnXIvhXGKY2z7l1wN58fDeXg4dSjs2LXhknAeCecFYemBTruHwjhNMG7sx+P8BZwIS4dGramdPMO14TZhyTFcF/66U58zYZxeGEdGDucV4XwLLO8zU+vJ6G/NheUD4HwvnNeMx2ZuYRTGLd1a9wc4vxwFXwHLy2ZYXbhbGN8C5zc39yNfYRTGiZy63gLneeE8KpwLpnlduCiML4LzwvL7wg1T5V4J4/THuHHqCucvwnlGFDxourWSjFqzLywfBucnNqfvjDAKY5XjgXBeBefJqA/sGv2t2VO8LuxG0XgKnFH2neFUvTfCOPMwjrT+WB3Gy2A8AZa3naJ14aIwnhTOq7e074wwCmMn1ZN3hfOCcD49nN1TpC7sC+NzwnjpVKsLhVEYH2804LwjLJ0ZtebOHVwXzo6i8dRwfq7sO7N2Ot0HYRTG9sHwdCOcb4j+VkdNXePg9QvhPAXOe8az74wwCmOnr08+HJauhOWjOqQ2fEF4urX8B5+2z5kwCuNj9+Nxfjac+4elrsn6VCtqzVnhnB3OlWH8TvlPODTdr7kwCuOmjD+EpdOiaCyH5Qlr/RH9ra7hr+0H9gznJ6fyMoUwCuOEvnkNT9fD8olRG9gJlueO81R0XtQGdoHzrXDeNROfs1mdvnlWGDvwJY/xUlj+u3DuuLXLIeGcG8YlsHxceLoOw8fptWYmRkvfgfOP2IozAoRxRo57wnlOOIso8g6be7JW1JpzwvITwvmsMF6ExzhEdMZgjEPWLYDzJHj64WT0hhTGaTf+N4zvgnF/1Jrzo7/V9bh1YdHYDpZXhvMMOO/UNSwxblxMrTf2giXAecNU+eREGDtmNOH8bhT5RBR5xV9rJQnLPWF5PxjfjuFz7XXtRmNsm7/3wvkMbOaJq8KoUY6H4PxiOJ8XRV4URW7rwtZYEsaXwfkNDJ/Apev1WBg3oizyQhR8CYwXl2+21gujMG7GuB3DZ9l3DT9PjXlh+Rg479W12UyM5dx+DorGHsP1JC+b4fWkMG7++DDKJsvh7Avna3VNthBj21uvHhgPhPM0OP+7/EhVGPXwCONkY2yrJxfAeTicZ8N4ywxbDxJGYewcjG315DIUPBbOz5c1wJAwaghjBRg3tjpw7gXjq2C8fAa8dRVGYexMjG31ZC8s7Qfnu+H8H2HUEMaKMLbVkzvAeSCMH4Ol+4VRQxgrwljWkrOiyEtRz0fB+R/ooANFhFEYZxTGjUdtrVw7F8adhxd907XCKIzCWAHGtlqyC0XugXMvOE+F81ZhFEZdkwowttWSXXD2hOUDYDx/Cn8mI4zCOLUxttWTXXHIuj5Y/lt4+haGGwsNCaMwakwyxlFT2B1gfDWcPys/vRkSRmHUqABj2xR2Dzg/AOfNUwClMArj9MXYNoWtwdIXyk+1BoVRGIWx2pOE+uA8Fp4uL/vxDAmjMApjtWcpLIKlt8L5kw578yqMwjizMLbVk/vCeSacN5b1pDAKozBWWEt2R5GPgvFzcP624u8nhVEYZy7GjW39Vq1ZBOfL4bwEwycQCaMwCmOFtWQ3irwnLL0dzu/B+aAwCqMwVltLzodzJZzvh23cNCCMwiiMFdaTC1HwaBjPLTehrxdGYRTG6urJObC8C4wvhvGLcN4vjMIojNXWk/NgfDKG+7teiYk53VYYhVEYN6Oe3A7O/WF8LyzdPM5TV2EURmHcgnpyR9Szw3kuPP1ZGIVRGKuuJ51LYflIWLpUGIVRGDthfdLSTuF8HbaulaQwCqMwjkMtOSucPTAuD+PpsHSvMAqjMFZbS3bFqmYf6gMHw3khPDWEURiFsbpachZqzVlRH+hDwSNh6XsYPppgSBiFURirncIuhvPNcP78cVp/CKMwCuMkTWGfDOPZ5da6sVAKozAK4yROYXtg+XB4umiMfjzCKIzCWMFyyA6wdAKcV2D4/Mn1wiiMwlhtPbk7nO+C8zo4dxZGYRTG6uvJQ6LIfcIojMLYYRFGYRTGzsE4D863lfWkHiJhHI9BOL8uXZs/bZ0dlveA8x/gvBrOrIdJGLdwrIXzWlh6XzifLF1bjrI3ivx0GM+A8wZ07tEEwtiJw3gTjB8Oy4eF5bkStfVrk12oDyyC87kwngfnHXrQhPFxxp/g/AyMx2BVc8fob3VJ0viuTXaj4PKyv+vX4PyzHjphHDUynJfC+SpYXh615hzJ2Vp4lueG5efA89+MsTbZB+c+ML4FxuvQGUcTCGO1Yx2cP4XxZFh6ajh7pGj83qb2wvkhOH8els6Itt05bfXk9qjnlTB+AJ5umYRWksLYmeMOGP8FRa6F5e2lZ+LWGYcwfFLW1eF8S9SaO4yqJ2fD8iIYD4Px0xV0QRfG6sbDcH4Zxr9DPS+K/tZsyZmcRf/1cN4H5zeiyEdHf6vnL+pJS0vhPLbc77pGGKftGISln0SRToBzWRR6S1rVDpy1cP4+nOfD8/5j1JM9cC4Ny2+CpVvR2cemC+PmjSF4ugfO98LSsqinXkmpfjvcUPnP97uwdGo4l4xRT/ZgZXM3OM+CpySM0+AFjaXzsaq5G5x9EtJ5e1OH4BwM5/+E5RdGbWB+1AZmRX/rkfVJ57yoNw6Epa9N03/J6Y5xCM5ro8grYWme1gs7F+OjRhi/GfVGLeoD8+G5a/T0NZzHwXhD+a86JIwdDXAtLN0S9XRC1FO3REwxjHC2wlOG89wwrghnbzhHT1+fEMZ/gqe7psn65HTDuKa8N2di1Zrl+iecwhgf+ZdMfwznG8O5PGrNuaOWQ7pRNPaD8zw4/1C+FBLG6jdz3wtLF6LIq6LWnCcF0wTjI/+UvB6Wjw7jsuhvzRm1HDIfRX42nF8v9zKuE8ZJH+sxfMzgt+A8PpwL9PRPU4wjv7phvCCKfBg8LxljOWQpbONRdw9OsXpyqmIc3sxh/BEKvieKvIue+pmBsQXnUAyvUX0oLB0azu3GWA7ZG8YPwnk9Jub8SWEcHk04b4Knj8DywdHf0qL9DMO4cfdGWPoFnG8N5/6ja5OylaTD+Sk4b54C309OJYzr4LwTzotgPCZqzW31pM9sjO0tGC6D8RVR5N3HqCe3h/ElcF4M5+oOnrpOBYxD5fT/UhhfF86d9IQL41hjdRjPD+Pfw/PiMerJXWB8E5zf7NClkE7HOAjnVTC+L4q8j55sYdyU6dOv4DwzjEU4549RTz5t+FMtXieMmzx+PbwdkfXRG/sVYXy8keD8QTjfE5b3jlrzUTs/4qANvXAeDuc5cN4mjI/Z8uKzMD4/as3t9DQL49aMe8tp6atQay5u3wUStWZX1BuLYXwRnF8o18iEcWT3jPG/YHxlOJeP3v2kCOPWjFvDeTEsH41RncXC2R3OPWE8Ec7vVLiLpzMwGq+H8V1R5KdFkbWXVBgnrJ783zB+PJxPG6OW7EWRD4Tx3eX5kzMN4+/hPBNGx6rm9tpLKoyT1Y36+nCeErXmolFrk10oGgtg2WD8KJz3zACMhPNCOJ8Ny0ui1lTLC2Gc9HF/2eH8uOhvzR+1NjkHlpcMP6D8z7JHy3TDOAjnD2F8BSztHE7tnhHGyjc3/z48fRWW62OsTc6Dcaew/DJ4+tkEd62bTIy3ouA7UTRWhGV9bS+MHffZz+1hPDuce45RT/agNjBy/uQfpjDGh+D8FIrGvqjnbVQXCmMnf32wBs6bwnnSGK0ku2C5J4rGU2C8AM6BKYRxEJauiSIdCef8qDWFUBinzCdB64a3fuWj4pB182H5UeuTMHaH02G8Zhy/nZwIjOvg6XY4T4KluVFPQiiMU/aw1GY4L4TlA8PYG86uMaawL4Onu8dhv+t4YlwH5wOw9OHob2nnjDItMI40yLonnO8P595RNHrbp3nR35oVhw4ugTPK7WNrKsS4vjxE6KtR5Kfq6VOmHca21h83hOVXw/IuWLl27kgryY3LIUWjH8aLypc8g5OIcQOcD8LSD6NIf68ubMq0x9g2vhJFfg4sPxGWRy+HbAvjC2H8Vrk3dsMEY3wYnn4B56lQ3xllBmJshacGnOeEcdVYzZeiyEthPBnOH23iIT6bi7EB529h6RwUuX905zxFmTEY2+rJ2+B8TzgPjFqzd9RyyEgryTPg/OXjvOTZVIyDZcuLL8D53HDq6DRFGNvfXobzB7D8OjhXRH/r0d9P1przYfk5cH6+PDp93RZg3ADnn2C8DAXfEEVWywtFGB/nnMELw3g8LC/7i6mrcwksvaY8Hvv+Uf14HgtjKvfRngLL+43GrijC+NffbN4J57+G8chwLvwLlJb3gfHdMF7ZNnUdC+MgnL+B82wYPWrN+XqiFGHcsp6iP4MTYXnlGPXkPBSsl/14fl0etT6M0dgTxmNg/ByMx4ZzsZ4kRRi3fvwfnN+H820oGnuO0UpyWzifB8tHoGh0lW9i50SRd4oi764nSBHG8R/3hPOrYXwZLO/4F1PX/ta89k0EiiKME//95C1h/EwYjwid3KsIY+WjAeeN4fxIFI29o9acoydFEcZqx0Nl86s3xyHrdtQ0VRHGzmgWfPLI21RFEcYOaWKsKMIojIowagijIozCqAijhjAqwiiMijBqCKMijMKoCKMwCqMijMKoKMIojIowCqOiCKMwKsIojIoijMKoCKMwKoowCqMijMKoKMIojIowCqOiCKMwKsIojIoijMKoCKOGMCrCKIyKMGoIoyKMwqgIo4YwKsIojIowCqMwKsIojIoijMKoCKMwKoowCqMijMKoKMIojIowCqOiCKMwKsIojIqyhQnLvWH5dGETRqV6jF1R8Iko0nth6T6hE0alSpD11BVF6oVzPzi/BE8DwieMSrX1YxdWrulDPT8TxqvhXA/nkCAKo1Llv2WRF8D4ejhvhHONUAqjUv0UdndY+jCcv5vhKIVR6Zgp7NPh6WI474FznTAqSpX/kv2tXhR8KZzfhfN+ODcIo6JUW08ug/M9cF4HZ5ohU1dhVDq6nnwaLH0UzpvgXCuMilJ9PflceLoAzjuFUVGq/pc8aMM2sPR6OL8D533CqChVgnTODue+ZT15LZwNYVSUal/w9EaRD4PxI+WmgUFhVJSqQPa3ZqM+sBjO58P5aTjvEkZFqRJlrdmNgrvBeSKcX4fzAWFUlGrryflw7gfjO2D8MZxNYVSUauvJHVDkAsYPwdOt5ZchwqgoldWTlpfA+CwYPwvnQ8KoKFXXk5aWwXl8ud91rTAqSrX1ZC+cTwrLb4Ol2zt0r6swKjOqnuzDquYKOD8KTxRGRam2nuyCsy+KxkpY+rowKkq1teSsqA90hXN+OF8M50/KD5qHhFFRqp2+LoqCp8LSrRW2/hBGRSmnr90oGvvDeR483V3Bm1dhVJRRU9j5KHgUnF+D895J3IQujIoyJkrnE+F8A5zfL/e7bhBGRam2nnwKjKfDef0E9+MRRkXZhHqyB5b/Bp4+AeevJmjqKoyKshn15A6wdCycl8B59zhPXYVRUbagnty1rCe/DefDwqgo1deTB6Dg++H88TgshQijomwVyIM29MF5xPB+V/5GGBWl2lqyK+qNxbB0HJwXwblaGBWl2lqyO5x7wfkaGL8NJ4VRUaqtJfuiyAfB+I/l+uSgMCpKVSD7W7NRNBbC+HQYz4LzDmFUlGrryTkouBTO58F58WO0khRGRZmkerKnbP3xSli6rvxUSxgVpcp6ErWBveA8BZ5ub9vFI4yKUkE92QXLfVE09oWl88oDfIRRUSqsJ7tgqSecz4x6emHUU5euyqbn/wGM2Xs9JvnRxwAAACV0RVh0ZGF0ZTpjcmVhdGUAMjAyMS0wNC0yOFQxNjo1NzowNyswMDowMD41t0YAAAAldEVYdGRhdGU6bW9kaWZ5ADIwMjEtMDQtMjhUMTY6NTc6MDcrMDA6MDBPaA/6AAAAAElFTkSuQmCC;" parent="1" vertex="1">
                    <mxGeometry x="284.4" y="130" width="79.81" height="90" as="geometry"/>
                </mxCell>
                <mxCell id="23" style="edgeStyle=none;html=1;" parent="1" source="5" edge="1">
                    <mxGeometry relative="1" as="geometry">
                        <mxPoint x="370" y="320" as="targetPoint"/>
                    </mxGeometry>
                </mxCell>
                <mxCell id="5" value="" style="shape=image;verticalLabelPosition=bottom;labelBackgroundColor=default;verticalAlign=top;aspect=fixed;imageAspect=0;image=data:image/png,iVBORw0KGgoAAAANSUhEUgAAAgAAAAIACAMAAADDpiTIAAADAFBMVEX///8+UNU8SM1GYuU8Ss86RstCWNtCWt1EXuFEXN86RMlAVNc+TtM4QsdGZOdAUtdAVtk4QMVIZulAVNk2PME+UNNCVts2Or9IaOtAUtVKau08TNFGYONEYONKbO80OL0+TtFCWN04PsM+TNE0Nrs2PsM8TM9McvNMcPFKbu80NLsyMrk0Nr0yMLdCWt9McPNKbO1OdvdIautKbvEyNLk2OsEwLrU0OL82PMNMcvU8Ss1EXOE+UtU4PsVOePkwLLNOdPUyMrdQevs6SM1IaOlOdPc6Qsc4QMdIZudMbvEyMLVMdPVQfP06SMtEXuNOdvlIZOdGZOVIau0wKrEwLrM2OL9CVtkuKK8uKrFCXN86QslQePs6RskwLLFQePnz8/1Qev39/f9Sfv8wMLX5+v/7+/+Llubw8vyvtOmvseh8ht5Qff+yt+zz9f2xtekuKq+Ol+Tn6vuPmufb4Pn19v7o7PzS2Pj3+P7P1vjY3vq+xPHt8PyKlOR6gdrg4/mqtvPK0faYpe1tdtpgZtHGz/jY2/fj5vrN0vZCUNKNmumvs+fk6Pu4vu98g9yxteulretrg+xbdOh9ku7s7vyRm+ZibdfCx/GisfO2wfVLZOOXn+aIkOE8R8pgaNOZqfJJXt3JzfJ6jutJWdVIU9Cfqey/yPbx9P1yh+tMYd1+iOCfpedVbeauuvRieurFyvJ3g+BLXNhUX9OSo/Hf5Ptlcdq6xPRWat9VcOlYZdlyfNyzu+5FV9ZIYeJhdeSqsOp0jO77/f9da9qiru+El++NnetiatRife2Di+BMV9DQ0/RDU9NpeuPV2ff9//+Pn+5kct56fthtfeIuJq1ugubCyvV8i+VDTc1Ra+fd4PdATtGyvPNaZdSos+9Lauqkqed0hONSZNxdcOFNaOZNZuNEW91keOWEk+mRneo+TM6ut+8/SsyBj+dNa+qdrfOHmO0+SctOXNOJnPFDWdtUcu1GYOFadu1HXt5ObOtEXd9Obu1KaOtATtNKYN1AUNFQbu1CVtchoep9AAAACXBIWXMAAAsTAAALEwEAmpwYAAAgAElEQVR42u2de1AVV7ro+5hECUSPWHAJMzjhQOLJo2bqTio1f3hSd+K9VBeTc+ZWuMmQSlVnrH0PxMQbE4kPEOIDoxiPJEHwDVEU3/h+a/BtjC90Miq+UCGiQY2CBI0zFcdb+93fWqu7V3ev1Xtt6HZeNeeMO2b/+PW3vvU9pGTfE6fx9FU/2aGnZ/jpUD29VE9L+Hnr8fBzX/XEkJ/+4SdF9TxCfrLg08f/vPZaJvL08z8Z6POk73kx+PwCPv+d8PzqV796Dn2efe4Pf/jDH54lP/+q8fy793kFe35Lfv4H8vzZ//xPjec/iM//+7/oIyUTCMgO/XKegE4bBLyWlWmGgL9nXMy4aIKA5wK/AAF/eO7Z5571/QdKAl4J/aIl4M++X6YI+A9qAoIAaDgg23UAlQOeteKAV0w54M98HBACgOyAONcBVA54zooD/tWUA37LxwFhAJLJBnAdQOOAZ6044BVTDvgzHweoACA5IM51AJUDnrPigH815YDf8nGAGoBksgFcBxg74FkrDnjFnANMR4JUDgAA4A6Icx1A5YDnrDjA/GmQw1kAApBMNoDrAC4OeMW8A9jHAQgAqAPiXAfwc4D5jBCHswAKQHKcRkrIdQB7B5jNCPE4C2AAiJMV7vIOULkgcmcBHADXAY47IJJnAQIArgMcdsArkTwLkABwHeCwAyJ5FpBeTnYdEGEHvBLJs4D08suuAyLtALP5AJZnAenll10HRNgBZnOCTM8C0j+97DogGnOCrM4CUuI/uQ6Iwpwgs7OAlJjoOiAac4KszgJSYrLrgCjMCTI7C0iJia4DojMnyOYs4DWA64BozAkyOgv4DOA6IFpzgvbPAn4DuA6Izpwgg7NAwACuA6IzJ2j/LBA0gOuAaMwJMjgLhAzgOiA6c4J2zwJhA7gOiMacoO2zgMoArgOiNSdo5yygNoDrgOjMCdo6CwADuA6I1jpB63GAFwDXAdFeJ2jjLIAYwHVAdOYErZ8F/AC4DojunKCNswBmANcB0ZoTtHYWCALgOiDac4IWzwIEA7gO6E69w2EAXAd0y95hogFcB3Sf3mHpiUTXAd25d1h64gnXAd25d1h64gnXAd25d1hKfcJ1QHfuHZZSU10HdOfeYSk11XVAd+4d9gLgOqAb9w77AHAd0H17h/0AuA7otr3DAQBcB3TX3uEgAK4DumnvcAgA1wHds3c4DIDrgG7ZO6wCwHVAd+wdVgPgOqAb9g4DAFwHdL/eYQiA64Bu1zuMAOA6oLv1DqMAuA7oZr3DGACuA7pX7zAOgOuAbtU7TADAdUB36h0mAeA6oBv1DhMBcB3QfXqHpfRU1wHduXdYSk93HdCde4el9HTXAd25d9gLgOuAbtw77APAdUD37R32A+A6oNv2DgcAcB3QXXuHpQHprgO6c++wNGCA64Du3DssDUh1HdCde4elAQNcB3Tn3mFpwIDUAd3VAd+dOTN99fSysrKdq6fX1n7XLXuHvQZI7T4OuLJ64YHi2eeXTBkzaqSEP0unjZmy5Pzs+XfKV5/pJr3DvldA148D5h69Vrzq1IghEv2zdMSk8/P3l53J7Nq9w14A0rtyHFC38+b8zSP21EtWn6KC8xuWnemyvcN+A3TNOKDu5IbNG3MlFo8nb9Lshf/oir3DAQC6WhzQWVu+b0q+xPjJWzJ/98Uu1jscBKArxQG1tzdXSLye/IJbZRldqHc4CEAXiQPuX1nWOELi/Sw9tWF1V+kdDhugC8QBO4un5EgOPXlzyn/oCr3DKgCiOw6IaS4+5pEce+qleilnwp2tUd87rAYgiuOAq/tGSJF4ciZsuBvdvcNqAKI1DmjeN02K1FMv5RTc+SmKe4elRxEFRJsDfr42ySNF+Bm5pDxqe4elR60TEHkHtJw8P8zml7dn2rGCEUV2PVA/bfbd6Owdlh5FCIiiOGBu8TibX1zR+GVXfHeD029Pspsy9BTsvxiFOUEvAI9GYxzwVvN1Mz/8pK+3ZH+d6na4tpGQOfTkmtFA3vytUdc77AMgCuOAy9Rv/tySJfvKdy7B/vthx+uQ+oCtm3EA9h+8PXvSNOooI3/Owb9HV07QD0CUxQH3plK6P29J8cm53uxwMfZ/mjCdUCFSjgUDI1d7S0O+WzZ/yTTaN0H5xWiqE5RaCQSIHQcsOE4Ts+VOblxYG7weWoaa3DO7k1gjNH0M+vtsPBMsENq6cPZoqkTjiP2/iJ6coNSKEyB0HLCg2PiixzNi/MIr92OCl0OdtSgxudc0qsT6f4e9BpaEa8Qys37YTQXBxjsXoyUnKLW2tj4aPXHAz8WGP/3Dltze8ha4Ha47hr6pl+lUip5Hf8P5SJ3gD+XnRxkiMO3OxejICXoBaI2WOGBBsVFNV0njsnvo7fD9fej3f7KzU5uArPFounc1Xit88NboPUbxx52L0ZAT9AEQHXFAy808g7/l10+S6gOuIs7OXWhQLT4H+X3HZGK1wpl9Xtt6xyh1MK38F+LnBKWBZALEiwNOTtb/9huPkitEOpFrovprRtXicydpvgTU/QKZmVs3FOgfEAvKhM8JSgMHtrZGQRzQPEv3Um7JshatGqF9SD3ovhTjfgGEmdzVmVr9Als3bNQNR08dfFLsnKA0kA0BfB3QdF3Htp7RU+dq1whdRf6XpzopeoamL9V8CeA9Q2Vz9FKS+eP/IXRO0AvAQMHjgI6pOrHfyFU79arEYpATQMkVqp6hhYjaN+j2DP1w55gOAhX7XxQ4J+gDQOw4oHmKTpxV3NTSS69K7DZy93eUsm+wEakC3KrfN9ivbI5ODfKEg+LmBP0ACBwHLNinaX9P9eXHW/TrBOciWaPi/pR9g3ORlOB5w77Brbe0swP5t34SNScYAEDUOKDjsmYKPrfw6m9+Y1QpiqQACjqpe4dXw5/oPasNe4f7fXdHOyDcuFvQnGAQADHjgOWFmj9TO5p79WoxqhRtht9i/s5/o+8dng8/cEoWRe9wRvloTV3N+VHInGAIAAHjgI7LWmn/nOtbaGqF34KXwPXFJuYH1GUhL4FymvkBGZm7J2ghMGq3iDnBMADCxQELrmvJf8cWulrhkzCWH9Npan5AGQw+NmbRzQ/I2K1lAc+qv4mXE1QBIFgccLRE42/jrGbKavHfwB9Gz0lTM0RSUlbBD95PPUNEE4FpZcLlBNUAiBQHdOzTSLJW76TuFzgKc4BzzM4QOTMEVQD1DJFyjXBwz+yfBMsJSj2MCXA+DsjeopH4H3HZRL8ATOkPqzU9R+g4/PDb1HOEMjIvbiAnr+rHHBQrJyj16DFwoHBxwOml5CLeqR0mOkaOQocstjBHaCOmAPo5QltXEStH6peW/0KknKDUgz0Bdh3Q0UjUv6dxuZmOkRYogIq55meJpZTjCqCeJZbR7+AksgTGXxQoJ+gFoIdYcUATOYQ6drXDVM8QIoADlmaJHcMVYGaWWDk5OTj67ovC5AR9AAgVB1wmFn0NntqRba5rDOaQSu5Zmie4DP5VLDQ7T/Cn8cREdtFuYXKCfgAEigOKifovbDLbNbYFlmxNjbE2T7AASQeanilaNoY0n6r+lig5wQAAosQBHaXEH5jT5vsG4XXetHsWZ4pCBXhWm58pmrGBeE+4+ScxcoJBAMSIA5oKNH78TfcN/jwEjwAsOQAGJHOszBU+OJocCAiREwwBIEAc8LCZlPwbctpK5+gBqJA6y3OFF8LrpForc4UvziecCOtHHRQhJxgGIPJxwOXBpGKKpg4rvcOwd2yfjbnCMBdwy9ps8YNjSMVM5QLkBFUARDoO+IgQMOcWZ1vpHX7rMrw83GJjtjhMB47KsjRbPOOH8YTgds+GyOcE1QBENg5YTOrzOGGxe/wUfHPbmS1+BXppYZY1B2SUk3LD4/9PpHOCAIBIxgGku9/SBdmWusd7bYEyOWpnv0Ad7BQ6ZXm/wF1ChFs/52KEc4IQgIjFAQ8Jx7/cj3panR8AtV1gb7/ATnCQz63NsrxjZDbhNbDkb5HNCSIARCgO+GoNoZr6W+sTJM6C3+mmzR0jMKU/38aOkXLCJdeEv0U0J4gCEJE4YB2h8LugyfoEiaOwaeyezR0j8CS40c6eodWE08DoHyOZE8QAiEAcsJxw+X/dmxa2SgCMJ4pt7xmC6YmTdvYM/eMUocjhbgRzgjgAjscB684SXv/exKDVGSL3QLydu8X2nqENxGygNQe8eAsPBDb+eDFiOUHpj/wJ0HcA4ed/2GX/129xjtBN+I61v2usFhwqhmXa2zW2H08LjvgxYjlB6Y8WCWAVB6zD2+ryTvivBqzOEYKWvcZg19gkwqWw9X2Dy4osEsAjJyj90RoBrOIAwvc/uSn49VubI7Qc3L4N+5nBvsFr8CLP5r7BJw/i7U5j/hGhnKAXgD9GLg5YhCdHJqz75ziVAcw7AH5b51nsG/wONIAP+87uztEf8fvB0f+ITE7QB0DE4oCvDuN3v1/5bwZDBjDtAPgGOMlk3+AcpEnI7s7Rn/BywYK/RSQnKD1mgwDbcQA+9uM6qUrIFAHwDTCNzc5RWBeyxP7e4Yv4VNJJFyORE5Qes06A7TgAz/8vBl+/pVli8A2wmM3O0TpQ3Zn/nf29wy/Owf7w5yNRJyg99thjf4xQHLAS+1tQnGx/niB4A3iaGe0dhhVm+1MY7B4fj/3xb0WgTtALwGORiQMqsYzIPAbzBOEbYDKrvcOrdc8B1hwwG7sbvON8naAPgIjEAWux+b3fJ8fZnycIs0CLWe0erwODw5Zm6RNA6wC0YDh3t+N1gn4AnIoDVAo4gW7v9nzEYp7gv8B75Z3Mdo/DH9dlj7BwAP4WGFbmdJ1gAADH44CmCoL/WcwUrVD/VJWw2T3ev3//zpPgL7bxkUeYOGAV6oBRdx2OA4IAOEaA/+f/q2N4/M9ipmhPeBPcaHf3uIqACs07YTsOWIUlhH5w9iwQAsDZOGAHdv5nNFN0MfiROtnRi5kD4LFteh0jB2D5gFW/cNQBYQCcjANmYNV/rGaKArMUtdjZPo84AJaFbHiElQPQnGD9Bkf7BqWqxx5z+i2Q+C06an0Wq7nCTeB3LrW6fZ7kgCvgfDkhxZgAOgf8hDYP5pQ56QCpynkCtqEF0qO/YjVXGKQB60/3sk9AyAEx4Ec150oKKwds3YgHgs45QKpiRAB9HPAVWgFSsu4Iq7nC4I06ckFHL4YOgN1my+qYOeBuBR4IOuYALwBVzsYBaABYtJfdXGHwt3KNye3zBg6oBZnLRtWGCbsOKMtHZ4g4N0fIB4Cjb4EV6MzPE+xmizeD3/n7FjYEBB0AAswxKVQE0DlgP5IV9+x2bI6QHwAHCUADgPpvktnNFv8epgGpt8/TOQAMHt5zJoWhA26hVvzRKQcEAHAsDjiC1sIsZjlbHIyFqejVwYoAvwNgUcDCFJYOQC+HJzk1UzQIgFNxwBfIH3RNMsvZ4qDacjP1RElKB8wFr+rxKSkMHfAD2jGywaGZoiEAnHkLbEeuAMetY7lf4AT4vd/pyZAAnwNAAeOIlBSWDrhbhGcDnHBAGAAHCEhsRw48g/cmstwvAEOALfQzRekc0Ane1J7aFKYO2I0Eghv/5ogDVAA4EAcg4/89K7zfPzsHgBLDko4OpgTExMTAG8HyOrYOQAPB8b9wIg5QA8A9DkBPgLu8Xz+7/QI9wQHjek/WBKTUkYIAVg7AbgXqy5zYLwAA4PwWaEdec8e+SgwbgIEDYBbgZk/mBMSA+fOjU0wQQOOArchc0Y0/ObBjRFIcIyARGQIxeBtSJGTXAe+Ac3pTT+YEdII1MjlzU9g64El0y/1sB/YMSbEcCCDHAWuRAGAo6x0jYO/3CDNzhWkJOIn0iTN2QAZSJppbxn/XmBTLngByHLAIEdz7zHeMjIAhAAcCOkGLWDFp87QtB7w4GlkucJG7A6TY2Fhn3gLIC6BkEes9QwtyYRaABwEgCFjS3xwBFA5YjZTKzue+c9QLgBME/HI78gI4wXrPUPa34AOae/IgAFwHjOrfn7UDMu4gN2V3ee8c9QHgQBzwKbKQe+WnzPcMFYMBsx09eRAA68Kmx7B3AHIWXMJ797gfAP5xAFIFOPkI+11jYNJYtcnp8nQE3DsD0nXX+rN3wN2RyMUw593jAQB4vwXa4bjN3E0cdo2BNPPibC4ExIDRDo39TRNg7ABkU9WIF/k6IAgAXwLOIVVAiznsGtsCPuFyNh8CwC7SCf37s3fAk8jMjA0ZXB0QAoBrHLAJuQM8wmHX2GlgzuXZfAgAgUZR//4cHICcBIb8mMHTAWEAOMYB52AfUP1EHrvGwLDpcdnZfAiAqaDa/uwdkNEPuRValcHTASoA+L0FKuGf6PPERA77BsFVYGlPTgTMBcmGhXU8HHAR1onnHrzI0QFqADgR0HokD9a7LeKybxCEZ1PN7xihJAAcZ/dpb5+3EwcgpQFLMi7ycwAAgFMcMA8KoJLLvsF14G/a0b68CAAXDqf6WyPAyAFw7b2n7MUMbg6AAHCJAxbBOuDJ57jsGwR5wNx1VvYMUREA2kPy+vfn4gAkGTApg58DEAB4OOASxHkTn32DH4EYsG9PXgRcBX+YM518HADjQM+yJzN4OQAFgD0B7ZDmHXx2jmaDTEOhhS0zlATUgShwWX8+DvgBXJ3WF2T8nZcDMACYE7ALzkBp57RzFDQcLu7LjYD7IAo83mmZAH0HIJdCuzMyODkAB4AxAdtglcs8TjtHH6rL9Tyn+/IjAARo53W3z9twQAbsExidwcsBBADYEgCTwBVHHvDZOQoTwVv68iMAJJwKYmwQoOuA3VAB5U9ycgAJAJYErIcC+JjT3uGHYFHg4Oy+/AgAc+gqdHeP23EArBGun5LByQFEABgSsAuMvxj3Kae9w3Eg11BgbdcYHQFwidiZGF4OKIPZoLK/Z3BxABkAZgQcgkeAtbz2DvcFb5rrfXkSAJoDTsZwc8AktDKEiwM0AGBFwEokB9TKa+8wmDs/tS9PAsAx4ID+7nE7DoAK2HP3YgYPB0gyRwJaj8BWkLX8do+DD/q2L08CwBia8fq7x+04AKkOW5XBxQGSzJMAWAg2md/u8eUgcbauL08CwCjCCQa7x+04ACog/8eMDA4OkGR+BLSey0MEwGnvcFwyGBA6Kq4vTwJAYWiewe5xWw6ACriVwcMBXgC4EbACiQD47B32Ph+rP+hwHFcCQAtibl0MPwfAkSQVFzM4OEDqzZEAuBFoKJ+9w74HDB7Zkc2VgBhwstkZw88B/UA6sH5/BgcHSL35EfAlLARM57J32A8AGDxQbHnnKB0B4Biw0GD3uC0H7Ac5hwkZGewdIPXmRsCAz2ESkMve4QAB4CrodJzVnaN0BIClNMeNdo/bcgAoc9qzOoO9A7wAcCKgBnRSDjnSymHvcJAAUHNyItvqzlE6AhqxcyA3B8CtxbMz2DvABwAfAobDXjAee4eDBKyDp8C4OJ4OiAGjiE4Z7h6344CflmqEgcwc4AeACwFgKXhOO4e9wyECwHiwCmv7BukJAMH5CMPd47YcABdKlGcwd0AAAA4ETISFQBz2Doeel0FTyGhr+wbpCdgJJlIb7h635YCDHq0wkJEDggCwJwDOA9jEfu+w6gFSLrW2b5CegDrwpWyJ4eoAMDLCczeDtQNCALAm4FO4v4/93mH106i1fZQPAXnIfSBHB/QBtWH18/uxdkAYAMYEfAPPgK3M9w6rH9AZftPqzlFqAkD75jXD3eO2HHARHHDG9OvH2AEqANgSUA1elDXM9w6DB8SbRy3uHKUnAEx2LjbePW7LAeNhKqAfYweoAWBJQDsoBfuc+d5h+ICMw7qHcZwdsE87EcDeAQfhjVA/xg4AALAjAEkCzGS9dxgSANIA+db3DlMS0HIblOoY7x635YAMkHke0a8fWwdAANgRAHKz41jvHUYI2AvGj9naPU5FAOgRH02xe9yWA8B0SulgBlsHIACwIuACbAZgsW9Q2wGwL3CKnd3jdARsIVQEcHNAv+ng1Dm7H1sHoAAwIgDUAnrWs907jDkAVGoX2tk9TkfAfXWAkxsTw9kB4NBRkoESYM8BGABMCBgI3gBTGO0b1HQAqAlvtLF7nJYAkAiovc/ZAbBN7GA/pg7AAWBBwHo4EIDt3mHcASAP9L2d3eOUBAC+jxrvHbbngK3gRDW/Xz+WDiAAwIAAcAbIqWG2d1jDAYVoHoizA2BFwEKK3eP2HDAF9Ahl9mPpACmeBwEgC7SG6d5hkgNA6dm3yXHcHQDGhByn2T1uywGgKiDnp0yWDpDi2RPQVpOLvQGMCDjX3r5t5qbt2zdt2tv+qVkHlKg/bhv9jpGOpuajR49evvzt0atbfjZDAMgE7aPZPa4i4Mr01SfLli1cVnZydS2dA+A5oDyTpQOkeA4EgGrg3EM6vcPp27ZXriw9XJIDR+OdXbNr+MR11A4AreFfxRnOFF3+7TuNmw+XwLa1nGmHNxefbqYiANw+nqfZPd6/f+f0hfNXnRpRpPqj1ktS0ZhT44+XfZel7wBQHDonM5OhA6R4mTkBbaXoGYBIwIUVX0wZLOk800pn7KVxAEgEDonTnSXWdHpfdZHeh46csu/yzwYEvAXOnUsMd452Xj1wfky+zod6Ns45Pl3HAWBizKjMTBYOCCjAawDWBLSC1PzwKgIB7ZWzhkg0T0XpikVGDtirrp09qz1HaN3N6+OoPnRPQXGzLgEn1U4u0N8zNP34qaVSPcWnTju/cK6GA+B9QFk/hg7wAsDYAVWwFqgd6xeYufKYR6J/8tes0J0tngwKwqrJM0Symz6akGviQ6Vxi5s1CegFekPGaU+X77y6b6OZD126eXcWwQGZmWBk0PxMhg7wG4AtASANOPkGrBW+sHIa1c8DDAre3Zuo7QCwjGhHHIGAddcmeMx+puSZcu2eBgGd6t+tSGuucO3iEtMfKo2aPZ3gANCQOilTgwArDvADwNQBCjiVXVLXCbYOnWL+iwh8G+odU8ABMBP8BdY5mr33+khrHypVLG4iE6COXXKJ8wT/beGkXGsfmrukDHVAP3D/OCQzk50DggZgSEADCOknqqrEZuRJNp6zK46QHQAywfPiEAK+neCx8aH5jVtIBACxX7mHEVB3YISdP+qUZa9BB2z1wGwwOwcEAWDoABACjGwI1gjVzBsi2XzOriU6AIxtegd0jPzz5cN2PzS/cTlOALif2YnOEOk8MMrup04ogw4APG3IZOeAsAGYEQBCgFmB3GDrxxUSg2fKJoIC3gd9YaBfYAqLDx3yfQtKAHgnn0QmSFybxuBDPZunqx0ACsOW9NMmwKwDwgCwckAV+Jn72P/9TzwrsXlydy3CHFAIM8GhZ/kOD6NPHXEUEvD4dXD7ALrHrxYw+tCRG14LO6AclCDgm6ctO0BtADYENOxR/7VeaOvRo8ehUlbfhPdPvxY1APgxPxGuEhjC7kM9138GBIBc8AFV3+Dc8bnsPnXM6sygA2AQcFePAHMOUAPAxgFgQWDRwB49eowtklg+nvcXQQeo7VK/LfD1N61h+qFSybdqAsDmmOJw19jJEqYfmjPfL4HMrCwQdt7JZOYAaAAWBIAQoLCtR8P7NF9qRcnkydVrCgurj50tyTf8MmAkACKuRf7vfy0NdDmjRkyZsmbWrOqCySWGIUru4pYwAVPBbVCoY2TfHpo/6ogRBQWnTk0qGLMxz1AXBVv9BsgEpeirMjNZOQACwMABCvjJG97jgsHbf1zpysrtFx4M8DePt6b6xotOrLy0Ru+aIP9jdSCgPuXn+L//L/TfOXnVjR9dbl4QvhvsmZ297urN4lK9VHF9dVOIgGvq//66v0okZot+yJk/Zk5x+clasGWmbvrCDatG6xFfscxPACgLGp2ZycoBqAHsEwB+lGZu1/kei2bN217zqPduALkdTk1PTU8/t2lGofZb/P1wTiAZpOV8ZeLVOj/1UxafbvLdD/R9iNcH9GzSuy/I29kSIOC0+jPntPgAOFqhneGcNuf2zk7N+oC5y25NydE0zwYfAKtByjgzk5UDUADsOqCqHQztHa75k1jyxUTNKrFQhcina0u1knhT1gUVsAgIJTk5eZvmV1hy/fK6wPWQTo1Q82Kt32DYab8D3gJTyWb5vv+FWn+luZMOTDeqEcpKOXNngtb7Y5UvFAQ/DKszWTkAN4BNAsaCP7vWFzHva9oaoSMrJmi8O7YFDNAE5JicvFfjdV7ReCJ0NxhnUCN0tJH8dXqm+gkAHeJTvN//92TUcyccuEJVI5RS90jtBo2bo0nfZWVlTUGKQhg5AAfApgMuGUdBhRNbBz5qokpsUyERpLy9fgBAW8ia5BPE94an+vJDcEGsXyeY3XN5MZEjT7EPANAZMPnxxx8vJn7/SxtrzdQJ1j1SPpocCp7JygKpoNmZmYwcQDKALQKqjTKru9ab3z2+7XMSAkX+wwC4DS4lfv85O5rjkK/fuE5wwVTi1cU+bxywAPjs8ccXk17/047Pjbl/z2Sd4LJJxIzA1ixwHzTptUxGDiABYMsBg/XPUp+3W9k9npq6lwTWkBOJiYkPQF8QqdzHs6MJrQ/IpqkV/m8LFpPi80YvAeqYrajlOAnP451WaoVTHllIyiWM2AqiwLzXXmPkALIBrBOwXvf7r75gafe47xlaokHAWqN7lRPEChGqWuEthQS1X2/p1UvtmfybHsIV0pXHrdYKz50/jEDAdFD5eCaTkQOktHimDhir800UDbW6fd73HCEc7oecSEz+Rv9K/zRpunw2db/AZUIocL6lF6ARP8KNbr5vslZYTUDdVkLguxFcMZX1YeQAKS2NqQNmaH8VhYduWNs9HuoX2F5EImC43vc/aznd7nFtAppOkQiYrPuiK74Xc5+uVlirX2B+jr7W7vShIsDYAVJaGlMHaOZ9c4b3aLO2ezxMQGJ7NYGAeToXapW0u8f1Oka+xyOBUr2kX3Qe010AACAASURBVMlVze3z1D1DnWX6twqz+/Rh4wAvACwdcEzLxDPbqizuHgc9Qyux18CQWdr6P0G9e1yXgKv4a0AniV+grhCy7ICU7ybpAbC5Tx82DvABwM4Bikby9uz6Nuvb59UEPFFJf916dhv97nFdArK3mCjwmtOps3vcTN9g1nmdTxndpw8bB/gBYOaAQ+S/3GM11nePow5YS1vhOWHRP1PvHjdyQBN1lce+Ft3t86b6Bm9pX2lVZPZh44AAAIwcEDuR+Fd7uMb67nHMAb/cRFdeMPorE7vHDQlYUEj3/TcabJ835YC6O5rXy54f+rBxQBAARg6oJKq4RrG+e5wQB+ylKS8csc7M7nFjB3Tso/n+zxttnzfngJTbmgSUZfVh4oAQAEwcIO8i5ewP2do+TyLAuNhr2jozu8ep5gdMNa5rK7z/OD0BVPMDtAjw7NfbPm/CAWEAmDiAIMr8Lx+rskUAIQ7YZFQ0lLMpOdnM7nGq+QE3jeLPccsNt8+bjgO0CNiQaYYAbQeoALDvAEUmnAK/sbd9njxDZIXBT+OMZPqts/QOOK1PwMidb7WYIoDKAfvJBIzX3T5P7wA1AAwcgL+dS5XHbBJAfAtc0u0vnJXsLRVJZO6Aa7rcXaPZPm/eAWQC5mRlMXEAAMC2A9qwv0F5Nfa2z2sR8OkxnW9iWLBaiLkDvtf51DVU2+ctOOA4CbtJ+tvnqR0AAbDrgHbsr3Os8hgLAvA4YJtOOmBeoF6cgwO0zwL5zS0WCKDLB5AqBPzl4rYdgABgywFK1Uzs/tfm9nmdOKBSOxf/VbhkmLUDOiZofepiut3jlhywCv+4UQbb52kdID2Txs4BymfoYeVCFRsCSG8BzdqjtYkhA7B3QJNGh3PevRZrBFA5AL+RzA/0C9h1gPTMM+wcoKA3s6U2t8/rErBN48b0bDLoHmTtgKPkjz1Ou33ekgO+w2sFz2QxcYD0zDPsHKAgFaGeT6oYEoDFARr1px+Hvv1ELg4oJnYQL+9lmQAaB9Ri+e/VWUwc4AWAlQNkuRSPAJgRgMcBXxFtPHgROkOAsQOIxSD7qLfPW3TAMiQHUb/MaPs8nQN8ALBygII0ZI6NZUkA/hYgFoPtCn//iXwccBQ/luVu+Rc7BNA4YDbykeFxUrYc4AeAjQNkGY7jKGqzt33ekIBzpL7DTYQpIowdsBm/eqbfPm/VAVeQrpFyw+3zVA4IAMDGATL8Qt61uX3eOA5YQYjGLeweN+uAZiwlPLWXTQIoHLAQfuRt1fdvwwFBAFg4QJHhS3miwpoALA7AX8c7LOweN+0A9M4rt6lXL+4O6A9PAseNt8/TOCAEABMHgOzcyLZYhb0D4FsAV8BQC7vHTTvgKNqpamb7vGUHQAUU98li4QAp4Rl2DlBgbtze9nkqAs6htbO5i8zvHrfgAKR9eF8HAwIMHZAFjoK3KLbPUzhASkhg54AapCa7igsBIA5AU09nLewet+CAxfBTL7d0OOCA6YD22XMhARYdICUkMHNAPNoXdng9BwJgHHAEFgfVF5rfPW7FAd/CP+hyM9vnrTrgNmwYW0Wzfd7YAVJCGjsHfIIekPOHV/F+C3wBP3Glhd3jFhzQAkqSxpnaPm/NAWeWoOWH2H4BSw7wGoCVA2RCUfjhC5wJ2AahW2Fh97gFB2SDRoFTHawI0HLAIyexrOdtqu3zhg7wGoCdAwgF27nzqvjGAfBScK+F3eNWHAAOgtc7Ovg6YO54LPnoqc16hIUD/AZg5QDi9czkL7nGATAfvMjC7nErDgCjQos7Ong6oG41oTGpgG77vC4BXgV4AWDngAZiR2PupTaOb4EjIPkwMTHVEQeAupCbHR0cHVB3nFQDXU7eNWbaAUEDMHLAJ+RyibNfcyRAbeP6leZ3j1txwALwnRzt6ODmgLqtxEbkMVmU2+eNHOAHgJ0DasgTWj2XGrjFAR+DoDPR9O5xKw64DM46Czo6uDng2lLS389Rq1O09g2adEDYAKzigLHktp2SibzigG0wE5jqhAPAstoJJrfP0zug88oc4t/MU7X02+cNCAgCwPAscIjcR+n5oIHTWwAEHmtN7x634gAQlRX3ZE1A0AEniZsHRh7P0t05asoBagPYd4DsfzTGg+dN5EMAmEqyy/TucQsOaAKnsqs9e/JwQGfdfGIn0rHV5rbP6xMQBoCJA2TFlw9o+IBcrldaE8shDgBXguNM7x634IBroO6lo2dPHg6YTux92TM7y3jvsAkHQAPYdIAsBySgyNvJx4GKsRzigHbw87g+lbsDeoLax0LT2+dpCPjfB4idLxtPmt4+r0+AGgD7DpCVgAMUueEDch9d6aFY5m8BUBZS+QR/B4ANBe/05EBALXFCkGfOFcrd49QOQA1gxwE+AXj/TfEhMNFQAowIaAUXQqVmd4+bdwAYTitt6cmcgM6FxBkYQxZa2j6vSwAEwK4DZK8CevsVoMgN75E7mwtrFKZxwAC4pSZVhwA2Dpinbk0eF24cZEXA3FVEe06orXuEngBKB+AGsOMAxftPubfXALFeD2wiD94fXMnSAakDjoBmnZmpvB0A8sCNPVkTQF48lF+c8gipa8ymA1AA7DlADrwG5CABDZfIkcCa9liWDgDl6DNSOTugA4RnlzvYEtBJPvyN2anVN2jPASQDWHVAvBzf2/sKUOTegTBAkeWvDSTAgoBfgkVV1ampfB0A8sC5P6u7x+0T0Ew+/DXO1e4cteUAHAA7DpDjZe/PvxcDrwMUWVGUNg0JVLcrzAjYBFx5JJWvA0DMeRjOD7BLwLVhxBTaMt3eYTsOIBvAkgPkeP/374sDQ8dB7xUhebJy/jxmDkhVbymo357K1QHZ6j9O/eJsdgTcv7KEPBf2Smd/awQYO0BKSmDmAFlWK6C3/yWgKLJSNY/cUn34QiwjAsC84EupqTwdAPPAR7PZEbCMmEIfUt5pOD/AugOkpCQ2DvD9/Mf39v7DFwQE0gGx/n/75JiGBNrYEACqw4+lpnJ0wMOb4Nvpmc2KgLpG8nq0WpoJEpYdICUlsXKA9zuPl+Xe8bI/JRiIA2Jl7z+q5uVrSIAJARdAvqw9lacDYB6YMEfIGgFXR5APf510U2SsOsALAEMH9PYh4D0LBs4D/rOAIsvxWhJYecM+AekD8rDSYG4OAB/1TjYjAoqJh7+NV6nnCFl0gA8ANg7weT8+YIDwWcBPQKwsy5XkwV6Tv2bggB3q3/Hz9FR+DmhG8sBMCGgmTiP3rKrrpJ8jZM0BfgCYOcBnAPQs4GscVhRZXn+YvGHl0g3bBIDa4JL0dG4OeAhGBZZkk6fJmSSAXPeVt8zcLDFLDggAwMIBwe/eL4HQr3DvsLYEvEWj9giAV8Lb0rk5IA70IVzXmidohoArm8l1X1fumZwlZsUBQQBsO0D25wMCCHhzgl4LBN4CwfkBSvx68nC33F0NNgkAsyk+TufmAJgHPt3XPgGXRxGnnd6O6TQ9T9CCA0IA2HdAwADx/n/xnQflQCAYcoAiy5XDNIpG7c0UBYPqC9PTeTngW5gH7muXgHv7iInSgmZL8wTNOyAMgC0HeE8AgX+TA+fBUEIIzBBRZPnQLK2iURsEtIL1kUPOpfNyAMgDj9abKktDQAv58Jez2OpMUdMOUAFg1wFykID40E+/H4beiAPkzzQrx60TcAQcozal83IASGsv7muPgMcPELMjG4/GWJ4patYBagBsOiD4z4ABgg6Qe6MOULQqx6UPrM8WbwUnjHnp6Vwc8HA5EPa3fe0Q8JstxMHDnut1MTbmCpt0AADAngOgAfxnAUVVKqpeLaN8Rq4cr/iLZQLAlfCE1nQ+DgDHzcEP+9oh4OZS0tKDotMx9uYKm3MABMDuWSAQCITPAr5MADZRUpFj5UM7NNbu1FgkACwsyz2SzscB4K96luF0eW0C3lp+XuPwZ3u2uCkHIADYcoBKAXJ8KB3gVwBhtvjYCo2iUWsEnFOfLgbPTE3n4oA16lfA1DjrBJzMIx/+Wu7Zny1uxgEoADYdIAfPBIH4Lz4YBRDeAgq5fcQjFR6yRECwLdUz+dL2B4Q9Q2wc0HRzRwjcvXFWCdA4/B1rZrNfwIQDMADsOkCGv+TAzQBxunysRvvIkEorBPgWl5e8v2KR1p4hNg5Ijos7UTzFW+AwzZsYtETAzjHEbNi+e/cZ7RegdwAOgO2zQHzoLBCoDwkogECA3PC+R2PVvGkCBu4dPGv4Bd1NUwzzAetOX5+2I84iAR1LyIc/hjtGqB1AAMDuWUD1K1Am1luTAEXRaB8ZMrHNtAPOGe4bZJgP8GaFvd9/thUCthQRDn/Lme4YoXUACQBrDsBA6B1iQNbcMKHEKjeIRaP563nsGWLngIf+m6Fsql1jOAGnscPfQtZ7higdQATAogPSUAUEXwLxsvaWmVglltQ+MlzhsmeIsQOy4+h2jeEEIIMfTm3pxXzPEJ0DyABYcQAhKRCuEtTaMiMrsYoi4xI4xmvTFFsH+A1gxQHL1aMfRh5o+Q2HXWNUDtAAwIoD0ghhgL9MMF7W2TPkDQRiZ8JNAzkXFE57htg6IDuOdt8gRsDJMPOTmzntGqNxgPSnJDYOSPMSkGasABIBsYpSNU99mTNP4bdvkKUDggYw74COXsEa4NzGe9z2DVI4QPrTn1g5IC1sAf9Xr1ZAvP7OUSVW/jJ8z3a2jeO2OcZxQLZVByzwXwTnneS5b9DYAdJTf2LjAPX3j9UJAgVo7h4Pto94vua5aYppPiDbxN5hlICjXudtXs5115ixA6SnnmLkAKAAlQP85UG6cUDwCVSOX+K6ZyiV//wASgIWS0NO8941ZugA6amnGDkg3v+LFAd4FUDjAL8EShr47hlKTeU/Q4SKgJbGLdx3jRk6QHoqiZUDQgZIQ+MATAGabwF5/WHPRM57hgRygAO7xowc4DUAIwfEE+IAWVUf0JsmDpCrJnLfNCWOAxzYNWbkAK8BWDkAfQnIqqRA78CrwPgtoCgK932DrgNCDvAbgI0DwgpIIxYLx1PFAbHc9wy5DlA90lN+BTB0APYWkEHLgFUCDl06S24wFvsZNrl4gcgOCBggiWUcoGKgt7pGKF6WLTugavswKVqfvBMCO0AKfP0MHYDmhNXVAb1pzgIkAibmSNH7FG0R1wEhAySxiwMgAzJ8E1hzwI2zUjQ/heLGAcEgkK0DNG4H/QqwEgdMjOrvX/I0dYjqAJUBklieBVRvgd5hDKzGAcrK6AZAOi3sWQAYgPVZALsbxI8ClAS8G+UATBU2HxACgIMDCA3k9DlBSEC0A/C9sPkAxABMHZCG3A2Ge4ZMO6CrACCeA1QAMHRAWAJ40XhgorQ5AroMAMI5ADMA27NAGqFWOFgqZoaArgOAaA4AALCOA9LItcKgVYCOgKgHQNh7AYIB2OYECTVC4Y4hagIAAMMGi/AsNXjyIQCi3g0iALCNA5AyMdA9au4sAACYyWDLDOeOkbi4uHcQAAR1ANEArByAZITg1bApB5AAcK5GyOztsK82AANATAdITz/FzwGhLz8NKw8weRYgAiB21xgOgJAOkJ5+mp8D4rHrYThJiN4BZACcqxEy74A4AgAiOkB6+mmODsDOArKFOkHvowGAUzVCVrrGSAAI6ADp6ae4O4CAgLk6QRSASNQKm64Sm0oCQDwHeF8B3B2A5ATDCpBp6wQBAF9HQbX4Q+IrQEAH+AzgQBwQQiCQDAj88AfWCxgSgAIQiVphkw4gG0A4B/gM8JSjcYBq15gso0lBDQIwAKqEjwOAAT4StlbYGwQ+7YAD8AqhQNMw3VkAB4DnW2DFEQYO0ARALAcEDOCQA9Ks9gwRAOBGQOJ2qWhxu20HaAMglANCBnDkLBDOCJk8C5AA4BYHeHda5JTutekACICwPUM+AHg7gJQOCjNA0zNEBIBTHLDNP7zFM2GtLQcgAIjaM6QygDNnAciA2gJ6BJAB4PMW+Dw8qeTjI9YdAAHIjhPUAQEAnIkD4skD5ilqhTUA4EHAIvVSoIqPLDsAMUC2oA4ABnAiDkgLlQip4wCjniEtADjEAfNAJccXluMA9BUgaO9w+BjojANgRlCm7RnSBIB5HPBgGpjfvM1yHIAbQEgHIAZwIg4gNQ4a9QxpA8D6LbAC9nRZzwcQDCCiA9THQIfyAWlo7zBFzxAEgOMMkVSweqh+ovWcIMkAAjoAM4ADOUHCzZBRzxAEIJbfDJFNcK1xaqLlnCDRAOI5AB4DI5APCB4H9XOCCADmCZhZQxcHgN3w0jc27gXIBhDOAQQDOB4HxBv3DKEAmCWgMrfwf9G8BdrBGIKKIzbuBjUMIJoD0GOg43FA4GbIoGcIA8AUATXeNYWVFHFAKuxCnmfnblDLAII5gGgAZ+IAeDWkWjdEIAAHwAQBM0u8yd2cmcZxwKdgk0fO+ids1AdoGkAsB+DHQMfjgOBZQK9niAAANQHDA1o/+6lhPqASCGCH+ttPPGLSARgAYs4Sk55/OiIOINwLEK8FAgSQAKAjoCYc1r1/w8gBcBDNTDUA686uTDTlAAIAIjpAev55px2A3QvIoGmIGAcQAaAgoO2C+jv9xuA0uB18/xPU3/+iyZK00pQD9AwgkAOk55+PkANU9wKYATAHkAEwJuAb0KE38oI+AXCv/dpz4e//q8OBiwF6BxABEM8BXgCej1gcQN48S3CABgAGBDS8jzTpnn2gR8A2sLmoBPv+SQRoO0DfAMI4wAdAxOIA9eWgDNMB8CzwXxoA6BJwAZ8tt0svJ7gL7i0L1wgdqQ797+kdoAGAaA7wAxCpOICoAdJZQBMAHQIqSZNlx2oSkFoDZpEOWxSqEDmyRkVQIq0DjAwgiAMCAAhwFlDXCmNnAW0AtAggb6YurNG+F5gBXTEgWCHyoFD9379PexbQBEAsBwQBiPxZQDcO0AGATMAF0mjRnOE6N0OtJWC044Vghcg5eD0g7XhA5wBjAwjhgBAAQpwFNOcH6AFAIuCbkaShzZvadO4Gh0JVhCpE0ECSQADRAToAiOSAMAACOEAOpQTQu0FdADACsOg/oH/d22FQCCBNDFaIfLoG+41KqeIAGgMI4AAVAAI4IB5dPB48DOgDgBBwYTLh68+d16ZbHzDTAwsBQnWCn87CUTpC4QAIgLA7RtQACBIHkHaMGAAACBg7mKh/gwqRHeD/vVI1RwgNAogE4A5AABB1x4j00vMiOUA9OyTwL1QAhAm4sYuk/1k1VW26BMBCgKJP1XWCVARgDkABENQB0ksvCeAA8s5RVULAEIAAAbHrj5H132ZQJQYLAVbCSlECAWsMHYABIKYDpJdeEsABpJ2j4UiACgA/AWOHEPVfZVQneK4CHBfbkX4BVbdQ8Kk2cgAOgJAO8AIggAPIOYFw7zgFALFK1Y1LHpL+D7UZVop+Aw96WL8AFQHQAQQARHSADwAR4gC8Skw9U5QGgNj2wyT9r6yqMq4VhueGmXi/QCoeWhxepOsAEgACOsAPQEQdoFkoqsoJAgC+JM8R+gsp+h+1iaZaHG6kOUzqGHlAQ4DaAUQAxHNAAAAB4wBQH4AAQCBAIep/zSFfatCIAJDtl4Y+SuwbNOkAMgDCOSAIgIBxgOpeADUAToByiRj9B+8G9AlYDwsB0jX6Br8w5YCPyQCI5oAQAKLEAeT6AAwAlIBNhO+/YqJC1zMEv9kZrVp9gzhkx7QdoAWAYA4IAyBiHBCsD0AMgM8PkAvx77/6kELXNVYDgoeRNZqdo6n48rLJmg7QBEAsB6gAECMOIM4SQwxAmCBRhK3qu1SlUPYNDoeFAHrzA+ZhBJxdp+EAbQCEcoD0wktiOEBvlhhmAIwABdc/dd/gjXGwEEB3fgANAUYGEMoB0gsvCOUAdWJYNT4CAwAlAL3/v6RQ9w3CYvBZBvMDZmCHjbPtiSQH6AEgkAOkQS+I5QDCLLH4eAIAkAC5Gv1a5tF2jt6A/9PtraYJ2Lie5ABdAMRxgDRokGAOwGtE5Hj5PRwASMBfMDWvjKUj4EvwhZ4daDhHaDhGwDhSHKAPgDAOkAYNEs0BaBzgfUgAQALwY8BKOgfA6qFKijlCH2MEVBP6BQwAEMUB0qCXhHMAkg7w/iICAAhowC8CLtEQcAgUjxc9oJkjVIkRsBbvFzACQBAHSINMERCpfAAZABUBstxQbYWAgTCsX0k1SSr1m1y0TBDvHjcEQAwHeF8Bg14SMg5Q3w1qAGBEwC5DAlpBIUBuO+U8QfSFMxmfHwABoN015rgD/AYQLg6gNECYAFlR5DacgHcNCGiDU+FK6eYJLsICjrP4BAkEgJcFdYAvBnhJPAcgvcPIXQBhtrgsK3IbXsL9gQEBsIJsJtU0uU0leNEJPkMEBUBQB/heAYNEdACwgKYBQgQoipcA/CxQ2qZDQBu8QzpMNU+Q1HNYiU+RgQCY2TnqqAMk34//SwKeBUB9gLYBQgTIPgLwIv5SPQcghQAU8wRrCuvx73/cEXyeIATAzM5RRx0QMsBLAuYDwrGAjgGCBPgAkGUzDqhaD6L5vFbjiZIzxxHunYdsIkySQgBIFNQB0iB/CCDiWUCVEHhPxwDQAVWEIn5NAuAF/7w/Gs4UJbacj9tLmiWGAJAsqAOk4M+/WGcB9CWga4AgAYqfALwxcNYNMgENoIg8/5DRVNkjO4hNJ4uIu8ZQAwjqgHAQKOJZIJQP0DeAKh9AJmBNQyyJgI9h0sBorjC55XyGxrY5zABiOsAHwAtBAwibDzAwQIAA2e8A5T0CAQQHtJ2FhQAGk6W/Iep/k9a+QdwAQjoAMYCY+QAUgHgtAoKBAF7AW92gYATAQoA1+rPFP91Fo38VAQQDiOiAAAAvBA0gYhyA1QPE6xCgaBBwGHNAFVIIoNs9rqF/nZ2jJAMI6ADMACI5IKwAAMAn8XoE+DQQu9KYgAt7QDK3Ta97fCix5XziAJ2ts0QDiOeAEAAvDBIwJ5gWn5aGG+AT395hXQIU2ZiAd2EuT6d3+IGG/nX3DpMNIJwDVAYQMSdINoCvUEyfgFgCAZNr1HFADYjphjRod45qtJyntupungYADDe7e9wxB6gBEDEn6H8N4K8AQwfE9sYJqFZlhRVYCHBJu3N06DBiy/kAg93jWgYQzAHSrwchDhAsJ+jXAMEAxg6YgXxp+ZvCk2Qeu5EHCwG0+gbPEfW/ZlGr5u5xsgESBXWA9Otfoz//gtUH+AjADGDoAO/FACQgf6J6khCcCleq1TVG1v/KdL3t8xoAiOkA6dcoAcLlBL0P0QAGDpAVWd3zkzNRVo8SgyWEM9vIBKzViP51do/rACCiA7wAqAgQMieYlpb2Hm4AIwf4LgfD5Zu5f1EUlQG+hgcEra6x7YSe8+p2vd3jVAYQyAHSq7/GHSBcPgAFIKQAg7eAEiLA8xmcJgfvDIdq9g1iDcGela26u8f1ARDPAdKrr+IOEC8fQDSAsQNkRf7GR4BnBZwmdwgUAoy6odk52opUmxdtN9o+T2cAYRwgvfoq7gDxcoIaABg5wPsa8EZ7nkpFAQQg6+EU7d7h9eDK+HC7we5xQwBEc4AXAMwB4uUENQHQc0DgevCzXGlG8PsPEIAWAuj0DreqwgDPSqPd4yYMIIgDfABgDhAuJ6hjAD0H+G+HP5sXr8B5gnA93Af68wN2hVvODXuGaAAQywF+AEiRoFA5QR0AtB0QLA9AhkkoVbFIIYD+/ICGY0H9U3SNmTGAEA4IAEB0gEA5QV0DxBvWByiyoiYAToWrNpogcWGwb+JIK1XPkAYAZnePO+aAIAAEB4iUE9QFQDaqD0AnisH+ke2GM0SGeqN/qp4hFQEIAE8I6oAQAOS3gChnAQMDGOUEIQDrYVGXqkhIi4D3D7dT9QypCUABENQBYQBeFTknaACA8d2gWgDweqeSYopMQytVzxAgAAJgdve4Yw5QASByTtDQACYIaADXu4MbKGeJGe8eh3EAAkCqoA5QAyBwTtAQAGoHKMgd4SXKWWKGBKBxAAqAoA4AAIibE6QwAC0BVaC3N3d9LCsCkLcABoCYDoAACJsThACkxdtwwFjYNhZLPU/QJAE4AEI6AAFA1JwgAkCaDQcghQBVVSwJUMUBBABEdAAKgKA5QRQA6w74EtaJ6m+ftxMHkAAQ0AEYAGLmBDEALDsA9ncOrWJLgOotQARAPAfgAIiYE0zAAbDmAPkQWA9X0VbFjQAyAMI5gACAiDlBAgCWHIB0C8yTFfYEBOIADQBEc4D0n4YECJATJBnAigPkNrge7pDm9nn7cYAWAII5QPrdf9I5ILL5ACIAFhwA18N9oLl9nsFbQBMAsRwg/e53dA6IaD6AbADTDpBluB7uy1h+BLRqAyCUA6Tf/Y7OAZHNCWoAYNYBSCGAxvZ5NnGADgAiOcALAJUDIpsT1ALApAO+Blmg7bG8CPDGAXoACOQAHwBUDohkTlAbAJMOkD95NydcCKDEcnSALgDiOEB6g5qASOYEtQEwHQccWhkoCa5UCNvn2TlAHwBhHCC98YYpB0QmJ6gHgBkHKL5IsKHSWxQ6skHmSYARAKI4QHrjDTMOiExOME0XAJMO8FUJ/6VaugQKRdkTUGkAgCAOkN549Q2Tb4FInAUgAM+kWXaAf5pcbGzs14cUtFqcLQGGAIjhAK8BqAmIXE4QAeAZWw4Ijg9QkFohpgSkGgMghAO8BjDpgEjkAyAACc/YdECgdTiWJwEQgPRUQR3gN4ApB0QiH4AawLYDFDkWrxdlSQBigPR0QR3gBcCkAyKRE0QMkPYMAwcofAlAARDUAUEDmHBAJHKCyCkggYEDSC0DDAnADCCoA/wAmHNABHKCAIDhf6F4xvp/UT2f0TxDqZ4VoedzDAAhHRA2wBsi5wTfk6L7GZ6eLqgDggCYd4CjOcEuAoCADlAbQOCcYNQDMCBdUAeEAXhV5Jxg9AMwQFAHQAMImxPsAgAI6gA1AALnBKMfgFRBHYAaCzGqDQAABEpJREFUQMScYFJC0qXo/v7rKweYJMAxB0AABM0JJiVURrkBJv5Sd65wBB0g/f4N6w5wKCeYkJR0yBPV33/RA/25whF0gPT739twgEM5wYSkpA+iGoAZxtPlI+UA6fe/t+4Ap3KCCUlJVWej+PsvbB1ghQBHHOAFwK4DuOcEE5KSkqqi1gE5Kx/Q7BeIkAN8ANhzAPecYIKPgKRDwy+9hz3/ZfV5V+v5gOb5nPS8T3p2VbYPoNovECEH+AGw4wAncoIJqqRAEuWWmXh7s8RiefYNCuSAAAB2zgL8c4JeBaQF/gPsGUszR4AcdQRwd4D09u9ZOIB3PiAhyceAuU1TgjpArDhAevttFg7gng9I8P+CL4CodIBgcYD09tssHMA9J5hARsCNA+w6wAsAAwdwzwlqfP1uHGDXAT4AGDjAiZygpgHcOMC6A/wA2HaAIzlBNw7g4IAAAIwc4EBOMMGNA5g6IAgAEwc4UCeYgCQD3DjApgNCALDJB/CvE0xw4wCmDggD8HY05ATJoaAbB1h3gAqA6MgJ6p0G3DjAvAPUAERHTjDJzQewdAAAICpyghoIuHGANQdAAKIhJ+jGAUwdgAAQJTlBNw5g5gAUgOjICbpxADMHSK+/zcUBDvQOJyQkEQMBNw4w4wDp9dd5OCBS8wTdOMCsA6TXX+fgAMdygl3DAZGMA7wAMHeAU73DCe69gG0H+ADg4wA3HxANcYAfAC4OcPMB0RAHBADg4YCX3HuBKIgDggBwcMAg914gCuKAEACc8gFO9A67+QAbDggD8HqU5gTdfIAtB0gfvs7ZAfxzgm4+wIYDpA8/5OsAJ3KCbj7AugOkDz/k6gBn5gm6+QDLDpA+fJ2nA9w6QdHjAK8BuDvAzQeIGwf4XgG8HeDmA8SNA/wG4OwAZ+YJuvkAKw4IvAL4OiBSe4fdOMDYAUEDfMg9H+BQnaCbDzDngNArgHc+wJl5gm4cYNYBYQN82DVygm4+wJwDVK+ALpATdPMBph2gNkAXyQm6+QAzDpDe/NAZBziXE3TjADMOkN5800kHuPkA0eIA6c03nXSAmw8QLQ7wAuCgA5yrE3TzAXQO8AHgnAOcyQm6+QB6B/gBcM4BjuUE3XwAnQMCADjlAOd6h918AJ0DggA46wCH6gTdfICxA0IAOOkAZ3KCbhxA44AwAG92sZygmw+gIkAFQBfLCbr5ACoC1AB0tZygmw+gIAAA0NVygm4+wJgACEAXzAm6+QB9AhAAulhO0M0HGBKAAtAFc4JuPkCPAAyArpcTdOMAPQJwALpaTtDNB+gSQACgi+UE3XyALgEkAN7sinWCbj6ATAARgK6WE3TzAdoEkAHogjlBNx9AJkADgC6WE3TzAZoESH99M9IOcOcJRjIOkP7610g7wJ0nGMk4QPrrXyPuAHeeYATjAC8AEXaAO08wknGADwAhHODOE4xIHOAHQAAHuPMEIxMH/H+5yja/i9tpmAAAAABJRU5ErkJggg==;" parent="1" vertex="1">
                    <mxGeometry x="490" y="150" width="91" height="91" as="geometry"/>
                </mxCell>
                <mxCell id="6" value="" style="shape=image;verticalLabelPosition=bottom;labelBackgroundColor=default;verticalAlign=top;aspect=fixed;imageAspect=0;image=data:image/png,iVBORw0KGgoAAAANSUhEUgAAAgAAAAIACAMAAADDpiTIAAACQFBMVEX////dbBDZZhLtgQjhcA7jdA7rfgrldgzneAzfbhDjcg7pfArpegrbaBLxhwbziQbvgwjXZBThcg7TXhbvhQjnegzRXBbVYBTdahDVYhT3jwTbahLldAz5kQLrfAr1iwTXYhTtgwj1jQT7kwLNVhjPWBj3jQTxhQbfbBDZaBLPWhjRWhbfcBDziwbTYBT1iwbxhQjXZBLNWBjLVBrPWhb7lQLbahDleAz9lwDZZBLzhwbtgQr5jwT9lQLldA7LVBj5kwL5kQTpegzfcA79lQDTYBbJUhr548/tfgrLUhr/mQDxw6HTXBb/lwDvwaHLVhjvmTr1yZ/70Zv5z53rkzztlTz3zZ30sWz3y53hhULzs2zdgUT5zZ3xxaH1oTjpkTzznTj4ozbtv6P54c/64dHhh0Dfg0L75c/xmzrlikDtlzztqXDrp3D2nzjjiUDvlzr758/rqXDbfkTvw6HtqW7JUBrxnTjmjj/7z5vfhUL1y5/dfkTbfETxsWz5pTbxmTrznzjhh0LpkT7wmDz87N/tq27vv6H3oTjzxZ/tv6HrlTzzx5/rkTz///3xmzj+9/DjeyT85cr1tG7958//+/j7z53lkU/40KbtiR360KHwjh/fch7yoUftgw32xZDUYRzeg0D74cb86tn43snzyanddy/98+jpjDLokkjvvZjegD3vtYXqoGLebhTmeRX12cX5rEPwxabsrXn5y5T41rjdhVD3mR7ngyb3kQrthRD307HtoFnxlzD3jwjzr2LrgQ4Vh/hkAAAACXBIWXMAAAsTAAALEwEAmpwYAAAgAElEQVR42u2d64+dxZGH3zPg8VqDDTNjjzU2aAVBG82RZQnjjKP4A7uaNUhBwSYBx5AQklhAYnFZQ8gmqyCywRIb0IBhLTAIsLjYwAaTAEnYQLL511bn3pfq7qruet+u99JO8iGMkOXz+Dldv+ruKrZcO1pbPesQsP5hvHYp6ypzLXjWvG8dPnwFcl2vrmuMtXO0vgqtHb51tXP9o3/dYK9/mqw95roOuf55sr5ir6+N179C6+vO9a1vfXO0ii1btlw7+MVEwC7tF0TAPI6A+Stmv1yf/RXXkAjYuWPn8L8wAVeXQcCeG/Y4CfiXAQKTX9DHft1Xxr8oBHzNTcC3vv7N6a8pAUMABmtLCQ6ACZgigHbAvFsA19AdsHOHwwFXZ3TAnlwOGAAwdADft8BMAAu7Ur4FggYYOID4LTAQgNMBOzI64LpcDhgDcO3wa6CEfcAuDgf4ILgmZh+wU5wD9uRywAiA8ddACfuAqzgcwLkT1LYBchxwXS4HTAHYUooDdi1w7APmuR3g/hbI5YA9uRwwAYC5GpwJgGMfcAW3A+TtA67L5YApAKU4YCiA9H3APL8DpNUCe3I5YAYArwOmOwCOfQB3IiSwFrgulwMUAPgdMBDAroVRRZjigPlSHCCqFtiTywEqAOz7AJ5UeL6EVFhcLXBdpQ5QFKABwO2AUCqMdcB8OQ6QVQtkcoAOQGmdobRa4HA5DpC1D8jkAAOAshyQWguU5ABZtUAWB5gAlOKAheRMsBQH7OgcYBugFAdwZILzXS1QigNsAPgdsMCRCR7uaoFSHAAAwO8AnkywqwXKcAAEALMDFpgywa4WKMMBIABSM8GuFuB3AAyA0EywqwX4HVAsbanCAcIzwRbXAsXSUhUOEJ4JtrgWKJaWqnVAVwvIcsAAgAodIDQTbHEtMASgOgdIzgTbWQuMAKjKAXIzwdbWAmMAqnKA6EywlbXABIBKHCA8E2xlLTAFoBoHCM8EW1gLzABYan0m2MpaQAGgywTbWAuoAHSZYAtrAQ2ALhNsXy2gA9Blgq2rBQwAukywbbWACUCXCbasFrAA6DLBdtUCNgBdJtiqWgAAoMsE21QLQAB0mWCLagEQgC4TbE8tAAPQZYKtqQUcAHSZYFtqARcAXSbYklrACUCXCbajFnAD0GWCragFPAB0mWAbagEfAF0m2IJaoLhyKbcDurvDOR1QXHllbgd0d4dzOqC48sr8DujuDudzwACA7A7o7g7nc8AQADkO6GqBqh0wAkCIA7q7w9U7oNi4Uo4DurvD1Tug2NgQ44Du7nAGBxQbS3Ic0N0drt4BxcaGFAd0d4dzOGBgADEO6O4OV++AoQGkOKC7O1y9A0YGWJJUC3R3h6t0wNgAgmqB7u5wpQ6YGECcA7paoBoHTA0gywHd3eGqHDAAQKADurvDVTlAMUCXCbaxFhgBIM4B3d3hqhygGaDLBNtXC0wAEOaA7u5wVQ4wDNBlgm2rBWYALHWZYBtrAcsAXSbYrlpABaDLBFtYCwAG6DLBNtUCxb4N2Q4oKxN88/Wnn3766Z8o6wVz/dxcP3StXyvrkUce+UHMevbZZ3/kXH/+W1kOKPbtE+2AUjLBw298dmazqNXaPPPZH0pxQLFvn2wHlJAJvvFvRf3WZlH89x9KcECxbZ9kB5SQCf7l1aK267X/ZXdAsW2bbAdwZ4Ln3y5qvF768x5mBxTbtsl2AHMm+Jdaf/6bmy9xO2AAwDbp+wDGTPDVot5r87U9vPuAIQCyHcCZCb5R1H55doIxDhgBUBMHJNcChx+qPwAv/Y21FhgDUAcHMGSCDRDAQAGcecAEgBo4gCET/KwJAHy2hzMTnAIg3gEcmeCZBnz+m2eGnQEuB8wA2Nb8TPDvm00wwOYezr6AAkDjM8G/v67+MZ579cSJ49j1fe/6jnP9grK+7VyvnVMJ+DNnb1AFoPGZ4GPqH+OrjN1hffF3h294Tf2d/4jzfIAGQNMzwWPqH+OJK9wHRK4nnhAZHA/Y6TwfcHUyATd82wKAywE6AA3PBE0APAgMDwnJOSP0bdAAHA4wAGh2Jog2wMABos4IQQDwOMAEoNGZIGSAetwXcBkg3QEWAE3OBAkGEHZfAAaAwwE2AA3OBGED1OG+gNsAqQ4AAGhuJhhhACH3BVwApDsAAqCxmaDLAPLvC/gMkOYAEICmZoI6AIdxBhBRC7gBSHUADEBDM0EDgMNX1ObusN8AKQ5wANDMTFCLgk/MH56vzd1hHwBpDnAB0MhM0ACgRneHdQA47w06AWhiJmgCUJ+7wwYAjPcG3QA0MBO0AKjN3WETAD4HeABoXiZoA1CXu8MWAGwO8AHQuEwQAKAm7wjZAHA5oOhtq7EDiJkgBEA93hECAGByQNHr1dkBtEwQBKAWtQAEAI8Dil6vvg6gZoIwAHWoBUAAWBwwAKDGDqBlgg4AalALwABwOGAIQH0dQMsEXQDIrwUcADA4YARAr961ADYTdAIgvhZwAZDugDEAta4F0JmgGwDptYATgGQHTABogAPCtYAHAOG1gBuAVAdMAai7AzCZoA8A2bWAB4BEB8wA6DU/E/QCILoW0AB4lvNNUQWA5meCfgAk1wK/8AGQ5AAVgMZnggEABNcCfgBSHKAB0PRMMASA3FpAA+AHnO8K6wA0PBMMAiC2FggBEO8AA4BmZ4JhAKTWAkEAoh1gAtDkTBADgNBaIAxApANsAJqbCc4vnEIAILMWQAAQ6QAbgAZngigARNYCGACiHAAB0NxMEAeAxFoABUCUAyAAGpsJIgEQWAvgAIhwAAxAUzNBLADyagEkABEOgAFocia4QHhbXEwtgAWA7AAXAA3OBOfrOGsMDQDZAS4AWnNOsB61AB4AogPcALTlnGA9agECAEQHuAFoyTnBetQCFABoDvAA0I5zgvWoBXQAOGeO+gBoxTnBetQCBgCMc4e9ALThnGA9agETAD4HFOu95jqgrLnD1dcCFgBsDijW1xvrgFLmDuepBWwAuBxQrK831wElzB3OVAsAADA5oFjvNdUBJcwdzlYLQADwOGBggNo44OO77r//rsn6fJeLgPdPPffc3ZM1jAShb4Hzp06dOvXYeJ23P/jzx0brmWeeOXbsvNMBP5muF174a2m1AAgAiwMGBqiLAw7dr/4x/IfTAbepP3aVax/wlPpTT9kA3Kv+83udf+3Vn3qotFoABoDDASMD1MQBGgB3Or8FdACGTQFgH0AEwLUP0AAorRZwAMDggJEBauIANwAaAYYBHHmADsACiwFKqwVcAKQ7YGKAWjjAA4BKgGEApRzwALDgB8BZC2gAXFNWLeAEINkBEwPUwgE+ABQCTAPAeYAJwIIPgO86awHDACXVAm4AUh0wM0ANHOAFYEYAsAkE8gALgAWfAZx5gA5AWX0BDwCJDpgZoAYO8AMwJcAAwJEH2AAs+ABw5QGWAUrpC/gASHOAagDxDggAcAgGwHFGCABgwQeAwwEmAOX0BbwAJDlANYB4B4QAOAQA4DwjBAGw4AMAdgBggBJqAT8AKQ7QDSDcAUEADgEAuM4IgQAs+AAAHWADUEZfIABAggOGzaC6OEAHwNkXMABwnBEygiCLgKdsACAHgAZgrwVCAMQ7oNi7Xh8HGAC4CDABgM8IWTmAQQAEAOAACAD+WiAIQLQDir176+MAEwAHARYA4Bkh+CtgRgAIgO0AhwGYa4EwALEOKPburY8DLABgAmwAoDNCQA6gEQADYDkABoC7FkAAEOmAAQC1cYANAEgAAABwRshpgDEBDgBMBzgNwFoLYACIc8AQgLo4AABgKxIA+4wQmAMoBLgAMBzgAoC1FsABEOWAEQA1cQAEgE3ALhAA64yQxwBDApwA6A7wGICtFvgGEoAYB4wBqIcDQAC24gxg3Rt05ABTAtwAaA5wA8BZCyABiHDABIBaOAAGYCvOAOa9Qa8BFhZ8AKgO8BqArRbQAdhxNZ8DpgDUwQEOALbiDGDkAS4A5qGo+F7nWWEfAHy1gAHADj4HzACogQNcAGz1lIHOO0MBA/gBmDkgYACmWsAEgM8BCgDyHeAEYKvbAM47Q24A5hEATB3gB4CrFviOCQCbA1QAxDvADcBWDwC2A4bVQJoBpg4IGoClFrAB4CKg2L63Pg7wALDVAwD8LeADYB5xanjsgBAAPLUAAAATAcX27fVxgA+ArR4ADAJGu0CSAZ5y3hlCGIChFoAA4CGg2L69Hg44++Xv3vpC/WN4507XuqRxYq0To/W2+lNvn7BW6J+Pl/pTLx5/6+U3Srk7DALAQsAAAPkOOPTBH88Vm4X0tbm5uVlceus8fy0AA8BBQLG2Xb4Dzn5R1Gm9+DJ7LeAAgIGAYm1NvAPeP1PUbB1/k7kWcAGQTkCxtibdAZ9fKmq3XmOuBZwAJBMwAEC2Az4+WdRwvcxbC7gBSCVgCIBoB3y6WUcAXjzPWgtoADxCnT3uI2AEgGAHfHypqOV6i7UvYACwg88BYwDkOuDLen7+xaXDnH0BCwA2B0wAkOqAre/VFIDiJ5x9AQ2AX1Nnj/sImAIg1QEP1RWAl99k7AsAADA5YAaAUAe8WNPPf/Mtzr5AwAAJBCgAyHTAZl0NcILzTVEQABYHqADkdsC+92+zl9b/+c1o3R9ed3nWc7N1d2CdGq3HwHVMXYPX5P5P2wU+BK7/fuihv9JrgaABognQAMjtgH8P/KW6LfFFyV2h1+UTX5Q8hnPDC/RawAEAgwN0ADI7AA3A+IgI05uiu4ITJpBzhp5BAkD4FhgIYCfKAJEEGADkdQAFgMHawj9hImnGyDPoApG6D3ACkOwAE4CsDiAAMHQA55yhya+Ut8XxAFBrAZQBogiwAMjpABoA1zLPGlMkEOmAY1gAyO8JegBIdIANQEYHkACYbAX59wHRO8FjeAMQM0GkASIIAADI5wAqAFtKcUD8jBE8ANQ8wAtAkgMgALI5gAgA+7zBiQBi9wEkA5AI0AD4IXX2uI8AEIBcDqACUIoDEmaMUACgOeD7GgDU2eM+AmAAMjmADACvA3ZdlThjhGgAAgEGAF/lc4ADgDwOoAMga+4wDQCKA0wA+BzgAiCLAyIAEDV3mGwANAEWAGwOcAIgpTcYAkDS3OFjwW5gbG/QBoDLAcXcmiQH2AQEARA0d9gEIDRsDu8AAAAmBxRzc7IdEAZAztxhlwHS5w1CAPA4oJibk+0ADQDhc4d1AA7jDIAiAASAxQEDAEQ7QAdA9txhA4DDMwOkOsAAYCefA4YASHaAAYDoucOPaQDMH0YaAEEAbAAOB4wAEOwAEwDJc4cNAKYvSaXPHTYNsIPNAWMA5DrAAkDw3GETgIkD0ucOuwyQ7oAJAGIdYANQjQNiMkELgLED0mePAwZgcsAUAKkOAACoxAExmaANwMgB6bPH3QZIdcAMAKEOgABYqjQPwGeCAABDB8wnO8AEQFVAmgMUAGQ6AASgwjyAkglCAAwccEWyA8AkcCeHA1QARDoABmBJZCYIAuCcOUpxgA3ATuTM0RABGgASHeAAQGQmCAMw75w7jHcA1AzayeIAHQCBDnABIDETdADA4ADnJjC5FjAAkOcAJwACM0EXAOkOgADAzRwNEWACIM4BbgDkZYJOAJId4DTAjtRaoJhblO0ADwDiMkE3AKkO0AGgzBwNEVDMzS2ura3JdYAPAGmZoAeARAcYABBmjoYIGBwIWVxck+sALwDCMkEfAGkOMAHAzxwNETDaAyzK3Qf4AZCVCXoBSHKABsDPKTNHQwQMATAMIMoBAQBEZYJ+AFIcYAOAnTkaImBigIRvgXIdEAJAUiYYACDBAQAAO3lqgfGJoMW1RaEOCAIgKBMMARDvAAgAnlrAygGEOQABgJxMMAhAtAN0ACgzR0MOmAEgIA84e/pn1kIAICYT1AB4+6mn7rXWdwf/c57uAAMAwszRkAMUA+TPA4JXw5Jmj5eeCeoAuNex8Hlx0wHHDQDwM0dDDlAPhGTPA34aC4CITHB+4RQWAPI+wAIAPXM05AB9D5A5D4gHQEYmiATgGcQ2wHCADQB25mjIAcVN6uefNw/YlwCAiEwQCwC9FgAAuIanFihu0gjImwekACAhE0QDQK4FIAB4aoHiJpWAvHlA2ABJs8fLzwSxewB6HgACwFILDAC4ac6zqnRAGIArxTgAqgXQAJDzABgAjlpg8BWgE5AvD0AY4EohDoAzQTwAVAc4AGCoBYYGMAjIlgdgAJDhADgTvBsPANEBLgDSa4HRV4BGQLY8AGUAEQ5wZIIUAGgOcAKQXAsUizfZDsiVB+AAkOAAOBMkAUBygBuA1FqgWFy0HZApDwgbIH76fCWZIA0AigM0AF6gzBwNOaBYXAQckCkPOHtaW3YzaGNDiAPgTPBuoxmkrVlH6Dy9N+gDIK0WGABgO0DQ+QADACEOgDNBDYATqCkzSAV4AUiqBYYAgPsAIecDdACWxDgAygQhAEIE4BygA0CZORpywAgAYB8g5b6AYYAlKQ6AMkEQABYHGAAQZo6GHDAGAHKAjPsClgGWpDlgVgsYAMzzOcAEAD9zNOSACQCLgvIAjQBzD7CxIcsBaiYIG4DDARYA6JmjIQdMAeDOAy6f/c9HXeunygoRYBpgSdg+QM0ELQDYHGADgJ05GnLADADOPOCVD89gJ6yGHKD+7MnJcVE5DtAyQZcB0h0AAHA9Ty2gAMCWB7xykjBiN/QtYAAwFICkfYCaCQIAMDkAAoCnFlAB4MkDLr9HmrEc2gfABtgQmQm6DZDqABAAllpAA4AjDzj7bkEHoEcAYGl8Z0BgJgjnABwOgAHgqAV0ANLzgMvEz78I1QIuA0jMBH0GSHOAAwCGWsAAIDkPeK+IA6BHAGDDP2MkXyboAIDBAS4A0msBE4DEPOCVIhaAHtkA8jJBvwFSHOAEILkWsABIygP2nowHoEc2gDgHOAFIdoAbgNRawAYgJQ+gC6AIZYIgABsyHRAyQLwDdABoc4f9+wAAgIQ84MMkAHoEAEQ6wANAogOOG2PniA5w1wIgAPF5wJk0AHpkA8hyQNgAsQ4wASA5wFMLfAMGIDYP2FskAtAjACDQAV4AkhxgAHAN3QGuWqBYXUQ5AJMH7L2o/jbPvXc7Zqkf/9mHjXX69GkNAMK8wRwO8B4Jm63zdAcctyePXs9TCxSrq1gHhPOAB9Tf5nvr5PMBoUOhJ0kzR6t3APJQ6GN0B5gA0GaP+2qBYnUV64BwHqABcDv9fAACANEO4AAAdsBxaPYwSy0wAADtgFAe4AIA64AgAMS5w1U7AAsAfR9gAxDhALAWGAKAdUAoD3ACgHRAGIBtoh2ABoBcCxyHp48z1AIjALAOCOQBOgD0c4IIAEQ7AA8A1QEQADEOsGuBMQBIBwTyAAMA8jlBDACSHUAAgOgAhwEYaoEJAKsceYAJANUBKAAEO4ACAM0BMAActcAUAI48QAPgCfpZYRwAch1AAoDkAKcBkmuBGQAMeYAOAP2+ABIAsQ54DgfAKXomqAHwNHX2uK8WUABIzwMMAMj3BbAASHUAEQCCA044AEivBVQAkvMAEwCqA9AACHUAGgByX8ANQGotoAGQmgdYABAd8CgaAJkOoBoA74BX/S+NJtQCOgCJeYANAM0BVjPo4YcfdgAg0gHPIZtBam/wBGa9em5T+Te/Tp097qsFDADS8gAAAJID9gL3Bl0ASHSABsAJ3JwhegN9803q7HFfLWACkJQHQACk3h12AiDQAQYAs+PCnjlDdADeIc8e99UCFgApeQAIQOLdYTcA8hzgMoDPAXQA3iLPHvfVAjYACXnAPSAAaQ7wACDOAU4DeBxAB+AN8uxxXy0AABCfBzgASHKADwBpDnAbwO0A8uf/0mHy7HFfLQABEJ0HuABIcYAXAGEOMAHAzBtkEUBCLQACEJsHOAFIcIAfAFkOuMu9B3DOGaJ+/scjZo/7agEYgMg8wA1AvAMCAIhygAbAnah5g1QA3n4zYva4pxZwARCXB3gAiHZACABJDtABwMwbnCcC8PZ57IwR3D7AaYC4PMAHQKwDggAIcoABAGreIM3/b15BmTUWdMBODwAxeYAXgEgHhAGQ4wATAMy8Qcr+/w3vx092wHAT4AYgIg/wAxDnAAQAYhxgAYCYN4jNf9/57I3R4aB5Vgf4AKDnAQEAohyAAUCKA2wAwvMGTw3WY+A6Nl2nXv/7/Pzwc5/HzhjB7gN8AJDzgBAAMQ5AASDEAQAAqHmD2O7wGAFWB3gBoOYBQQAiHIADQIYDIAAw8wanzeHw+YB57IwRLAHF7lUGB4zzgDAAdAcgARDhABAAxLxB/N3hqQHYHFDs3s3ggHEegACA7AAsABIcAAMQnjdI/RbgdECxfzeLA5BfAXQHaAD0tol2gAOAXahMEOuAeV4HFPv3szhguBH8JQYAogN0AHqiHeACAJMJcr4tTnFAsX+VywGLaxoAd/DMFzAAEO0AJwCoTJBzvgDeAcX+/WwO0A1wB898ARMAyQ7QAcDPG8zpgIEB2BxgAMAyY8QCQLADDADQ8wZzOmBoAC4HmABwOMAGQK4DTACw8wZzOmBkACYHWAAwOAAAQKwDLACQ8wZzOmBsAB4H2ACkOwACQKoDbABw8wZzOmBiABYHAACQCAheDev1RDvgLlxn727MfYGqHDA1AIcDIAAoBOABkOkANACCHDAzAIMDQAAIBDyAB0CkA8gGEOAAxQDpDoABwBNAAUCiA+gGyO+AYr+igFQHOABAE0ACQKADIgyQ3QGqAVZTHeACAEsADQB5DogxQG4HFKNPfvj3f3/qPsAJAJIAIgDiHIAHgOt8QLoDCuXv/2rqPsANAI4AKgDSHBC1B8jcFyim9p9AkOAADwAoAsgACHMABQCu8wGpDiiUv/+rqbXAg9p5APrcYToAshxwPw6A5ySdD9DKwNQ84EHdAOS5wxEAiHIAGgBB5wMmAOyeGSDeAToA9NnjMQBIcgAeADnnAyADRDvANADVAf9z0l5BAAQ5QAPg0kO3Odb7ks4HzADYPTNArAMMAMizx9eB7nAYADkO0AC4cxgO7hr+st+VFnM+ADZApAMe9FQB9N7gqC2MAECMAwAACLPH8zhABWB3al8AAGAxhYABAxgApDjADQBm9ngeBxRHHAqIIQAyAGn2OHBGCAWAEAd4AEDMHs9TCxRHdAKS+gIQAJTZ4yYBPawBhDjAB0B49nieWqBYPgI5IK4v4NgDLKZ8CyABEOEALwBBB+SpBYrlZcABkX0BGAB6HqA6AAuABAf4AfA7IFcmWCwv2w6I7Qs4DRD/LYAHQIADAgB4HZArExwA4PwWoDrAAQA5D1AJ0ABY74l2QAgAjwOyZYJDAKBvgZg8IJwD0AnQAVgX7YAgAB4H5MoERwDoBET3BXQAiLPHHQQYAIh2gA4AZeZovkxwDADggIhM0ACAOHscJsD4ChDtAAMA4vT5PJngBADbARGZoAkAbfY4TID5FSDZASYAFAJyZYJTACwHRPQFLABIs8dhAsyvgHXBDrAA2ErbB+TIBGcAmA6I6AtYXwGk2eMwAZYBBDvABoD4LZAhE1QAgKtBSl/ANgBl9jhMgLUHEOwAAIAoB1RZC6gALKf2BYCvAMLscZgA6ytAsAMgAOgOqDYT1ABI7QsYR8KIs8dhAkwDSHYACADZAdVmgjoAiX0BAwDi7HGYAGgTKNUBMABEB1ScCRoApPUFTABos8dhAmwDyHWAA4CtkjNBE4CkvoAFAGn2OEwAYACxDnABIDkTtABI6QvYAFBmj8MEAGVgb12oA5wACM4EbQAS+gIAAITZ4zABTgMIdIAbALmZIABAfF8AAgA/exwmAC4DZTrAA4DYTBACILov8D0IgMW0PEADYK9mAHEO8AEgNRMEAYjtC8AA4POAi/c9Ya7bdQDG9wXWZTpAA+CdO13r812CMkEYgLi+wKIDAHQeELwbODkp2pPpAOzdQEmZoAOAuL6ACwBsHoABgDZ7vFoHIAG4S1Im6AIgpi/gNAA2D0ABQJo9Xq0DYgDInQk6AYjpC7gBwOUB96AAkOuAKAAyZ4JuAOh9AY8BcHkAEgCxDogDIG8m6AGA3hfwAYDJA7AASHXAb+IAyJoJ+gCg9gW8BsDkAWgAhDogFoCcmaAXAGpfwA9AOA/AAyDTAdEAZMwEixU8AaG+QMAA4TyAAIBIB8QDkC8TLFZWiA7wZIIhAEJ5AAUAiQ5AAnC/pHOCxcoK0QGeTDAIQCAPCAJAnj1erQOwAEg6JzgAgOYAT18gDIA/DwgDsF20A9AACDonOASA5ABPX0AHgDp7fG3x8j2T9cB0qf/KcycrWbfFrnfU3+wX9zvWXR9LOic4AoDkAHdfwACAOHt8bm1SFaoN4XObRT3XW873BA9JOic4BmCFXA1CfQETANrs8bW56XZw9vnPnanp5198uoU4ezxPJjgBIMIBdl/AAoA0exwm4Pd1NcCXh4izx/NkglMAyA4A+gI2APi5w4trAwCsM0Jzn9b08z/3+Rbi7PE8meAMAKIDoL4AAADeAYtrixABF2tqgD9eey1x9nieTFABIO5bQHUABADaAWvGEZHxocC9n9QTgA+2biHOHs+TCaoArKT2BUAAiA6wToperGUd8AV99nieTFADILUvAANAcQBwUnTuoxoCcOZz+uzxPJmgDkBiX8ABAK0WsAmo3z7w0vtL9NnjeTJBA4C0voALALQD4LvDix+dq9fn/+7nMbPH82SCJgBJfQEnAGgHwHeH5y4+UaOvgUuffhw1ezxPJmgBkNIXcAOAdYDr7vD2i5/+/p0aeODSQ3d++XHk7PE8maANQEJfwAPAKr03aCRCc3P6sfHbt7t6g9qcIWdv8GH1p07bvcGfqf/8Z87usPpTtyXNHs+TCQIAxPcFNAB+S509Hr47rAHwBPCy9OhkAAKAngeAMQE6AEsuAnQAlhJmj+fJBCEAovsCXgCovUGAACdF4m4AAAzCSURBVB0A14wRFAA9DwAjAkwDOM4HBA1QWh7AkwmCAMT2BfwA0HqDEAEGAGsOB6AA6GkAPGyfELEMADtAAyBp9nieTBAGIK4vEAIgMQ+wAXA4IB2AAQG2AUAH6AAsVeoAjlrAAUDMt8BqEIDEPMAGAHYAAwDb9u07bRsAcoABQIUO4MkEXQBE7QSDACTmATYAoAM4ANhmALDhOidoAlCdA3gyQScAFAImpWAYgLQ8AAAAIoAFgG2gAWwHWABU5QCmTNANQIQDEAAk5QEQAAABGgDrPAA4zwrbAFTlAJ5M0AMA3QEYAFLyABAAmwAdgHUmABz3BQAAKnEAVyboA4DsABQACXnAPSAAFgEGAOtcAIAOgACoxgE8mWBxcIXPATgA4vMABwAmAcZXgIOAaAPoDgABqMQBPJlgcfAgnwOQAETnAS4ADAJMA8AExAAAOAAGYKk2mWBx8CCfA7AAxOYBTgB0AkwDwA5IMIDqAAcAtckEi4MrfA5AAxCZB7gB0AiwDQAREAeA5QAXAHXJBAcGYCMAD0BcHuABQCXANgDkgCQDzBzgBKAmmeDAAGwO0AHYvcrhAPVrwAeAQgBkAJuAWAAMB7gBqEcmODIAEwEGALs5HIA1gEIAZADbAYkGmDjAA0AtMsGRAZgcoAOwfzeLA5Q8wA/AlADYACYBOgA9PwCnne8H+ACoQyY4MQALAQYA+1kcoOQBAQAmBMAGMB1gANDzA+B8Q8QLQA0ywYkBWBxgbAL3MzkA+RUwJcBlAJ0AE4CeHwDXGyJ+AORngjMDMBBgGoDJAdONYBCAEQEuA+gOsADo+QFwOCAAgPhMcBgEcTnANACfA0Z5QBiAIQFuA6gE2ADoBBhnBl3vCIUAkJ4JqgZIJsAywCqXA0Z5AAKANQAA2AEAAD0PAK63xIIACM8Ex0EQjwOsPcB+yuzxcB6AAWDNAMD5lhgEQM8DAOwABACyM0HdAIkEQAbgcsDAABfvUNZHzkFDv7tdWa73BPd+MP6B+wbrA/s1uQ/+S1kfON4TXNqY/MTzzz///O+SZo/nyQSnQRCHA4A9wCqbA6Jmjye8J9hDvSeYNGFCQiZoGiCJALsKwM4cxeUB5otSBALKelN0CAHP7PE8mWDRP8jnANsA4TlDFAdoDBAJKOlN0dH/inEAPRMs+n0+BzgMsMqfCc6NnhTL74Dx14AMB8RkgkW/z+eAxw0AMHOGos8IkQkoxQETCIQ4gJ4JDgBgc8DjkAFWOWuBWXN4/KRcbgdMNoJCHEDPBIcAcDnABiA8Zyj6jFAEASU5YEmSA6iZ4AgAJgcABgjNGYo+IzR9VDK/AzYkOYCaCY4B4HHA444yEDd7nHhGKIoAqTNH82WCEwBYHAAAEJozFH1GSHlWVkIeIM4B2ExwCgCHAwIG4M0EIwloiwOwmeAMAAYHgAAE5gxF5gFr6sPSnQPiM0EFgHQHBA3AuA8YMsDWF/joPqUzdPZyAxyAzQRVAJId4ADAO2coMg9YS+gMAQ64T/2dP3q59g7AZ4LFgT6fA5wG2M/eF5jj7Q3erv7Of9qEfQA2EywOHOBzgBsA9r7AwAFzfA5wAVBfB2AzweLAAT4H6ADg5gzxvyUW4wAnAA3IA/yZ4AAANgcYAKDmDPG/JRbjADcAdc8DQpngEAAuB+gA4OYM8b8lFuMADYBH25QJjgBgcoABAGrOEP9bYjEO8AHQ7ExwDACPA0wAMHOG+N8Si3GAF4AmZ4JTAFgcYAGAmDPE/5YYlgBVAX4AmpsJzs8A4HCADUB4zpCMs8IBABqcCc4AYHAAAEBwzhD/W2IxDggB0NxMUAEg3QEQAKE5QzLygCAAjc0EVQCSHQACEJgzlDcPQBugsZmgBkCqA2AA/HOGZOQBCAAamgnqACQ6wAGAd85Q7jwAbYCGZoIGAGkOcAHgmzMkIw9AAdDITNAEIMkBTgCWy+4LpOYBOACamAlaAKQ4wA1A6X2BxDwACUADM0EbgAQHeAAouy+QmAdgAWheJggAEO8AHwAV9AUS8gA0AI3LBCEAoh3wKx8ApfcFUvIAPABNywRBAGId4Aeg9L5AQh6gA9DU+wJQJggDEOmAAABl9wUS8gADgIbeF4AyQQcAcQ4IAVBBXyByJ2gC0PR7g7NM0AVAlAOCAJTeF4jNA8yvgGbfG1QzQScAMQ4IA1B6XyAyD7AM0Jq7w24AIhyAAKDsvkBkHmAZoDV3hz0A0B2AAaCCvkDEtwBggJbcHfYBQHYACoBlifcFAAO05O5wceMBPgfgAJB4XwA0QIMdMM0ErypuvJHPARoAnyzjCch+X+A9yACNdcBMALsGAPA54KL6x3jukx//+LeEdcdv74D+X571hGuNngV475z6Oz+7t/FviEwFMASAzQH9zaIBa/Ny898QmTQFRgbgc8CZJgDwzt6WvCO0MDUAlwP6HzYBgA9b85bYzABcDvhTEwB4pTVviSkG4HFAv/9u/T//k615S2xBNQCTAxqggFfa857g0ABHb2R1wCd1//zva9F7gkMDHD3K6oALv6/35//u5Va9KTowwFFOB/Qv1JqAzXcvtutN0YEBDrA6oH/hwo9r7P/L6217V3hgAF4H9Pt/qqkETr7SwneFi6NHDxw9wLsP6K/86cMzNUuFN898+MpaG98WHxngKG8tsNI/2O9f/NVsPe5b34tdD3rWL411j74eMNbFvW19W3wIALsDRh6gTp+3F9QdXpz+YjwjtN7a+QITA3A7YLKODP9DIWA3x0nR8t4UbZoDxgCU4oAjyQ4Q+KZo0xwwM0ApDhgJYDnWAQLfFG2aA6YAlOKAC/00Bwh8U7RpDlANwO6A/kQBR1biHCDkTdEmO0ABgNcBfev5iAgHCHxTtGkO0A3A5oD+mID+kf6F2TaA7AAxb4o21wEaAIwO6EdMny/9/QDOGSNNcYBpABYH9EcGmEBwpD/dBhAdIOhN0aY6wACAzQF9UALUfcCqnDdEmuoA2wAMDuj3VxQHjHcBRyL2AfvlvCHSVAdYALA4YEUjIGEfUMa8wW4foBJQ3HKU3wGTTcB0M9gfbgPo+4AS3hXu8gCdgOKWW9gdcFAxwJG+2RpYjnEAY1+gywM0AopbbmF3wMrB/kp/8NGr3wIXph9/hAM4+wJdHqARMACA2wGj74D+ivot0Fdaw+R9AHtfoMsDpgQMAWB2wMr4O2AiAJ6dYJcHlOKAEQC8DhjXgivTncCkNXhE+RrI2hfo8oApAWMAWB0wLQXHm8DRPqA/3gkur6xk7wt0ecCUgOLmW8pywIgA5cNPOx+wKnPmaN0dUNx8M78DRgroTx2gfA8oG8G8fYEuD5gCULoDoM4AfR+wKnPmaN0dMACgZAdoe8FRYyBmH7Bf0szR5jhgCEDJDjCqAUF9gS4PGANQrgP6K5NqYOKAmH1ACX2BLg+YAlCqA6xiIHYfwP+ucJcHTACoch+wErkPKOFd4S4PmAJQmgNWNASA84KZ+wItzwNmANxcUibY1whQeoNHRPQF2p4HKABU4YCZBEYHBeK6w10ewOcAFYCyHLACZILqSeHuvkBGB2gAlO0AZSfQX+7uC4hwgA5AyQ7QCBg7YLm7L5DVAQYA5e8DjjBkgt19AT4HmACUWwuo28FpICCgL9DiPMACoFQH9J13hrr7ApkcYANQaR6gHRLq7gtkcAAAQJV5wIX0k6JdHpDkAAiA0h2woh4UVEPB7r5A5Q4AAagmDwCuDnf3BSp3QHHrzRU6wFZAfB7Q3RdgcUBx6605HMBTC3T3BdIdUNx6aw4HjCMhJQ+I2Ad09wUYHDAAIIMDXFuB5e6+QMUOGAJQqQNGxwSP9Fdk9gXalgeMAKjeAe5ioLsvUKkDxgBU7oDpX/3kfUB3XyDJARMAqnXAbC/IsA/o7gukOGAKQFUOWIFCwbQ8oLsvkOCAGQA5HMB6Z6i7LxDjAAWAah0AnhCR0hdoUR6gAnBrnr4AcGdIQl+gJXmABkCWvkCfZR/Q3ReIdIAOQNcXaF0eYABQfSa4IrUv0JI8wAQgRyboCAWXu/sCFTjAAiBLJtjdF8jmABuAqh3AmAd09wXoDgAAqNgBUCIkpS/QgjwAAqBaB/R9meByd1+gZAeAAFSaCfbtTFBSX6DpeQAMgKBMsLsvUK4DHADkzgRXuvsCFTnABUC+TPBIv7svUKEDnADkygS7+wLVOsANQKZMsLsvUK0DPABkcIB5d7i7L1C6A3wA5LkvILUv0NA8oHjyVkkOkNsXaGoeUDz5pCQHCO4LNDQPKJ58UpYDmM4JdvcFkA4YfAU8KWsfMHtWsrsvUL4Diluf9AOQKxNkyAO6+wIIBxRPshIg65xgd18gTMAYAIH7gPQ8oLsvgCDg/wEW6g7iesaxdwAAAABJRU5ErkJggg==;" parent="1" vertex="1">
                    <mxGeometry x="273.21" y="280" width="91" height="91" as="geometry"/>
                </mxCell>
                <mxCell id="43" style="edgeStyle=elbowEdgeStyle;html=1;" parent="1" source="7" edge="1">
                    <mxGeometry relative="1" as="geometry">
                        <mxPoint x="590" y="184" as="targetPoint"/>
                    </mxGeometry>
                </mxCell>
                <mxCell id="7" value="" style="shape=image;verticalLabelPosition=bottom;labelBackgroundColor=default;verticalAlign=top;aspect=fixed;imageAspect=0;image=data:image/png,iVBORw0KGgoAAAANSUhEUgAAAgAAAAIACAMAAADDpiTIAAADAFBMVEX///9CiSZAhyRMkyw4gSA2fh48hSJEiyZGjShKkSo+hyRIjyg0fB4yehxYnTJOlSxUmTA6gyBAiSRSly5anzQ+hSJcoTRQly5Ijyo8gyIochYqdBhQlS5CiyZeozYudhoweBokbhROkyxWmzA6gyIsdBgmcBYueBo6gSBWmzJMkSosdhhCiSQwehxUmzA0fBxEjShSmTBipTggahJipzgibBJSmS5gozZmqTpgpTgweBxgpTYqchhKjyoyfBwsdhpeoTZanzJkpzhWnTJkqTpoqzwmcBQibBQocBYeaBBMkyo4fiBkpzpmqzpqrTw+hSRcnzQmbhRGjyhcoTYqchY2fiAgbBI0fh5QlSwcaBAeahBYnzIcZhBorTweahJoqzoibhT5+/gbZg7i7t1rrj79//3v9ez9/f31+fTQ4sfy9+/7/fvN4Mbl7+BUmDS81rHY6NFfnkRYmDxOkTXa6NSHtXGYvot6rmRNkS+bwouUv35nok3J3sKOunimypP3+/XM4ML///3t8+rT5M210qXc6tVkpERrqEy51a3z9/Lr8+djn0uEs29rpFLV5s7p8eZ+sGl6q2nE27qaw4bo8eRbmEbI3r3H3MBjnFKx0KCVvYSnx5tHjCyYwIVxqlX7/fnn8OO30a55r153q2Fioj+tzpxKjy6lx5hChi691rVVlTvf7NjA17dRlTN2rljR48rE3Lbg69yewJNypmBgmkufxY3d6dhxqFuQu36qyp1UkkKuzaGCtWfD2bxanTj3+/eKuHOixpO31KqvzKXX5tKRvXhonlZJizWpy5qRuISyzqi00Kqgw5N0q1n0+fLB2bdbmz+MuHhRkTuItHhzpmWsyqF+s2KDr3TA2rPG3rmhyI2KtHxbnzixz6RtqFGrzJzS5cqOuH5tpVZEiym71q5opUlto1yIuG5alUhNjDteoDydwY46gSSkx5REiSxAhyY/hSg+gyqCsW19rG9KkSwyeh81fCBYmzc5fiVfoTlQlzA3fCRSlzBMkSxAiSZUmzIHqFzRAAAACXBIWXMAAAsTAAALEwEAmpwYAAAgAElEQVR42u2dCVBU2b3/TxN6IAEcU2Ze0Qn1xwgTYeKUU5PKy3tdUZNXla2cek7qPbNV6r2/4Q/IoiwuoKAgrqAoIIobi6IiKiIKilvcUHEFd8dd0RmXKKOOOi/Rev/qBTi/7tvd994+59zbfc4xlcokFeXe/vjp+7vnd35fFCS5Pvroo4+CXa0QuMJ71zDH9c2e9YFtvcXWN6xrkPR6990/RLhYAyTWG+vq72pFYSsWX/1crp9b1nck1qcO659s6z/+42cS6/9Y1k8c17/2rI9drX/rWZ84rH9xuf77v38hvf5dav2/3oUMtAj4athbpQRE9P5yScAAJwL6D+jvmoBY6y96BPxMKQH/+pOPXRDwbx9/0vtLAQG/sP9SSwAyGCg64K1aB0Qoc0B/7RzwM+UO+NijAz5R7oBfqCQAGQwUHTBMrQMGKXPAAO0c8KlyB/zEowM+Vu4Atd8CFgAoOuCtyueACGUO6O9bDvjY03PAJ8od8AuVDrACYNDRk2CvAZQ4YIBPOeAnHh3wsXIHqH0StAGgOwdE8O2AT5Q74BcqHWAHQG8OGMS3Az5W7gC11WAPADpzQATfDvhEhQNUVoO9AOjLAYP4doDqN0LKCegDQF8O8PhGyK8d8IlqByh+DsAAMPjWW2F/doDqt8LK3wfgAAgH6MYBqt4K/4vNAMocAAAQDtDdzpByAhQ6AAIgHKAzByjfF1D6PsABAOEAXTlAxb6A0vcBjgAIB+jIAar2BRS+D3ACQDhANw5QtS+g9H2AMwDCAb6+L6DofYAEAMIBvr0voOx9gBQAwgG+vy8guxaQBEA4wNf3BeS/D0BDDMIBfrgvIPt9ABoyRDjA//YF5L8PQEOGCAf46b6ArPcBFgCEA/xyX0De+wAUMEQ4wE/3BWS9D0ABAcIB/rkvIO99AAoIEA7w430Bj7UACjAIB/jvvoDn9wEWAwgHcHxewGIA4QCOzwvYDCAcwO15AZsBhAO4PS/QYwDhAE7PC/QYQDiA0/MCfQYQDuDyvIAFAOEAjs8L4AYQDuDwvIANAOEAbs8LQAMIB3B3XqAHAOEATs8LOBpAOICz8wJ9AAgHcHlewNkAwgFcnRfAARAO4PC8gJQBhAM4Oi8AARAO4O68gLQBhAO4OS/gCIBwAGfnBVwZQDiAk/MCaFSAcADP5wXQqFHCATyfF0CjRgkH8HxewAKAcADH5wWsAAgH8HtewAaAcAC35wXsAAgH8HpeoAcA4QBOzwv0AiAcwOd5gT4AhAO4PC+AASAcwON5ARwA4QAOzwsAAIQD+DsvAAEQDuBuX8ABAOEA3vYF0HujhAN43hdA770nHMDzvgB67z3hAJ73BSwACAdwvC9gBUA4gN99ARsAwgHc7gvYARAO4HVfoAcA4QBO9wV6ARAO4HNfoA8A4QAu9wXQO+/x4oDxnRn3Levmadu6n2P5p0eP+nO9L4DeeccfHfB6TtWlA1Nb2pfPK8u/Pbu8PLmwGrleYwoTysfNvr20Y97y6VenHrhUNec1N/sC6J13/MUBf884/bz1yayyhXEJ7j5teWt/0abbHbOuTt17ek6sX+8LINM7Pu6AQRmnD0yZVTYxAVFaKUXpW5e3HNiy1i/3BZDJ5KsOiJiTNfVW2ew8xGLNQAhVl9++N33alut+tS+ATCbfc0Dm3Wm3yuISkTYrpfz2rMWXHvnJvoAFAB9yQMPpFbNuJyM9rKKk5VO3/NXn9wWsAPiEAzr31pXVxCN9req4rdP3rvXlfQEbADp3QGbJwaVFSLcrftzWq5ce+ei+gB0A/Tog4+yhuHik/zUj7sriKh/cF+gBQI8OyK49mD8W+dJKWHp1Sz/f2hfoBUBnDnh7tyXXtz78npV3e/oaH9oX6ANARw6YX5mfh3x5JW+det9H9gUwAHThgPCG54cWkf48zhQuKo+bnZ6UWmZZHfNsy/oPZUlJ6bPjygsKSesmftPyvdd9YF8AB0B7B2SsSE0h8KYmIW7m0nvrWqYeeJ5VlZPxWtbucERE55ybp/d+cWTx9BtX8tPHJRN4zzT2s6lr9b4vAADQ1AGriut2eKXdHflp7YsP1Oa8ltgdjvDcIeLUH7C2au+RluVXGuO8+TpKvH11rq73BSAA2jmguL1G5R1elHTvSWtWToPMDpEIJT1C9g6RR1VfLF7Xka52u2n29Lnf0e2+gAMA2jggp32cik++JvdGZUlOhG1n6BueOkR6DaCkR8jSIIJ1iFw/feDqvNsqOIifDTygp30BRwDYOyCzUqn5UzaV1U0qblDXJRah1AHOPUKP1kxdnl+eqPS7AHse0NG+gBMAbB2wfkGuoqe+hNR1Z4uz1fUJ9hpAmQNc9Qk+WrP4ULqi2iFv697v6G5fwBkAhg6Yf1GBThNyn5Rketkn2IsBqV7h2LnTli9UQEHN9Ps62xeQAICRA9afb5T7jj9l4a0FGQR6hXsNQKxX2EZB1VT5+xXVS7/4jp72BaQAYOGAjVNkbu+NWdheMn4YsV7h3odBYg6wNIn1j4p6tHd5urxWxBk1Vx/pZ19AEgDaDujKmSfrXo3NfbwzOyRkGLnzAhHEzwvYILB1iT36Yp08CAqXz9XLvoA0AHQdsDNfzt/8/MriYT5xZigW9Apf39s+W0aBUH2lSh/7Ai4AoOiA2oUyHvjSFjSEhPvImaH+Tr3Ca6ddOePxi2BG/iU97AugaBNTB9RO9FgwTzxYHO7z5wb7rWmf7fG58PYa7fcFUHQ0Owd07Zzp6Vu/ftJGfzk32O/m4iQPLzlmfFal9b4Aio5m5oD5qR5O43Q8z/ars8P9Ytcuvu3+gSA+7b62+wIWANg4oGGP278OiannJ/jj2eF+axenu/sumJG37n+03BewAsDAAcGV7t6XJSa1bvTj+QFzp29ye8LgSD/t9gVsAFB3wF13Gz7lpzL9fH5Av9gth9zUBTPy52q2L2AHgK4Dsm+4/iJMXJoVzMMMkaj/meqmAMq7+qlG+wIoJpq6A+663u0vaO/kaIZI1fJCl3civUqTfYGPUUwMZQesanf11z8+v2QVZ3OEHi12+TSQt1gTB6CYGKoOGLLElfgS63O4nCP0has3oTOWrtXAARYAaDogy8VR3uq0+dzOEtuy1YUTa7awd4AVAHoOOCVdAp9ZuZHnWWJRW65IvxPJO8LcATYAKDmga570ZR6cwP08wblXJC2QKFEN0HWAHQAaDujOTpJs77mxUcwTtHwRSN4ddOg6Wwf0AEDBAdmSTzup88VMUfu6lC51g65cZ+qAXgDIEWATQHd2m8TVLbwrZopiBwSOFKkhgKgD+gAg7IAuia2/vCldYq4wIODRcolHgVksawEMALLPAaudL6wiU8wVdpohsmW28wuBqwxrARwAkg6odH7r+7xbzBaXIOD69P1OtcBedg4AAJAjIMepObZigpgtLk3Az6ucXg8XzGHmAAgAKQK6mhxrv8lBIl/A5TS5tVccCfiM2b6AAwCECJjsSPRdkS/gjoCfT3WcQbCX1d6gIwBECJjg0PywY6PIGPEwVXaNw57JbFY9Qk4AkCDgMbyYtgkiY8QjAVsKPCuAhgOcAfCeAEM5uJSk9QaRM+SZgJtFM/C7tpRRrzAKJE7AqGLw+TdlB4icITnPAVXgi7OaUa8wCiRPAHgEzFsSoNF0eZ9zwBGwd773UyYOQIHkCajHr+OU5eMXDpBFANgfvMrmzJAFANIEgF2ATPv2kHCAZwKO4E8Byz9lcm7QCgBhAhpxAALsBhAO8EzAGrAlxObssA0AsgTcgwAEaJgy41sOAABcZTM/wA4AUQIO4tfR3WsA4QBPBOAAzDjAZoZIDwAkCbiGA/D5EG2TpnzJAS34M8AWNnOEegEgSMB2HIB7WidN+ZADwK7gWjazxPoAIEdAJtjbnq912pzPOOAImH3NaJ4gBgApAroNoOm90SAcIMsBa0GDYDqjmaI4AMQcAA+DngoQDpDjgKWwNZTRXGEAACkCcmGDU0mAcIBnB7TDvsB2RrPFIQCECDjscA5wZ7dwgCcHLHboCDnyczazxR0AIEPACsehj7XCAR4ccHWGwz1bwyhfwBEAIgSUOh0HOy+eA9w5oN8spybqtYwyRpwAIEFAs/OZgBNdwgGuHNBvrfMxwWRWOUPOABAgYJXEofCFS4QDXDjgksQBsYmsssYkACBAQIHUGMjJ3cIBEg64LnU6DG1llTcoBYD3BDRKnnxOXSIc4OSAS3GS96qdVd6gJABeE7DaxVyYulXCAbgDYudsdTFF9AirzFFpALwl4LHLOfCTVwkH9DpgbbvLTMo1rHKHXQDgHQHfuuxmLuqKVcIBVgc8mu5meOhaVtnjaCQNAo66G41bfqdLOKD/9enJ7nJwmWWPo5E0CJjgfi580531nDtgTnuy+7TZfl4RoMABaDQVAjwlpow90cyxA7bcG+Ph/mzt14+RA5CRCgEeg2FQYmqpgUsHvJ6W7jk0aV2/fowcgIxUCNgsJzwtbsXGAN4ccHOdrLDUqf36MXIAMlIhoA78ZXetgdzz6zlywJyW2fLSMmdciu3HyAEWACgQABqDd51yExYzpuL5Uy4c8Ndp+W5uw/7p4Ej12thYRg6wAkCegJ341dSPmt/mNiXwxvYuP3fAowOfuX3uW3q/Hz5V6Uy/2FhGDrABQJyAjWBAxKhR3dfc1wV5FXc2+q0D7lfmuw+ULZgWFTUXVIESJ0cpOcAOAGkCvsSvONlyXuzcag+BqomNk5v9zwH916zb5OELP2/d9aio2L2gCowlQ4AMB/QAQJoAMCZsgnWPeMlmT1GaM8ZdLJ3gRw6YcyTN4zN/9aw51n0B0BO4LjaWlQN6ASBMQAV+Pctsh0ZHNcuoDhObTj6f4PsOeLP2wCzP2bEo8bO59p0h0BQ2NTaWlQP6ACBLwEX8ep5397SL3k2VUwWlLFxZu96HHbD2wKE4OdeZuPWmPX08Kgokql+KjWXlAAwAkgR86zh+PY+xQyPL5lXLKoVTJt44P7/L5xww/vTitLh4WVc4dvl9+8dv2RsEh2nmxMaycgAOAEkCavHrWY1PDxh17lQCkrnGztxzvtNnHDDni3XpY+ReWvn0R/2j7FtDln/D/1qMdT1FhrgDAADkCBi1BBwPdJggsepOE5K/FnVMKe3UtwPe3DzQnpqs4Jpuf/G/cHsQVIGbYokS4NYBEAByBDzFi74i5zlCOReV3C+Exk5Mm1K6UYcOyNg7Zd7C/YqupWDdXKcNQlAFfhYVy8wBDgCQI2ARnhD5VGKW2NMF+YlI4SrIv3h2Z6Y+HPDmfknloYVnlF5CddleqRYhWAVGRTFzgCMAxAgAZx2apWeKbnzchFSs/ZvKdt2p7VylkQPe5OydMit/XIqKnzw+ffEj6R6h5bAKjGLmACcASBFwEn/BU+pyrnDz4x1I5apuqtgz5fz2jGxGDnhdXNL65FBSeaLKnzdx4ZT7LnuEwNnwSx7mCZJ0gDMAhAgA40JXuJstvmRyWzzyZiU35R46Na00J3M9BQeMz6haUNmelhSX59XPmJJUuXZA/3922SUG3hvMiSJPgCsHSABAhIBRL/Aruug+X6B74/Fc7+5vz2v18vT8tBsHV0yqLe5sCFfpgIjMjKqSs4vrZnUkbSoaQ+LHSt7a+sh9nyCsAj3PFCXnACkAiBCwDOTFeE6ZWVW7qwkRWvaj1tWFNU0TU5d2HNqz8nFla2tr66RJkyZlZWVl7bx79+7prKysEst/0do6tXVxy60bh8pyk2bHFRWmIKIrMb19TX+PfYL3QRUYRYUAaQdIAkCAgFHrQfOXvKSpzLMdycifVlHagUeyeoUdqsAodg6QBoCEA/CPsrpbHgHdAQFLzs5b5BcffkJZ5c2INwPeyOoVdqwC2TnABQAECABNQBtlps0ZrP9acv5Ek09/+OXzjtx30SEi7QBYBUZFsXOAKwC8JwAMjd+uOHt8Y8mT/EIf/OwLlj4pua74vACsAmOj2DkA/Z4WAWBi8DXF2eNDhnQPMWwsPZWa5zOf/diFs47cVHdeAFaBcvMFSDgAhdIi4Dx+TXWKs8d7u8W7mp/XVdTo+6NPiSub/sV9L84L4JsJefITJgg4AIVSIuDbn+N3aLOi3GGJU2PZd++caEzQ30cfX5S050jVeC/PDMEqUEHKjPcOQKG0CDgHRt4ozB53cXJ0QvHzKfcmjtXFR39mdtmtaVWve3cIvTkzdAm0iNt7hNg4wAIAHQJG4S/RzijMHnd7crQrs/ZOXf3MgnhtdF9+O236tDWd9o+9Z2vYKweAqO3l9h4hNg6wAkCHANgY/A4ZB+B9gquaa+/UpSU1sTFCwqb8e0+mrcmIkNwd9u7c4Dr8D6q09QgxcoANACoE7MOv6qiJpAMcusSyM3YuqNyVlj+7aD/pB3vL5kJ75YLTGQ2u+wN6DKDeAbAKtLcIsHGAHQAaBOzCr+qyovR59ZOksjtzaietOLhndUdqW1OR4naN+MLypoX5ZYf22DaUImR3iHh3bhCcHbmvNG/QKwf0AECBgDugMdhkoukAlz1CDZ0ZxcW1tc8XnG2d/PhxS7tl7TlkWbfad+3a1d7S0lLZenbS86zau8UZnQ0qe4QivDw7jL/r2K88b9AbB/QCQJ6AC6Ax2GRi5AC3PULWreDgEMsvHZ0dngM7QpVnjnrhgD4AiBMAGoNnmkwaOQCsYcHDgsN1d3bYoQrsz9IBGACkCfgS750qMJn04QALA3qbHzDVsQpk6AAcANIEgJEHT036cIAe5wc4VIH9WToAAECYAHAOsNmkFwfob4bIZ/iN2qsye1ylAyAAZAk4gV9XqckkHODCAS6qQCYOcACAKAGwMdhkEg6QdsAA/FVm9f+qzR5X5wBHAEgSABqDD5tMwgHSDgBVYJzq7HF1DnACgCABIDkm12QSDpB2gFQVyMwBzgAQI8D0FL+wcSaTcIC0A9xVgdQdIAEAOQfgDRwp3SbhAGkH3MIBWKw6e1wdAWgoRQIWgsZgk3CAtAPK3FaBlB2AhlIkIA00BptMwgGSDpjtogpk4gA0lCIB20BjsMkkHCDpAFAF9leZPa6WAAsA1AgAyTErTSbhACkHrAVVoNrscbUEWAGgRIAJJMd0mEzCAVIOWIPfpXyV2eOqCbABQIkAkByzw2QSDpByAKwC1WWPqycADadIgAnvdMkzmYQDpBzQDqpAVdnjXhCAhtMkAIx/mWASDpBywFZQBarIHveKADScJgEOjcHCAVIOgFWg4uxxLwmwAECPgJWgMfgdk3CAhAMKQRWoOHvcSwJQGEUCokFyzCm52eNcOeDNI7BjojR73GsCUBhNArY7NQZr74C7dflNNTVtadMy9eEAWAUqzB73ngAURpOA3aAxONqkuQMmtBdgESVZenDAEfwezVKSPU6EAAsA9AgYhY/cSoiO1tgBqyodZo4k5WjvAFgFKsgeJ0OAFQB6BIDBDk+jtXXAhDLn0LoDWjtgQAesAgcwdoANAGoE5ILG4GhNHZApNXgqvkVrB4CU3bkys8fJEWAHgBYBh0FjcHS0hg5Y7yK7sFVjB+Dj9FLGy8oeJ+mAHgAoEbACv9WTo6M1dICrwKrqnZo6oNO5CmTqgF4A6BBQil/eieho7Rzw3OWR8LhhWjpgi0MVOICxA/oAoEIAaAxOjYnWzAGr3EyebNXyfcA0qSqQoQMwAGgQ8BSf41MjO32euAOCz7ub6DtMu/cBb6bjP8kUOXOFyToAB4AGAQX44OwvCRKg0AG57uaC1Gr4TvAKqALfDGDtAAAABQJm4te3O0YrB2S7nfu/R8N9gXT8B7k5YABrB0AAyBOwGjYGx2jkgBK3k4HiNNwbdFkFMnKAAwDECXiM3+g7ctPniTtgivvRf19ptjf4V/znqJE5W5ykAxwBIE3AC9gYTJYA+Q7Y4344WKZm/QGnwdaEzNniJB3gBABhAkBj8D7Z6fOkHXDCPQB3NesPgFWg7HwBcg5wBoAsAcfwC2yKIU2AXAdc9JBAl5ajkQMcqsAI5g6QAIAsAfixl/3RMRo5YIrHbKelOzVxADg994XsfAFyDpACgCgBYLPrXIxGDiiVMSV0Zkk4ewfAKvAP8jNGSDlAEgCSBIA9mKMxMdo4YL2sIcLjKrNZOwA/QZ84XkHGCCkHoA8pE1AHJwbHaOSACpkjwQ82rGLpAFAFlivLGSLjAPQhZQLAS/hTcrPHSTvAMEn2fPD2TIYOqHKoAiOYOwB9SJkAkByTFkOFABkO6JotP5Q6bT4zBxzA/+BDSrPGSDjAAgBVAkByTFtMjFYOKEXyV2LFTkYOeIL/sS1Ks8ZIOMAKAE0C/obHIifHxGjmgHmKggMaS8JZOOAe/mdO+kMEewfYAKBJAIjEexqjlQO6Vi1Ulh3RdPYr+g4AP9NN5XmD3jvADgBFAsDz97IY7RywcbYyAlDR4/Gr6DpgkHMVyNoByEybAPAW9kVMjGYOMKzvcC77VuS6yx7LuzGfqgNe43/4IlWZo946AJlpE3AcNAbHxGjogK47BfAD7tgYFJSTluLuebBs5zB6DpCsAtk6AJlpEwCSY07GxGjpgKDsU31nlVI6im07RZ173OYTT5z0FS0HuKwC2TnAAgBdAh6AxuDAGE0dEBQUlHOqI31cesWN5xN6mgW6Pmo45TaVdtGUhnAqDjg4Q7IKZOkAKwBUCQDJMYsCAzV2QJf0ucH15+Pcvh88NJ+GA2AVqC532EsHoIHUCSgCjcGB2jtA+uzwqgUTkfuHAfIOmOmqCmTnADSQNgGjG7GLnPEgUHMHuJ4fsLPCbRzx7NZswg7An0njx6vNHvfKAWggdQJOgsbgwEDdOuCj4GD3JQFKaO8k6YDx4K2D6uxxrxxgAYAyASA55k5goJ4dENyVcWO/+52iu8QcEHETNCN0qs0e98oBVgDoEgAag3fFBOrbAV3BG6cUuH1BOPHsW0IOgHvUhYsHaOAAGwA0CRi5DL/KCtnp8xrOEnvrviRABU8ySTggosXh992xhr0D7ADQJOAYXuw2BTIgwPtZYuGT3JYEaMy8YgIOcNqgjE/LYO2AHgAoEmAEkxCjA33BAcHBwcVpie6/CVobvHXAbYndh/bxbB3QCwBFAsBslnOBvuGA4ODgDPeviFHCrgzvHFAk9btuOs3UAX0A0COgHjQGBwb6igOCgxsqi9y3DqWWDFPvgPHSikmZ9ZqhAzAAqBFwCr+884GBvuOA4OBhC9o8tJK3ZKp1wE1Xv2f5JXYOwAGgREAgSI45FRjoSw4IDg7e2eH+YaC6Y6c6B7jpVL7SycoBAABKBIADovWBgb7lgODg4Pk3PJwraTubrcIBLe66kbIYOQANpk8AbAwODPQ5BwQHb5yyyD0CybfmK3bAIXe/YXz7GyYOQIPpExCIz2c5Exjogw4IDg4vSY1HnupCZQ5I8vD73WfhADSYAQFgRNuxQJ90gJxvgjOHipU4YJGnQ0rTGDjAAgB1AkByzDKjjzrA8k3wuMjDh7ZwWoNcBzTM8NiXfOgNdQdYAaBNwC7QGCw3fV6HDrCUhTM9fGhnZt2V54Bi8PrniuRvltRJ2wE2ACgTcAc0BgcyJYB8zlDxSU9nzeNaMmU4YAE4NTkoa5zka4ablB1gB4AuASA55mRgoE87IDg4OLPF0zdB3rydnhwwCEwtOTho0PhbUs0ohSV0HdADAFUCQHJM48hAX3dA8KqvnnuqCVBcS+dbtw4AVeABy97AzXSpN8MHqDqgFwCKBIw04a/SimSnz+vYAcHBIfP3FHo6ZJx0drwbB4AqsMrWIVA5VgYBRB3QBwBNByxyaAz2fQdYTo9nL0j19Bg/pux5tisCQBX42t4iMEfiGTNxGkUHYABQJADcqAeBfuKAkJCQu/M8Dh8q2FMsSUADrsWEvkbBJ85PAilf0HMAimRBAJjTeCEw0F8cEBIS0tDa5LGcj3uS8daJgBzw+gDrFT7tXA6MWUPNASiSAQGhoDH4+MhAP3JAeEh4bVmKx5kjqWcbHAgAESZpoFvceZZFwRxaDkCRLAgA81kujhzpVw4ICQnpPFjkUQN5HQsacAJAFfgEPy8QMajVabr97b9TcoAFAOoEvALJMRWjR/qVA2ynhbLKqj1PIEt7HtFLwCz8fznrcGbotFNnegulfQErANQJ2AC+EY2j/c8BISEhmVPiPE8dOXOvpMFGAHgwrnI8NZbh+Eogbw6dvUEbANQJwE9fp/zN6I8OsKyd8/JkTCLsmDT+gw8+AKGqr53ODY5f6vB/q6fTI2QHgDYBYBjSOaOfOsBaFKTLGUWY25qBPzgmS5wc/bvDQJuUHCo9Qj0A0CVgNEiO+dxo9FsHhISEF99IlsEAeJOcLnV2GE4SR2gdlV7hXgDoErANNAYbjX7sgJDw8OxJqYmK5pGlSZ4ej8iHbYJUzgv0AUCVANAYXGc0+rcDwsPDM1riFAAwXXp+wGv4e9ykcWYIA4AmAaAxeLPR6O8OsKy7ewrkAnCl9o0kAVXgDdMRGucGcQAoEgCSYyYajRw4IDw8/KustDyZCKRMnHVgvjMB4J3gdBpnhwEA9AgYjd+IsUYjHw4IDw9vOJufIvubICFp1oo1nRgBfwfDpNfRmCECAaBHwA7QGGzkxQGWU2OZlRMVPREWxiVdWX6rrqX9XhLsDmh/l8IMEQcAqBHg0BjMkQMsp8Zy6mqQ96vy3XfJOwCNYEPAStAYbDRy5QDLqrpV7i0Apwe9S94BaAQbAq7hV/LYaOTNAZaV8yTOm88/+c2gQeQdgEawIQAkx6w2Gjl0gGXdbVfPwHKJ7HHvHWABgAUB4IDoTKORTwdY1vwpMxPVfP77MySyx713gBUA+gS8CsQvusBo5NYBlpXZulQ5AwcjnLPHCTgA/ZANAaGg0e1LI88OGDZsWHaK0s8/KaInZoSsA9AP2RDwKhc0Bhs5d8B8pZ//7L8OinDOHifgAPRDRuKG+N4AABFRSURBVAQcBo3BI418O6BE4ee/9HU2FjZG0gEWAJgQAJJjjsvNHvdXB1SCraCWMvfbRglTbb2igyg4wAoACwJAcsxho04I0MoBN/C7Me2b3/wgY9KeJBepJTUt1r/+UtnjBBxgA4A+AUaQHJNrNPLtAPBEdLqnW7wzq3JWbtMZvAlk6cG7brLHCTjADgB9Ar4Ep95HG/l2AKiJOrETI994+/bt+Jyq2pJJk7LW5Ix3nz1OwgE9ANAnAGQk/s3ItQPe4mcIxrqYH+A5e5yEA9D7rAgAx17PjTby7IAMUOGpzh4n4QD0PisCnBqD+XXAB1kgvVJ19jgJB6D3WRHwGL/oa0Y9EcDcAStAn4fq7HESDrAAwIaAF86Nwdw6YA9+L1pVZ4+TcIAVACYEgOSYzb838uwAUAXWqs0eJ+IAGwAMCBgOGoN3hP6eZweApoBOtdnjRBxgB4CFA/AOxzxjKMcO+AqvAvO+Ups9TsQBPQAwIAD0xh4L5dgBoArcoTp7nIgDegGgT8Bm0BgcGsqvA0AVWKY6e5yIA/oAoE3Ayzr8si+HhvLrAFgFqs4eJ+IADADaBJzHL3vb0FB+HeBQBQ7T0gE4AHQJeAUOiK6WnT7vhw5Y6lAFaukA9D1mBDwEjcGhuiSAjQOcqkANHYC+x4yA0XgjZEJoKLcO+AofArdfbfY4IQeg77EjAGyCbwjl1gGgCtykOnucjAMsALAioAI0Body64BapypQQwdYAWBEwEX8wktDQ3l1QCt+H26pzh4n4wAbAGwIAI3BK0JDeXXALYkqUDMH2AFgQgBsDH4VyqsDykAVqDp7nIwDegBgQEAoSI5JlZ0+73cOAPPlO9VmjxNyQC8ADAh4hp+ILA/VMwE0HRCOZ0yM+Upt9jghB/QBwICAAtAYHMqpAzpBFShxcpSpAzAA6BPQiF/67lBOHeBQBUoQwNIBOAC0CXh5EjQGh4by6QBYBUqeHmfoAAAAbQJAcsy1V6F8OqAdVoGSBDBzgAMAlAkAjcEr5WaP+5sDQBWY5WKCBDMHOABAlwCQHLMvVPcE0HHAJvwuZIS4IICRA5wAoEnAS5Ac0zQ0lEsHhONTc6uHuZwiw8QB/Z0BoOoAPGx1jHEolw4AVWCTmzlCbByAfsqSgDbQGDyURweE7wQJau4mSTFxAPopSwLq8Ys/OnQojw64A6pAt7PEWDgA/ZQhAS9PgcbgoUN5dACoAle4nybHwAEWANgRcBk2Bg/l0QEgDKzWwzxB+g6wAsCMANgYPHQojw7YAavAEI0dYAOAFQHggGjb8KE8OmAsrAJDNHYA+k+WBITi/bCFw4dz6IBMkKIrY6osZQeg/2RKAOiF2DCcQwc4V4HaOgB9lykBIDmmeTiHDjiL34E9siZLU3UA+i5TAkByTOnL4fw5oE6iCtTSAei7LAl4Cd6CTJabPe5PDgCH5LNkTpen6AALAAwJ2I5f/omXPkUAGQeAMRkZq0K0doAVAGYEmGFjsOz0eT9yAD4JOGWY7IQJag6wAcCMgK/xxuBFYT5GAAEHbAQjkxVkjNBygB0AZgQsAo3BYdw5AFSBuUpSZig5oAcAVgSkgsbgMO4cAMak7FGUM0THAb0AsCHAfAK/AdvDwnhzAEiDXqEsaYqGAzAA2BAA5iPdeRnGmwNAR0SWwqwxGg7AAGBBgLkUNAbLzR73HwekgypQadocBQfgALAgACTH7HvliwR45QC8KzJlveK8QfIOAAAwIOAZaImUnT7vLw5wrgK1dgAEgAEByfh2+CvfJEC9A+6CKjBEBQGkHeAAAH0CYGNwGGcOAFXgDVWps4Qd4AgAdQJAcszRsDC+HHAQv/pKdbnDZB3gBABtAraBxuCwML4ckCZZBWrpAGcAKBMAG4OHh/HlAPAFOD8oWHsHSABAlwCQHFMvO33eTxyAPwInrledPk/QAVIAUCUANgaH+TABKhzQADKB1afPE3QA+jVjAsLwEUljw8K4cgCoAvODvSCAmAPQr1kTAA5GbAjjygGT3FSBGjkA/Zo1AbAxOIwrB5xyVwVq4wALAGwJAI3BL8xhPDkAVIElXcE6cIAVAKYEXIONwWE8OWAhqALVp88TdAD6AWsCPsdvwkmzrxOgyAEJoAr8yFsCSDgA/YAxAWEgOaZRdvq8PzhgAn7p5erT50k6AP2ANQH/wBuDC8y+T4B8BxSDpviPCBDgvQMsADAmoAa/DX/7kB8HdC0AVWDQR3pwgBUAtgTkwsbgD/lxAKwCu4L04AAbACwJMB/Gb8MFuenzfuAAwzxQBapPnyfpADsALAkAyTHHB/oFAfIcMBPuBRIiwDsH9ADAkACQHHNRdvq8HzgAVoFBQXpwQC8A7AgAjcEVZj8hQIYDQBW4SH36PFEH9AHAjICvQWes7PR533cArAKDCBLghQMwAJgRgJsw5ZXfEODRAc/BO9CgID04AADAiAAzeBZ6aObGAY/BLkhQkC4cAABgRABsDDabeXHAascqUAcOcACACQFmkBxz3mzmxQGNTlWgDhzgAAATAkByzKmXZl4cgKfmxa8PCtKDA5wAYEBAJGgM3iw7fd7XHbA+XqIK1NwBTgAwIAAkx0w0+xcBrh2Qg192UhAFAlQ4YBD6JXMCzGZ8XnLehwM5cYCLKlBTB0QMQr9kT8Bg2Bg8cCAfDpiCX/WUoCB9OAD9UgMCwLTM5oED+XAAyE19HhSkDwdYAGBOQB1sDB7IhwNAFZhjCNKHA6wAMCYAHhCdLDd73NcdUIRf9XrV6fOEHWADgDEBMDlmoB8SIOEAUAUWqU+fJ+wA9Fv2BJhBY/DMgQO5cMB80A1toEiAIgeg32pAwMsU7F4kDBzIhQNKcAAOGQw6cQD6rQYERI7Db8bXA7lwANgBmWIw6MQB6PtaEFABGoPNXDgAVoEGg04cgL6vBQEXQWOw3PR533ZAEqwCDTpxAPq+FgQcx08HHTf7KwHAAfigfJRtMOjEARYAmBMwAiTHXJSdPu/LDlgFTsSpT58n7QArAMwJAMkxuWb/JaDPAc0OVaBBJw6wAcCaAJAcM052+rwvOwBUgasNBr04wA4AawLw5pjEV/5MQM+aPAO75McGg14c0AMAWwJGgI2Rh4P9mIAeBZxwrgJ14YBeANgSAG7H55GD/d8BqRJVoB4c0AcAUwLAa7FrctPnfdkB5fgVTzAY9OIADACWBIDkmLpI/ybAslxUgdo7AAeAHQFmcEB0s+z0ed+tBUAVONPAkAAPDgAAsCMANAbvMPs9AQFAefMMBt04AALAjgA8QneMebDfEwDi8h4bDLpxgAMAzAgAg/OfDfZ7Anbh17vAYNCNAxwBYEUACFDcPdjvCQCN0MVDDLpxgBMAjAgAE4MnR/o7AavwpAh0bsgQ3TjAGQAmBESCicGFGwb7NwHdIDJ4jGHIEN04QAIAJgSAxmDU+A//JqA2EVyt+vR58g6QAoAFAS/PAAJmPvNnAkr3g4t9HKAFAS4cIAkACwLAUyBCTcfMfkvA8XhwqfHNAQH6cYA0APQJeH8ZBAAVXvZTB2SfcLjS3ADV2eMUHOACAAYOmOlwX9C+DWY/JKC0wPE6d6rPHqfgAFcAUCfgp8sSHW5MYuHx0f5GwJIOx48fbbZvEOrEAS4BoO+Ai073Bi26/NKfCDh3ItHpEgs3Wj58/TgA/V+tCBjxjyZnAlDTi1d+QkDAuZX7na8vsbSvRUAXDkC/0oyAHz5MliAAFU1+ZvYDApbdq5a6ulPeZI/TcAD6lXYEvL9sjNQ9QmMO7/ZxArpLkySvDB3u9iZ7nIYD0K80JCDy6Fjp+4TarllKAh8loHllgYvLWt3tVfY4DQdYANCMgBHvNxe6uFUoZd+FV75IwITjba4uCT3xMnuchgOsAGhHwIiHO1zeLlS4+sLXvkXAhGu51S4vp/pst3fZ41QcYANAQwf8ox65WWP2Xd7gKwQsWTEz0c2ljDvqbfY4FQfYAdDuOWDE+y8K3SGAEhsnL3updwKebq/b4fYqUP16r7PHqTigBwANCYjcUIE8rLH7ru3+UK8EfGvZ5NQxHi6gqJRA9jgVB6Afa05AZOSICzXI4ypYfe3BK70R8OXR4x3JHn/0lIvruwlkj1NxAPqxDggYMeLl5DNIxtrfeOrCBr0QcK505cxqOT91xRIy2eNUHIB+rAMCLP0Bz7aNRfJWTf3kzx9qS8C5C4/ra2T+uI3bRwWQyR6n4gALAHogIHLEiA3bCuXdUsuzdmHqyssPvmZPQHfz5V2pyUj2atxOLHucjgOsAOiDgMgR/7hWgxSt5MaLxy88+JoJAU+Pnq+rb0pR8uMl7jsaQC57nI4DbADohIDISPOFfYlI6Upp2ld37ULzsVAqBBxrvnCtrn7HGMU/VsHKzACC2eOUHGAHQB/PAdYzQ8e21SB1K6WmcfWpaxeW7d4Q6jUBX55btv3845O5TXkqf5Z9pd3vjSKaPU7HAT0A6IiAEeYHKxchr1ZiQVNq/eFtd16UHl324OGGZ54JCHx6bnfz5xdeXJu8a3XFxEVjvPvzmyZPIJ49TskBvQDoiIBI8wjzMpc7aqpWYVFcW1tbbm5ubn19ff2Jw4cPr66vr9+Xm5ub1Na2Y1zCGIJ/1rhdR6lkj9MhoA8APREQGTki0rzs4jjkc2vi42Za2eN0CMAA0BcB1nXscn2h73z4iTMnL/k2texxSgTgAOiNgMG2B4LjFSk+8OmPO1F6zPRtitnjlAgAAOjQAVYQnm3flpqn4w9/x8XSY9SzxykRAAHQKQHmSLP55YNrq2v099nnNa58MYFJ9jglAhwA0KsDejJHL2zbrBsKUiaeON88iln2OCUCHAHQNwHmwZHmgc+WXTvcNkbTz75w5ok7R79kmz1OiQD0O58iwNYtbh448OXuC8dPNCYw/+jHLjxxfPs5LbLHKRGAfueLBPSuZw9ebEtrY8FBYVt93fnPz8VolT1OiwD0O98mwJY9/vXuzy9vO5laQ6FeLNix78TkF83HRmqcPU6LAAsAPk1Ab5+g+UOz2Xxs9+cvjtedrNhRkOjNp36mpq3i5LY7F5Y9HGX5yEfqIHucFgHoR35DgGWZwyz/+aVlS/jZwwdHL1w+vm3X6s25M9vGLUp22b41NmHcjrbcffWHL247fvnCst3H/qbD7HFaBKAf+RcBzj1CL1+G9vQHPNuw4djDhw8fPnjQ/ODBuXMPzz3dsGHDl457g4G6zB6nRQD6kd8TADtEXoWGho62bwu/euU72eO0CLAAwBcBPpo9TosAKwCCAH4dYANAEMCtA+wACAJ4dUAPAIIATh3QC4AggE8H9AEgCODSARgAggAeHYADIAjg0AEAAEEAfw6AAAgCuHOAAwCCAN4c4AiAIIAzBzgBIAjgywHOAAgCuHKABACCAJ4cIAWAIIAjB0gCIAjgxwHSAAgCuHEA+i9BANcOQP8lCODaAehPggCuHYD+JAjg2gHoT4IArh1gAUAQwLEDrAAIAvh1APqNIIBrB6DfCAK4dgD6jSCAawdYABAEcOwAKwCCAH4dYANAEMCtA+wACAJ4dUAPAIIATh3QC4AggE8H9AEgCODSARgAggAeHYADIAjg0AEAAEEAfw6AAAgCuHOAAwCCAN4c4AiAIIAzBzgBIAjgywHOAAgCuHIA+qMggGsHoD8KArh2APqjIIBrB1gAEARw7AArAIIAfh1gA0AQwK0D7AAIAnh1QA8AggBOHdALgCCATwf0ASAI4NIB6M+CAK4dgP4sCODaAejPggCuHWABQBDAsQOsAAgC+HWADQBBALcOsAMgCODVAT0ACAI4dUAvAIIAPh3QB4AggEsHYAAIAnh0AA6AIIBDBwAABAH8OQACIAjgzgEOAAgCeHMA+osggGsHoL8IArh2APqLIIBrB1gAEARw7AArAIIAfh1gA0AQwK0D/j9Rpw963JzdBQAAAABJRU5ErkJggg==;" parent="1" vertex="1">
                    <mxGeometry x="640" y="138" width="92" height="92" as="geometry"/>
                </mxCell>
                <mxCell id="19" style="edgeStyle=none;html=1;entryX=0.626;entryY=-0.011;entryDx=0;entryDy=0;entryPerimeter=0;" parent="1" source="10" target="5" edge="1">
                    <mxGeometry relative="1" as="geometry"/>
                </mxCell>
                <mxCell id="10" value="" style="shape=image;verticalLabelPosition=bottom;labelBackgroundColor=default;verticalAlign=top;aspect=fixed;imageAspect=0;image=data:image/png,iVBORw0KGgoAAAANSUhEUgAAAgAAAAIACAMAAADDpiTIAAADAFBMVEX///88Ss9CWNs+TtNGYuVCWt1EXN86RMk6RstEXuE+UNVAVtk8SM04QsdGZOc4QMVAVNdAUtdIZulAVNlIaOtCVts2PMFGYOM8TNE+UNNAUtVEYOM2Or9Kau0+TtE0OL1KbO9CWN0+TNE4PsM0Nrs2PsM8TM9McvNMcPE0NLsyMrk0Nr0yMLdCWt9McPNOdvcyNLlKbu9KbO1IauswLrU2OsFKbvE0OL82PMNMcvVEXOE8Ss0+UtU4PsVOePkwLLNOdPVIaOkyMrdQevs6SM1OdPc6Qsc4QMdIZucyMLVMbvFMdPVEXuNQfP06SMtGZOVOdvlIZOcwKrEwLrNCVtlIau0uKK82OL8uKrFCXN86Qsk6RslQePvZ3fcwLLFQePnb3/nZ2/XZ3/lQev3b4ftSfv8wMLXX2fORo/GPneyRoe+Pn+2LleMuKq9Qfv/9/v+Pm+qNl+Vkb9q3xPext+v19v7Z3PeNmefZ3fpfZNBtifGxtemLlebc5P1gZ9Hn6fq0ue2vs+eNmumPofCxuO6vsedsh+/Y2fX7+/9ibNfs7vv4+f6xs+mxtetgaNNui/NhatVeYs1FUdC3xfny8/2Mk+PAxfHw8fvU2PYuJq1EVNXQ1PTM0PR7huBSY9qdpedQfP/JzfJHWdltdtl+i+OrsuxhbtpPWtP5+v9ibNZRXtVMV9B4gt67wO4/TM5teuBzfd2SmeNldN6ste7EyfFeYM2Yoenq6/qgqOpIVtRWYtZBUNPj5/uHjuCorupIWNVYaNtQbOiIkuLW2/i7x/jS1fSWneXf4vji5Pi1vPBvgeSgrO5PYNpeb96kquiTp/XK0viDjeKOl+ZbZtU/Ss3Fy/R3j/DAy/nu8f7d3/dYePBdfPJnb9eMovZlgvA+ScxZYNCBl/Jdadc8SMu8wvFCTs3P1/rY4P08RsuIk+VZbuNDTs5TdPFMbu9Yad2Ypu5keOVKXtqpuvivvvlMXtmAj+fT2/tATtFUcu1KXNlCVNU8RslCUtVIZOU8QMFKaOk6Xw1fAAAACXBIWXMAAAsTAAALEwEAmpwYAAAgAElEQVR42u2df5CW1XX4rxpcGlE3mcw6u93uZtgF0XG+AWPzzzJflc4wmE5xlB13OjuYkOm3tk3IVhO0P2hIG6sbiDHd8kv5NYgKYfmlUkBBBCNEUyQypihqRN1gksb9JrVEK2/EzvP+fM695/lxn3vuPfu+z73bdDKJ6Jv3+eznOffcc88RbcXVHLEuCK/e6joXX+Pw9afn4+v38PX7tXVJaH0MX9fDdVFp3XDDLGl9srSuldeniuuzlfUHcF2JrE9/+tPT5DVl2ujo6Oen4OvSiPXHwbpGWZ/B1/+V1hdK648i1p/g66tf/er/A0u0IQT0Vn/SEzDu3HEYAeePO1+PgEsMCLjh+lk6BHzq2s9e+1kNAqZdOVr8AQR8ftqUaVOCf5OWgGuqP2kJ+ELxR4uAP0lNQAWACAf06jhgXIQDzm98BwQQTNF1wDVaDviCHQdUAcAdoPcWiHDAuMZ3wLQsDrhUywGfseOAGgBtuAG0HBC8CPDXQIM7YEoWB1yj5YAv2HFACADMAXqR4DiiSLD+HDAtiwMu1XLAZ+w4IAxAG24AHQeMy6kDpmRxwDV6DtCOBFM5AACgOoBrN1hvDpiWxQH6u0ELewEIQBtuAO8AKw64Rt8B9HGABIDsgGbvAHsO0M8IWdgLyAC0NUekhLwD6B2gmxGysRdQABg7WeGGd0DIBXx7ARUA7wDnDuDcCyAAeAc4dsA1nHsBDADvAMcO4NwLiOlt3gHMDriGcy8gpk/3DuB2gG4+gHIvIKZP9w5gdoBuTpB0LyA+Pt07oB5zglR7AdH6ce+AOswJku0FRGurd0A95gSp9gKitc07oA5zgmR7AdHa6h1QnzlBmr1AYADvgHrMCRLtBYoG8A6o15yg+V6gZADvgPrMCRLsBcoG8A6oz5yg+V6gYgDvgHrMCRLsBaoG8A6oz5yg6V6gZgDvgHrMCRrvBUIG8A6o15ygyV4gbADvgPrMCRrtBYABvAPqtU4wexwQAOAdUO91ggZ7AckA3gH1mRPMvhcoAeAdUN85QYO9gGIA74B6zQlm2wtUAPAOqPecYMa9AGIA74A83R2uAeAdkMu7w6gBvAPyc3dYnNfqHZDnu8PivPO8A/J8d1icd553QJ7vDouO87wD8nx3WHR0eAfk+e6w6OjwDsjz3eEAAO+AHN8dLgLgHZDfu8MlALwDcnt3uAyAd0Be7w5XAPAOyOnd4SoA3gH5vDtcA8A7IJd3h0MAeAfk8e5wGADvgBzeHQYAeAfk7+4wBMA7IHd3hyUAvAPydndYBsA7IGd3hxUAvAPydXdYBcA7IFd3hxEAvAPydHcYA8A7IEd3h1EAvAPyc3dYTOzwDsjz3WExcaJ3QJ7vDouJE70D8nx3OADAOyDHd4eLAHgH5PfucAkA74Dc3h0uA+AdkNe7w2LyRO+APN8dFpMnewfk+e6wmNzhHZDnu8Ni8mTvgDzfHRaTJ3dM9g7I793hwAAd3gH5vTtcfAX4OCC/d4cDACb6OCC/d4dLBvBxQG7vDpcB8HFAXu8OVwDwcUBO7w5XAHAUB/Q+/+Cu55avXjmXaH3Jzvoz8IP9BSTrH8o/YL39wkvv/vTed1zdHa4ZwH4c8P//eucK4VeqNfDzd49fOurg7nAIALtxwOk7Dg3456pBgBAvv/t39u8OhwGwGAes3bPUP9MM6+dvfs7y3eEwANbigNMPLfHPMqMI3rvX7t1hcY6kAAsOWLPbP0gDBF561ebdYXFOdgLSOeDIav8QzQh4+U2Ld4fFORIB1HHA9sX+ERoj8N/vWMsJBgCcYzEOuMOH/hTr7Vds3R0uAmAvDtjlnx3N+odXLeUESwDYigMe80+Oau1+1U6doOhBCKCKA/b450a39r36ORs5QdGjEkAVB9zhnxrleu8dGzlB0bOt5xw7ccB27H/F4KE9Dz565AG20+ExfzY4+srrx3/8Epo3fcZGTlD09PT0WIkDjiD7v5ULT8Pj4fQEBIfD5+KHw41SH1AsDrjyyis/P2V0yvFnNqlf308t5AQDA2yzEgesVz7/qu0XKMfDOg4YF+GAhqoPKFeITJn26ruD8he45PVLyXOCRQNYiAOaj8mffvFvkQIRvbdAhAPGNZIDQhUir7+thAFTyHOCAQDbLMQBH8gvgFVrz2AFInoOyEGNULhKbPTHchrtp+R1gmUDkMcBD0mf/M5mqT6gagCtOKDh6wRBldjolOML4Nf48jvUdYIlAMjjgLXS+e/+6XiVmK8TRCPB0SoB90r7gX//P8R1glUD0MYB+9Xff4WAqgF8rTCyG6y8Be5dIimAuE6wAgBtHPABNNfq5qhKUV8rHL0bLBPwU/i79OMptHWCIQMQxgELYfy/NqJOsNffF0jYDQZl4v8Ki8SI7w7XAKCMAw6Bz3zM3xfQdkBoN/jOy+DbfJ327jAwgHEcUBbAAbB7WeXvDOk7ILwbhC+Bd6eQ3h0OA0AWB8BToO3+zpDZnaHRfaAyYBrp3WHJADRxwHKQ//f3Bk3vDf4Y1Ie9Qnp3GAJAEwe0gfs/C/29QVMHvAO2gm9eOm3KKNndYTGhJ9EBunHAW+GPu+kDf3fY2AEvhb/R/55CeXdYTJiQxgFaccAaEAL6u8PmDgBh4AufK10dprk7LCZMSOEAPQJAJege3z/A2AGjr4LaMNJ+ggEAE4jjgDvDH/dB3z+AwAHhzOrgpZX2ARQ5wSIAxHEA2AQ87HuIEDjg5+Gv9BXKfoIlAGjjAFALdNr3ECFwwAvh1NqrlP0EywCQxgErwwDc3+r7CJnWCY5eCbYBr1P2E6wAQBkH3B7+tK1tvo+QuQPAgdC9o4T9BMXIhNQOSBsHQABafS8xcwdAACj7CYqRER0HpHoLKAbwDjB1gAoAVT9BMTKi4YB0BKgG8A4wdECkAYxzggEAI8RxAGIA7wAzB2AA0PQTLAJAHAdgBvAOMHJAjAEMc4IlAGjjANQA3gEmDsABoJgxUgaANA7ADeAdYOCAWAMY5QQrAFDGARIAbb6vsLEDvhYBgHlOsAoAYRwQZQDvgMwO+Fq8AQxygjUA6OIAGQDfW9zYARAAyhkjYvZIBgfEExBtAO+AjA6QACCcMSJmz87mgJg4IMYA3gHZHAAA+DvKGSNi9uxMDoiLA1QAvAMMHQANQDljJABgNnEcEGsA74AsDoAGGCWcMVIEgDgOwADwDjByAARAmTJjkBMU42dnd0BEHJBgAO8AfQfIBhglmzssxo/P7ICoOAAHwDvAwAGKAa6kmjssxo83cQD6Fkg0gHeArgNUA4wSzR0OABhPHAcAAPy8QQoHIAa4kmbucBEA4jgAAuDnDRI4QAIg3EfIMCdYAoA2DpAA8A4wdwBqAJK5w2UASOMAAICfOUrhAAUA0EfIJA6oAEAZB0AA/NxhAgdEGIBg7nAVAMI4QALAO8DcAQgAozRzh2sA0MUBMgDeAcYOiDSAsQNE/3gKB4C3gAKAd4CpA1AASGaPi/5+AgdAAlQAvAMMHYACMI3CAaK/n8YBoTgAAcA7wMwBcQYwc4Do/wWJA8JxAAaAd4CRAyIAIHBAYIB+4jhgHgaAd4CJA+INYOKAAIBfEMcBOADeAQYOiATA2AElA9DGAREAeAdkd0CSAbI7oAQAbRwQBYB3QGYHQACie4rqO6BiAMo4IBIA74CsDpAA+AM6B1QAoIwDogHwDsjoABkAOgfUDEAXB8QA4B2QzQEKAGQOqAFAFwfEAeAdkMkBKgBUDggbgCoOiAXAOyCLAxAAiBwQBoAqDogHwDsggwMwAGgcIJr6yR2QAIB3gL4DUABIHCCamsgdkASAd4C2A3AAKBwgmprIHZAIgHeArgMiACBwQAAAtQMAAJlmj3sHSA6IAsDcAUUAiB0AAZjoHWDugEgAjB1QAoDWARIA3gHmDogGwNQBZQBIHSAD4B1g7IAYAAwdUAGA0gEKAN4Bpg6IA8DMAVUACB2gAuAdYOgACEDqmaMpHFADgM4BCADeAZkdUFQAAOCu9DNHkx0QAoDMAQCADLPHvQMUB8gA0DkgDACVAyAAk70DzB2gAEDmAAAAkQMgAB3eAeYOUAGgcgAEgMYBkgG8A8wdgABA5AAJABIHSABozR32DkAJwACgcYAMAIUDZAN0eAeYOgAFgMQBCgAEDlBeAT4OMHUADgCFA1QAzB0gAzDRxwGmDoAA6M0djncAAoCxA1QD+DjA0AESAJ+icwAGgKkDEAB8HGDmABkAOgegABg6AAPAxwFGDlAAIHMADoCZAzAAfBxg5AAVACoHRABg5ADcAD4OMHAAAgCRA8TMJnIHRADg44DsDoAAaEycTHSAmDmT3AFRAPg4ILMDJACupXOAmDmT3AFRAPg4ILMDJAA+S+eAAABqBwAA9KfPeweoBMgGoHOAuHAmuQMAAMuWfUVjLVy48Nbo9SBCwB34+qfKQgj4bfW//Ke/Vtdfaqwvp1l/lbz+Imm9JxuAzAHiwgvJHQAAoFy3Iw5I+jOIA+aK+l536c4ej3OAuPBCcgeMPQAgAfUPwKfoHBAAQO0AewBMzwoAIKBBDEDjgCIAxA6wCMD0rACECWgEAMgcUAKA1gE2AZieFYAQAQ1jAAoHlAEgdYA9AJDdYGoALmgwAIgcUAGA0gH2AEDyAekBuKABDWDugCoAhA6wCIBKgAYAFzQYACQOqAFA5wCLAKhZYR0ALmgQAD66ls4BIQDIHGDTAIoDkv4MkhVunFcAgQPCAFA5wKoBZAckAqAS0FAxgKkDAABEDrBrAMkBSX+mVyWgkQAwdgAEgMYBAICnn356WWgZnQw9iJwOg78AORVqVs8GQ4dBYI3hkyF4GDTrWjoHSACQOAAAENtTdDLB6fAn2pprP+rqZakPID4dvgEeB+vOHo9zgAwAhQMwANLOHY4lQLdCpLf4+OuwPkCpEIEAzNKcPR7nAAUAAgdEGKDHnADdCpGKAeqsRkh1gGwAOgeoAJg74FD4076vN3eY3AHN9VkjJDngmfBX+voszdnjcQ5AADB2wPrwpx3WmztM7oDeuqwTlBxw0Qvhr/QV3dnjcQ4QF19I7oDl4U/7lt7cYXIHNNdrnSBwwN8MhL7Sgx9pzh6Pc4C4+GJyB9wTBmCN3txhcgf01mmtMHTA0tA3OvCR7uzxOAeIiy8md8DhMADr9OYOW9oL1LkDXgl/o/u0Z4/HOUBcPJPaAb/YEv64q/TmDlvaC9S5A74c/kZf0J49jhNQUkBgAGoHvBj+uINDWnOHvQMwB7wU/kbf1Z49HueAAABqB5xcAXLBWnOHvQMQBxxcEP5C39SePR7ngJIBiB0AtgErteYOewcgDvhW+Psc+B/t2eNxDigBQOyAZeDwaoPO3GHvANUBs/aFv84/0589HueAigFIHfDEAAwDNeYOeweoDvgW+DrfvUh79nicAyoAkDpg/CqggGMac4e9AxQCDr4M3gCv688ejyOgZgBKBzwJAFi8cYKPA7ITAA6CxN98qD97PI6AGgCEDugZAmGrWL1tgo8DMhIAcwBC/EWG2eNxBIQNQOiAo/BT35N67rCPAyQC7loCvsmXD2aYPR5HQBgAQgcMw48tjk7wcUAWAj68ayn8In+dZfZ4HAHQAHQO2C8VMt6zzccBGQg4Dt+lYvHBT2aYPR5HAASAzgFDuyUCVm30cYAuAbN+PSh9i29mmj0eR4BsADIHrJGLmRcfO+njAC0CfvO2/B2+PWtWltnjcQTIAFA5YGRkp1LPvmqDjwNSEzDrP9/dJH+BS36TbfZ4HAGqAYgcMDK8W73SsPLpIR8HpCHg+uM/26R+fd+66JOZZo/HEaACQBYHbBhEbrUMHlq35nvDQz4OiCLgkoO/Of7rl5ZiN4K+dtFF2WaPxxGAGYAqDlgm/MqyBvD/+L2PPsw4ezyOAAwAKgf0r/MPk46KfQexGyPGDsANQOWA/f7BUa1F//Nh5tnjcQSIrostOgDWh/qVfX2x9PxvIHeA6Oqy6oBlg/7hEawXDn74YfbZ43EEiK4uqw7of22Rf3zG7//nPso6czTRAQEAdh0wvNM/QbP18nHD2eNxDigCYNUB40d27PYP0eDX/5n//NBk7nCCA0oA2HXAyND+Jf5BZlxv/+gi49njcQ4oA2B3LzB79vC6pf5ZZlg/OP6xi4xnj8c6oAKAXQfMnj176MlVA/6Baq3Fj/3m+ksoZo/HOaAKgN04oHhdYPOyrSv8Y023Bt976K7rqWaPxzmgBoB1BwSXxk4+sePwP25dv2pedYHjznnx6/bsa67j9aWYBQIi5b99+z+e+fcvv37w9z92Cdns8TgHhACw7wCss3T4y5hnr5cY3dnguMoPdjac6nT4S+H/zfjZYESRiAUHhAGw7wCEAAjAtp76qBEyOh2OAMDe7PE4BwAAOBwgGWBbfdQIBQo4Fy8QSSYAAOBi9nicAyAADA6QXwH1UiOEE1CEIIkACMDv8TpAAsC9A1QD1EuNUIQDkt8CAAAXs8fjHCAmdfE6ADHAtnqJAzLWCUoG4HWAmDSJ1wEKAHVTKzwuayQoAcDrADFpEq8DEAAavVZYMQCnAwIAWB2AG6Cha4UVADgdUASA0wEoAI19ZwgxAJ8DSgAwOiDKAA18ZwgBgM8BZQD4HBABQCPHAagBuBxQAYDNAdEGaNg4AAWAywFVALgcEAlA48YBEQbgcYBomcTrgDgDNGgcEAEAjwNESwuvAwAA+eghEmkADgeIlhZeB0AActFDJBIADgeIli5eB0gA5KGHSIwB3DsgMACrA2QActBDJAYA9w4IDMDqAAWAxo8DYg3g2gElAzA6QAWg4eOAWAAcOqCogAAAVgcgADR6HJBgALcOqBiAzQEYAA0eByQA4NYBJQAYHQAAGJmg4YC6jQMSDeDSATUDMDkAAjCS3gH1GwckAuDSARUA2BwgAaDlgDqNAwAALqbPxxEQNgCLA8Jfxt0jIzoOqNc4AAJwPq8DagAwOUABoPHjAAkAXgdAAzA4QAWg4eOAuRIArA4IA8DiAASARo8DFAA4HSAbwLkDMAAaPA5QAWB0AASAwQEoAHxxwPI9a607AAGAzwGqARw7AAeAKw54fkAMrF5j2QEYAGwOkAFw7gAAwOyRTA6giwPuLH6OfbuO2HQACgCXAzADOHUABGB2FgfQxQEfVGY0DS7/kT0H4AAwOUAFwLEDJAAyOoAoDrgj9GHmLnzAkgMiAOBxAG4Adw5QAJjNGQeAR7PktCUHRAHA4gDR3sLrAAUAxjhgO+jU9pytOCASAA4HiPZ2XgcAAMbPzuoAijhg+lYAwKO29gLRADA4QLS38zoAAjDewAHGccBp0MBvnrV8QAwA7h0QAMDqAAmA7A4wjwN2AQH80lZO8Pw4AJw7oAgApwNkAMbzxQHPhj/L0gesnQvEAuDaASUAGB2gAMAVB0zfAgTwkL1zgXgAHDugDACfA1QAuOKAnaCb+fP2zgYTAHDrgAoAbA5AAOCJA9aC8VarLZ4NJgHg1AFVALgcgAHAEgfsAW+AB5vt1QckAuDSATUAmByAAsAQB5xZDGY19FqsD0gGwKEDQgDwOAAHwH0c8CAQwJ4zFmuEUgDgzgFhAFgcAADoH2/ugIxxwGowqeuAzRohAADt7HF9BwAAOBwAAeg3csC2dbdmjQMOgC3ATrRKbOHyB0gcAADQmj5vwQEQAAYHAAB+0W/igKGtYmBNxjjgIfAG2ILUCbb9aFCsPELhAAjAOF4HSAC4d4BkAAMHDK8KznAf3ZYlDngKTLNahFWKPh8Mvtv3PIEDIADn8zpABsC5AyQAsjtg84ni32PFi1nigF8CAexCaoXXlmYgr9hu7gDJALwOUABw7QDFABkd8FZlPu2+jRneAivDH2PTERWAB35Q+S9/e8bUAbIBWB2gAuDYAQoA2RywozaZ9O77dQn4+G1AAD9Tq8XP1CZgD+wxdYBiAE4HIAC4dQBigAwOeDKcx935vm4+4E4AwHb1vsBjoFSo18wBMgCsDsAAcOoABAB9BzwCp9J+XTMf8NSC8J/+oVotDisFxOoPjByAGIDPASgALh2AGkCPgG33yINXd+llhR8Bf/gOpVp8jTz1+MQBEweoADA6AAfAoQNQALQcMLRTmbw7cJsWAT8M/9kFH0i1ws1rlyj/gEXPGzgANQCXAyIAcOeACAOkJ2D4kPr812mdC8Bi4DtblfsCvxxU/hEL1mR3AAYAmwNEXzuvAyIASO2AJ55VJ28f0zsX+BksBkbuC/xoqfoPuSOzAyIMwOMA0dfH64BIA6Qj4LXF6i/nDr3T4c2bwn96ZelwQCLg+UXqhPfHQgbQmjeIA8DkANHZx+sAAID27PEt6ut58bc16wNgiH+skh2GBKydpxKw/IFs8wYjDcDhANHZyesACIDm7PEn1Zfzic2a9QF7wS/3iqemlwwgO+ABNdQsng1lcEAUACwOEJ2dvA6QANBxQM869ZmsfnybZn0ALAbeHzojhgSceUz9p+17PoMD4gzg3gGis53XATIA6R1waiti5V9pV4n9h1QJUq4QQm6PHx5Q/nnB2ZC2A6IBYHBAYABWBygApHXA0Hr1+T+0TbdOsPUJ8FTXw0oxmA/4xINqxLHpt/oOiDWAawcEBmB1gApAOgdsVKOygVtPFufPa9UJHgV/izXVp492kHh0hfoP3aO9F4gDwLkDSgZgdAACQBoHvKXuy5as6ek5BycgOg7YC7aRu38n14pCApoP/FDVTvFsSMcBCQZw6wDRWVIAmwMwAJId8Jr6q7hiQ+10MP1bABYDr6s9/4guMqdXIYHnaT0HxAPg2AFlA7SzOQAFIMEBJ5Ht/6IXq49fJw4Az3NwbXIXmV4k9PziAS0HJBrApQNE+fGzOQAHIN4Bj6jh+N0bM90XeAv8nZbvTdFJqnmP+k9f/GhNAckEJAHg1AFVA3A5IAKAGAeMHFV/B9cPZbsvAIuBd2B3xtRuclFnQ+WLI4kEAAC0Z48TO6ASBLI5IAqASAdg2/9vbst2b/B+cMizb2/KbnL42VBZAMlxAATgXF4HhAzA44BIAHAHjAytQk5/s94bfBr8fQ6DStEYB/wOPRvqrRggyQHwFXAurwOAATgcEA0A6oDNyOnv05nvDYJcwpKNrak7Sq69HT0bKiogcS8gG4DVAVUAuBwQAwDigO/uRk5/M98bfBTu51ulavG4OAA9G1pbMUC8A2QDsDpAMoB7B8QBoDhgwwI1AP9+9v4Bz8FKEK2ushFnQ73NyfkA1QCMDggBwOOAWAAkByCnvz/cnL1/wFMgmzAXuTES54Bm/GyoNzkfIAFwLqsDFAO4dkA8AMAByDd+aNigfwAsBv6Kbmfp5oizocScoAIApwMAABwOSACgRsDId7DTX5P+AbAY+HH01licA9oeXYycDSXnBDEDsDkAMYBbByQBUCHgFBJ17T9p0kdoBzxJ1u8u39x84FnsbCgpJ4gAwOcACQD3DkgEoETA8N3qL9thoz5Ck5eDv9vDUTdHYx2AnQ2t/6+EnCBuACYHoAZw6YBkAAIC3lB/1TatKRj1EdoMIspVGafMRJwNxeYEUQC4HCC6O3kdkAKApn709HfErI8QLCg8FnN7PNYB2NnQogOxOcEoA7A4QHR38zoAABDRR+h7C5DT337DfoIgm7t4b/ZJU8jZ0NzeuJxgBAA8DhDd3bwOgACgBJxU/T9v2LSfICwGPhrfQSLWAWeQs6E74nKC0QZgcIDo7uR1gAQARsAW5PTXuJ8gKCkdeMJo2px6NrS6udZDQCEgEgAOBwSvAFYHhL+MW9AeIoWvK6e/J437CcJi4J2JXWTiHbB2rhyh1AygOiDOAM4dUDQApwMAAHgXGbn+e3mhMGLaUxQWlWwxnDh55k7pIy4FXUUlAmIAcO+AogE4HQABwAiYKe+0Bh/p7zfsKboXtoV7P0UnqRgHqEeDPwgbQHZAvAEcOyAIArs5HSABgBHwCJICNOwpegw2FHnfaNrckZXKB1wX11c4FgDXDigbgM8BMgAqAf3D6i5w+SkzB4CmEoOb03WTwx1w5sA+9Yz6g7i+wkkGcOqAqgG4HKAAgBCwTCD7wBEDB3wbtoWbbDJtbruapFqyPba3eAIAbh1QBIDTASoACgGFAnINeNF3DRwAu0ptSN1REnEAcia84tH43uLJBnDogJABeByAACATMLO/CSkFWbCjkNUBQ7AtXIfBtDmkRgE2kEIcAADQnj1O7IAyAFwOmIkCoDigv2mDmm0bWJbVAfCVcqtOX2HogDbkIOAHR5LmC0AAenkdAAzA4QAUACQO+NtFWD1ANgeAkt4lj3dMzuiA+3+mfqadyfMGJQB4HVDbBjI5AAcA2Q0O3yKwzYC+AzpeU9uKZnLA6UNY56jkGSMyAKwOkAzg3gERACAEnFquft+3DGs7oKcHJpZuyzppCikHGtiVZs6QAgCnA8LbQBYHRAGgElAo7Fe/8dKxsI4DJg+DuH1lhlljRQEgBYGbjqWaM6QCwOgAxQCuHRAJAOKAArIZWLpBl4DD4M8/mWnWWGvrFjU7tXR7W3OaWWMIAHwOgNtABgdEA4ARgNwMWXJMj4BtcEb0UJZZY22tC1UU9z3clm7WGAYAmwMQA7h1QAwAGAHfUO+GiaNaZ4OwGHh/pomTbXvUT3H3kba2GAJCDkAB4HKAvA107oA4ALCToWGkZefWUxoEgFBy4MUsM0fv34pv/2IJqC0cACYHoAZw6YBYADACsAsCh4ZTE7ARzojOMnP0A6QW/LkzbW0JBFQdAADQnj1O7AB1G+jYAfEAYAQU/ln9/p99Iy0B8FhhTYaZo9j2b486ZSbaARCAC3gdIC7r5nVAAgBojRDSI2jFhnQEbAMxxOL39SdP37Yb2f6pdYIxDpAA4HWAuOwyXgcAAFLOGZqJdAkbXJOKgDWwbkN79njrDmz7h1WKRjtABoDVAeKyy3gdAAFIO2sMGRMg1hVSEIXR3qoAAA7ZSURBVABnRD+hPXscuQSw6OFWrFI02gEKAJwOCABgdQCsCk5LwIVvIC07v/mTRAJgMfBy3dnjrcj278TaqGrxKAeoADA6oAgApwMkA6R2wNBqrFncSAIBMJm8Q7Oz9O+Q7d/qp1qjqsWjHIAAwOeAEgCMDpAASOuA/sLJbyK/jZvjHfArUL71rGZv8afWY9u/WlvZtA7AAGBzQBkAPgcoBkhNQGHdANYxKI6AJ2FbOL3e4pu/iGz/YjpLRzoABYDLARUA2BygAJDaATMLyGZgwZY4B8AZ0cM9Or3FH96NjCeDjaVTEoADwOSAKgBcDkAMkDYO6C8g18YHDhciCfgeTCBr9RZHt397EzpL4wREAMDjgBoATA5AAEi9F+hvQhpHiL8/GUUAvGT4mk5v8afV7d/u2/amuTmqEhAFAIsDQgDwOAA1QPrp80OHROq7w7AY+IROT9FdA5HbP30HRALA4YAwACwOQAFI74BCAdmandiIEnAr+IuWpe8puvdObPuX+va4TAAAQHv2OLEDxNTLeB0QYYDUDugvIN3jF1VLBcMEnADR4lDqnqKPIymHb+6VaoQ0HAABaOZ1gJg6ldcBEQDMTP8WQG6NHMXOBTaAv+Q76XuKPn4C2f5pdZCABMB6gGZeB4ipU3kdEGkADQLkWyPL0TtD8F3xbY2eopulHeDgV7A6wdQOkAzQy+qAAABWB0QCoOGAwovg1sgtp7D+AcNgRvQhrZ6iDy+AuQb9LjJhAmQDsDqgCACnA2IMoOGAcB/JRcPorDFYDHxsRKu3+I7QW2bxbVG1wikdoBiA0wElABgdEAOAThxQKxRb8CI6a+wknBH9K83e4rXZIieeyNZJqkaAagBGB5QB4HNArAE0CKjcGhncUEBnjcFi4KPavcX3VLd/cfcFUjkAMQCfAyoAsDkgFgANB/SXCsUGnoyYNbYTVoJo9xZ/vzRdYqtBR8kKAZgB2BxQBYDLAQkG0HBAU3BrZF0TPmtsM5wRnWHGyN7VsKd4dgegBuByQA0AJgckAKDjgMI3dm/tx2eNST1GtmSZMfL43IFbzbrJlRduACYHhADgcUCiAXQcMHyygM8bPAVnRP8k04yRJ3akujeY6IAIA/A4QFw+ldcBiQDo7AUK/fi8wcIaOGcw64wRo25yUQA0szpAXH45rwMAANqzx5uamuLnDJUJgDOiN2acMZKWgAQHKABwOkDMuJzXARCALlMHoPMGCy+CEHBrxhkjVA6INgCDA8SMGbwOkACw4wBYDLzh5IjBrDFzByAA8DlAzJjB6wAZAAsOGDkFDouePTliMmvM3AFxBnDuADFjKq8DFAAsOAAWAz8y22TWGIEDUAC4HCBmaBFA7wAVAHIH9IOJY0uGTWaNUTgg3gCOHRC8AmZMZXQAAgC1A74Pa3mMZo1ROCACAB4HlAzA6AAMAFoHFOAVou8bzRqjcECSAZw6oBgDTGV0AAoAqQOGwPWReWazxijigEgAOBxQfAXMYHQADgChAwpw3sSTRrPGSOKA2xMN4NABovjrP5VvLxABAKEDwEXypafGm80bJIgDYgBw74CqAbj2AlEAkDkAFgPvN5w3SBEHAADamnkdIGaUQgCuvUA0AFQOgMXAL5rOGySIAyAAbbwOEJXff669QDQANA4Yhm3hTOcNUsQBEgC8DqgFgTx7gTgASBwAi4HXFMaPN3eAYRwgA8DqgCIAl1cM4NwBXRAA7dnjiQQUYFu4n/SPN3eAaRygAMDpAMkA7h0AAZhE7YAtUiMxw3mDJHGACgCjA8oAXF4xgHMHSAAQO6AAi4HfUO8LMMQBCAB8DlAM4NoBMgC0DjgFGkjs7EfvDLmOAzAA2BxQBeDyGTw5QQUAUgcUChu21rYBO9A7Q87jABQALgeEDMCTE1QBIHVAoVAYPlwOBBfhd4acxwE4AEwOCAPAkhNEACCOA/pnntyyPigKPIzfGXIeB0QAwOMAccUMyQGOc4IYANR7gUKh6Y2jKwaH0TtD7uOAKABYHCCuuEL+/XebE0QBoM8HNDWd2oDdGeKIAyIB4HCAuEImwHFOEACgPXvc9L4ARxwQAwCDAwIAQgS4zwlCAFpsOqCpn9oBWeKAtjgA3DtAXHeF6gCX+QAJgLpzgH4cEAuAcweI665THeAyHwAB6Ko3B+jHAfEGcO4Acd11qgNc5gRlA7Q0fByQAIBjBwQAKA5wmROUDdDV6HFAkgEcO6AIgOIAhzlB1QCNHgckAuDUASUAsEjQUU5QNUCDxwGSATTmDVpxQBkA1AFOcoKYARo8DoAATOd1QAUAxAFucoIyAF2NHwdIAPA6oAoA/hawvxfADdDQcQAAQGvmqAUH1AC4jicnqALQ8HEAAEBr5qgFB4QA4MkJRhmggeMACEArrwPCALDkBDEAGjwOgAC08ToAAMCRE4w2QMPGAZIBeB0AAWDICeIANHQcIBuA1QESAO5zgnEGaNA4QDEApwNkAJznBKMAaOA4QDUAowMUAFznBOMN0JBxAGIAPgeoADjOCUYD0LBxAGYANgcgALjNCSYZoAHjANQAXA4Qf55IgN2cYBwADRoH4AZgcoC46s/TOcBWPiDZAA0XB0QYgMcB4qqr0jnAVj4AANDe0ggOSIoDogzA4gBx1VXpHGArJwgBaG8QB8S+BSINwOGAAIBUDrCVE5QAaAwHxBMgA8DqgCIAqRxgKScoA9De+HFAjAHcO0DMSU2AnZygAkDjxwEqAIwOEHPmaDmAPCeoAtDwcUCsAVw7QMyZo+MA+pwgAkCjxwEYAGwOEHOum6P5FqDdC4CRzv+cbf1j0vpO1Pr7NOsebH099bpTXiviDeDWAYEBUhNgIycocr6QHjJOHRAYQNMBtPkADwCvA0oG0HIAbT4g7wCc18rrgAAATQfQ5gRzD8B5vA6oGEDDAbQ5QQ8ArwNKAOg5gDQnmPPnP6A/fZ7WATUDzHGeEywqYEW+AVih3B127IAKAPoOIMoJrs83AKv1p8/TOiBsAI6cYPeWfAPwNNI/wKkDagBcx5ETbG8/uyrPz//QXv3p87QOgAZwnxPs7jx7S36f/7zNeA8Rhw4IA8CQE2zvbD979pFn8/n4F+26P8v0eVoHyAZwnxMM/pNT/yatf4lbfxu7vpG0vhu1voev70evb6vrttRrc1wfIWcOgAAw5ATbO9vb27vbK/8ucb5A8WA4dEjcJR8Os9UHTC7+xJ0Od3Rs6+iY2GE4fZ7WAeLqOdkdYJwT7KvGgsX/i2IArQ/oaplUfPxjrz4gKBBBq8S0eok5coC4+moDB5DkBNtLKaFoA0ACzoYwCBBoGYM1Qj0UPUXdOEBcfXV2BxjmBPs627uDn+DpV44GUs0Z6qr+FCUwFh1g3kvMkQMCAEwdkD0nWHz+pfd/NSDoTD95uhQDtHQ1bE9RBw4oAmDmAM2cYGftpxoDhAzQmeotEDZAV+P2FHXggBIAJg7ImBPs7K6Fge1VBUQaAHdAKAxozN7i9h1QBsBkL5ApJ1hyQF/wEugDJUIpp811lf5VskDD9hR14ABx89UUDtDOB3R293UX47/g/wUeqEYBaSdOdsFsgI8DsjlA3HwzhQM08wHFjUBf5T3QF4oCtCZPd5UkMKmra5KPAzI6QNx8M4UDdHOCnZXH390OMkKpp83VEoKVcNDHAZkcEABA4IAZ+g6oQFANAmq7wQwOmOTjgGwOKAJA4ADdnGDx6ZdiwXaJgdSRYB07YOzEASUAjB2gnxPsrL4GuuFLICkSDH5a/vCs5ICuhp4xYtEBZQCIHKCTEyxvBLvL+cBO6T0Q54D2s3+Yj56iDhxQAYDEAXo5wcpGoLwR7INJwSQH5KKnqAMHVAGgyQfo5AQ7axIABkgza6w9FAG05GPWmCUH1AC42X1OsOiAzlJIGI4CEuYMBY//bHseeoo6cEAIAPc5wXI+qL0SCGrNHG3v8nEAgQPCADDkBIsIdKtng+3JcUBLu48DCBwAAHCfEyzFAH3lbADYCyY5oP1sPnqLW3YABMB9TrAzdC7QpzNvUFKAjwMyOkACwH1OsFIilikOyENvccsOkAFwnxMsbwX6FALaU58M+TgguwPEjTdbcYBGTrCzuh2onA3mywG8cYC48UYbDtDKCVayQZ36s8dbWnwcYOYAceONFhygnRMM5QV9HODUAQEA5A7Qzgl2Fk8G+3LqANY4oAiAHQdo1QjVtgLdnT4OcOiAEgBWHKCdD+jLrQMY44AyADYcoJ8TjEkH+DjAkgMqAFhwQKacYF9EMzEfB1hyQBUAS/kA/ZxgsUbIxwGuHFAD4Eb2nGBVAD4OcOcAMf9Gyw7QqxPEI0EfB1hzgJg/364DtHOC3ZFNRX0cYMEBYv58qw7QrxOsnAv5OMCJA8T8G206QD8nWHSAzwc4c0BgAOsOmKrrAJ8PcOaA4ivAtgN8PmDsxgElA1h2QLacYF9OHeA2Dii/Auw6YEaWcwEkIeDjAHoHVAww33o+QDMnmOe9gMs4oPoKsJ0P0L87XLo97OMAuw6oGWD+WMoJJpQH+DiAzAGhV8CYygl257pGyGEcEDbAGMsJ1iTg6wTtOUDcNN+NAzLlBDt9naBtB4ibbnLpgKna/QOQSNDHAYQOEDfd5NIBuneH+9BI0McBdA4IAHDoAN2cYHenzwfYdUARAHcOmJGpf4DPB9hzQAkAdw7IkBPs6/b5AHsOKAPgygEZ7g7neS/gIA6oAODWAZo5wTzvBWzHAVUAXDpAs04wz3sB63FADYCbxnRO0NcJWnJACICxmxPM9V7AchwQBmDM5gSTCgV9HJDdAQCAsZwTzPHdYatxAARgDOcEa11E+nwcQOgACYAxnRP0+QALDpABGNM5wTz3ELEVBygAjOmcoI8DyB2gAjCmc4J5vjNkJw5AABizOcFaHODrA8gcgAEwhnOC+b4zZCMOQAEY03WC+b0zZCUOwAEY03WC/lyA0gERAIzlnGCO7wxZiAPEfTdxOyBDTrDTnwtQOUDcdx+3A2ZkqBX2+QAqB4j77mN3gHZOMN93hmjjgAAAZgf4OkHOOKAIwJhwgK8TZIkDSgCMAQfo3x32dYIUDvhfqdc6ERAFQNgAAAAASUVORK5CYII=;" parent="1" vertex="1">
                    <mxGeometry x="384" y="48" width="82" height="82" as="geometry"/>
                </mxCell>
                <mxCell id="26" value="1 - Push&amp;nbsp; Repo" style="text;html=1;align=center;verticalAlign=middle;resizable=0;points=[];autosize=1;strokeColor=none;fillColor=none;" parent="1" vertex="1">
                    <mxGeometry x="90" y="380" width="100" height="30" as="geometry"/>
                </mxCell>
                <mxCell id="27" value="2 - trigger&amp;nbsp;&lt;br&gt;GitHub Actions" style="text;html=1;align=center;verticalAlign=middle;resizable=0;points=[];autosize=1;strokeColor=none;fillColor=none;" parent="1" vertex="1">
                    <mxGeometry x="110" y="120" width="100" height="40" as="geometry"/>
                </mxCell>
                <mxCell id="28" value="3 - Criação IAC" style="text;html=1;align=center;verticalAlign=middle;resizable=0;points=[];autosize=1;strokeColor=none;fillColor=none;" parent="1" vertex="1">
                    <mxGeometry x="356" y="140" width="110" height="30" as="geometry"/>
                </mxCell>
                <mxCell id="36" value="4 - EC2 com Nginx Server &lt;br&gt;criada pelo Terraform" style="text;html=1;align=center;verticalAlign=middle;resizable=0;points=[];autosize=1;strokeColor=none;fillColor=none;" parent="1" vertex="1">
                    <mxGeometry x="295" y="380" width="160" height="40" as="geometry"/>
                </mxCell>
                <mxCell id="37" value="6 - CodeDeploy criadopelo terraform /&lt;br&gt;Irá realizar a implantação na EC2" style="text;html=1;align=center;verticalAlign=middle;resizable=0;points=[];autosize=1;strokeColor=none;fillColor=none;" parent="1" vertex="1">
                    <mxGeometry x="480" y="250" width="220" height="40" as="geometry"/>
                </mxCell>
                <mxCell id="38" value="7 - S3 p/ Artifact&amp;nbsp;&lt;br&gt;CodeDeploy" style="text;html=1;align=center;verticalAlign=middle;resizable=0;points=[];autosize=1;strokeColor=none;fillColor=none;" parent="1" vertex="1">
                    <mxGeometry x="732" y="155" width="110" height="40" as="geometry"/>
                </mxCell>
                <mxCell id="39" value="8 - CodePipeline Integrará&lt;br&gt;Repo GitHub ao CodeDeploy" style="text;html=1;align=center;verticalAlign=middle;resizable=0;points=[];autosize=1;strokeColor=none;fillColor=none;" parent="1" vertex="1">
                    <mxGeometry x="470" y="40" width="180" height="40" as="geometry"/>
                </mxCell>
                <mxCell id="41" style="edgeStyle=elbowEdgeStyle;html=1;" parent="1" source="40" edge="1">
                    <mxGeometry relative="1" as="geometry">
                        <mxPoint x="370" y="340" as="targetPoint"/>
                    </mxGeometry>
                </mxCell>
                <mxCell id="40" value="" style="shape=image;verticalLabelPosition=bottom;labelBackgroundColor=default;verticalAlign=top;aspect=fixed;imageAspect=0;image=data:image/png,iVBORw0KGgoAAAANSUhEUgAAAgAAAAIACAMAAADDpiTIAAACl1BMVEVMaXEYGBYaGBYYGBcVFBQZGBYODg4YGBYYGBgaGBcXFxYaFhYAAAAZGBcYGBYaGBYWFhYYGBgYGBcAAAAZGBgYGBYAAAAYFxIYGBYaGBYYGBYYFhYaGBYUFBQYGBYaFhYYGBgYGBYaGBgcAAAYGBYYGBYYGBYZGBYaGBcZEQ8SEhIXFxcYGBYXFxcZFhYSEhIWFhYYGBgAAAAYGBcaGBgYGBQWFhYYGBgYGBgYGBYWEhIZFhYYGBYYGBYYGBIYGBYZGBYaGBgZGBYYGBYYGBgaGBYYGBYYFxcZGBYYFhYYFhUYFhYYFxcaFhYYGBgYGBYUFBQYGBgYFhYYGBYYGBYWFhYYGBYYGBYYGBYYGBQaGBYSEhIaGBYYGBYYGBgaGBj///9UUlL7+/v5+fn9/f3p6ekaGhggHh7v7u4cHBoqKij19fXz8/PZ2dkmJCQuLiwiIiDf3985ODdYWFdjYmHd3d0iICCxsbFlZWUmJiTDw8O7u7uUk5OFhINGRUXl5eVAPj6JiIgwLi7y8fH39/U0MjI7Ozm1tbWGhoarq6seHRw0NDKbm5vNzc2CgoKQkI/j4+NycXHl5eNbWlrt7e16enrS0tGjo6JRUFCMi4sqKirX19dMSkrLy8tUVFJsbGrKych5eHe/v79JSUj39/d1dHSqqqm0s7NMTEo+PjxfX16wr6+VlZW9vb1AQD5OTk0nJiZvbm1qammgoJ9WVVSenp18fHrCwcGNjY1QTk4yMjJ0dHKnp6etrassKip9fHylo6NoaGfW1dWmpaXFxcVcXFy4t7d+fn6Bfn7Hx8fPz8+YmJjd29udm5uXl5V2dnZcXFoyMjBEQkIcGhrn5+e1tbO5ubmtra1sbGzh4eF+fnxiYGDr6+u4zDbVAAAAX3RSTlMAcOfBMNwQ/uH6NXgGorHROArOBPf0AieJx8mZ8RjfUOto2Qjp1JGp7xIMS30gWA4urQi5gUcW119cG0R6cx77lOPFm8uz542+ZDqDa2IehiRAeLudK1JmpT61GomZtbDdPAMAAAAJcEhZcwAACxMAAAsTAQCanBgAAB5+SURBVHja7V35d1RF9q+QBLKQdNrQyckcsxFCEpKQjZBECCEh7CIo43YmmfdEDF9AEQHB4wIDnBkXkEVR3B0wOiouuIyKO44LuIy7M6P+Md+D0mFJd9+qt9S7t979/Nz9Xr/6fLrerar7uVcIBoPBYDAYDAaDwWAwGAzj0NSYU9/ZPTAnf0Fff6R6YlnvpNqYZVlWrHZSb9nE6kh/34L8OQPdnfU5jVN4tMzBrKu7Gua0RXotJfRG2uY0dF09i8ePKqqK269celVf75DlCj1l6XmLF84oruIRpYPC5s75yyssT1GxfH5XcyGPLXbUzejOi2RbPiE7ktc9o45HGSeKmi++qszSgLK8yuYiHm9UmDJjWtuFlkZc2NYwI8rjjgIXdc2ODFkBoKd/8tSLePyDRfPMkkDIj2Oob2YzsxAQovWDWRYCZM2u57eB/om/cm7MQoPY3CunMyf6ULA4YmHDuP6GDGZGBzIWd1hI0TGNAwKfkTOQaaFG5tIcZskvLJpfZhFA2fxFzJX3mD6TBPunNXAZx4Teor2lxyKFnpZ2Zi2Uf36eBkL/5+dpwMv9Hpp/fp4GvMGs2TGLPGKTOa/M4Y5PTY9lBHpqeI9QHfULLIOwgIMBJVR1VluGobqTMwplUdcwyTIQvd1NzK0Eot0VlqGo6ObEAQjjLx5jGYwxF49njlOgcGGWZTjKlnAskAxFXZlWCDBxKieVJ8QV1VZIUH0Fsz0KOSVWiFDCaSPn7fnnjbNChXF5bCk4a9+nIWaFDrEGdhyfRnmmFUpkljP3p8w96VZokc5ZxHWDQ1aIMTQYcrd5V4UVclRMDTH9s9oshtUW1oSRorQYs//beiAtlFuDl/cz9XH0Lwvfsc/SbOb9DCZcFrIjopwIk34uImHaHI7OH2LGR60I54cmWySjg+lOhI5wJA8XzeS3fxJkzwzBcqCxj4lOjr5G0/lfyGv/1HsCC42mf3o+Uwwh32AzYf0k5hfGpHpD6Z8yh8mVwxwjG1aUljCzsigpNY//gjHMqzzGFJjG/xJe/KttCSwx6+iHX//qgUAhv/45EODXPwcC/PrnQIA2ZjORzjGb/tF/C7PoBi3EkwTqOPHPJfpJGweKM5lBt8gspst/ey3z5x61ZKvPd/Uwe54sBrpo8r+UqfMKiynu/nL47+VigNy+8HjO/fFWAcTKy0WXM2feoo3UhkCUT388Rx8hBTQx/34oYCwV/qez8c8XXEAkX/iSicyVP+ggoYBLspgp3xRAoJjIMubfR5ShPxho5OwfXzEGuXmwsYw58nkOQK2AUubffwUgzhUt5coPOiJBtCkidcy/FmBNEuL0L20KQLkrHGX+tSEdoQKq0pkXjQpA12ug6s/Mik78GZsC8pgTvRjExX8uM6IbaZj4L+fKn9oxhKj3XAHXfgsAMTTm4WUVzEYQqEBSZL6O/V8BYSKKLcFWTgAMDH2tCATABpAA0RI8/5OZhSAxEDT/9bwADHYxGHBd2UvYAB4wagPNE+UTwODRH6RvlE8AECDAU4FOHn0M6AyK/wzeAUaBWEDNpprYAoJkJVDWFIgA5poxfN/9cmj7O9/sIv0M+UHwP80A8nec+HjY/h0Hjmwi/CC5+vnPob8DtObgSvtsXHec7ltA+9FwlL4H6On/s8/Hi99SfZjMKO8AqGH9m3YCXL+R6vPk6eV/KvnIOSH/tn39S1SfaKpWEzD5I4DddhL87yjRJ6rVaRolnwPyjZ0U/6H6TG2cBC6NG3cmF4B9C68FoRUg+R4wu1Pwb2+7h+hTZV/OK0DJ/R87JU5Qfa6InrXgIPkdgL2pBXAd2T0uLSfDi8jzv/pAagHYdDeFr9bwAqDvAngV4N9+k+yjTfQ/PciALOC/QwKwN5B9Nt+zhJvpt4F5DuTf3k324Xp8Tg4pvID+BPAhLICdq8g+3QVFnASQGuuGYQHY79B9Pl+3g5YZ0Ab4Zwn+7UfpPl+2j57hIhMKQd0kIwD7MboPmO6fANIM4H+jFP/2M4QfsdIv/v9kQhr4T3ICGF5D9xFjf/JJADUG8P/2SjkB2HsIP2SNT4eABvBv3S7Jv72P8lPm+BIB/sEA/sFjgDO4n/BjlvixGVBpwgTwpDT/9k+Un9OHOHCKEaXAHpcXwMq/En7OSVP4ECgRttoKuJ3yk3p+KFTcY4IA3lURwIHVhJ90gtftxdpM4F/qGOAMnqT8rB7nCJebwL91Qol/+3HSD9vuJf/jzSgFcJ+aAOy/UH7Y6vF8CHAe7lfk3z5I+nE9rCdfNc8IAdymKoC16yg/7phWngDOgfQxwBk8wFOAQRPAC8r82zdbPAUYMwGsOqAuAPsangKEaDJjAnjFAf/2Fp4CzKgGZVnWg04EsOJG0s/sSYJokxn1oJ+yHeFh0g9d28QTQBzPOBPAdbSLoU3jCeA01gw7E4C9KexTgCETwB0O+SdsFPVmCmg1pCPEfU4FQNgoegoVbmtGVJrB/yeO+SdsFP0NLpPDijrMEMCLzgVA2Ch6Ch3u8kOnmsG/g2MAI4yilusCkoY0hfzCBf+UjaKnUOKG/wIz+F+1040AKBtFT8FNIfF8MwSw3xX/9t20n96FUax4nBkCuMGdACgbRU9VjXGeIDxoBv+P2S5xB+3nd1w9cKwhXcHudiuAfbSfP1YX7l3g9yF+r78e+sQ3tEfA6amwIW3h7gKTfw8abRS1rDJn/Lebwf8QeAzw1EtGG0Udm0QMWQM+D7H7kWXda7RR1GFfwboeMwTwJkTuIYmNAtJGUcvKdhIG5prB/wboGGD4qMxW4ZO0RyEtvCHgbqmCcP802yhqRdT5v9QM/jeD/+2XT30MDANpG0Ut69JQ1oSzLOsdSfMPWDuGtlFUva+kKSEgeAzw2e+f+6/ZRlH13UAz7GDWyxCv157uEwmHgbSNosphYLUZAjgC0Xok/skvJN8VIQkDM8zgf80Kaffn3ww3ilpqrUQGzBDAdoVzvo+hz/6D9lioFY7LNIL/oesUTvqPgwcCtI2iHSHMBdwEhoCPnPkwXEaYtlFU6R1gyBvgVojSH8/+NFhBhLhRdCB0b4ANahXB/wqaB2gbRSeG7g0AbvD/cO7nwXND4kZR+fxwIwpDW5vXQoRuP/cLtxhuFJ0sLQAzigJ9DYb1O879AhwG0jaKzgvZQSB4DDAq02+v4UZR2XeAGXaAh8AJ/fnzvwKHgbSNopLvgEIz3gBbwBBw9KoOdJHTNorOC9M5wI3gMcDe0V8CE0iJG0UzQpQM+DAYAu4a/SV475i2UVTOIWJETQCYysOJvvaW2UZRqbbCTUZYguE1/S0JXxwrFY6P6GGCTNU4M6rCgIe7B+5J+L2fFA6QCUKmXkyeCfw/B04ALyT+4jfgF0kbRWVyQ3tNEMBrII+7knxzH/TF2yiPS29IFoHwMcDHyb4KJhHRNopmhGMReAicAF5N9tU1YBhI2iiaG45F4E0uNvX/YbRRND0Ui8Br3NR/3Wh0R1FwIWhEi1DwT2z/LcW3wTCQtFG0PATZgPBuTkoK4crylI2iUGZgugECAPdz7VdSfR12k1A2igJBQNUE+vyvBo8B1qbO6wD9ZJSNorFW49NBQYeH/ZrbGJKyUbTAeFPw30H+XgKucLPJRtE00yuDwccAD0KX+Mxko2jqimEV9AUAVn20n4YucRRsMUbYKJoyL6yYPv/rwGOAtevBi4DVhSkbRRtTCKCTvgDeACeAf8EXAQuLUDaKdpqdCwAeA0jldYJhIGGjaKrq8fR7hL0O8v+RzGUeMLijaIpiMdEh8gL41Js1PBwG3kp2iIaiBm8DwccAw0elLvSuwUbRAoPbhILuPtnE/sfcnCgjR6W5pkDY32s/JHmpR8Gcks3mRYHks4GetD3bxAXN5XSNoskPBMl3Cgcr/tonZC+1HtxQImsUTboXWEqdf/gY4Nr3pS920JMNBZQoNbVJ0IcgZ0fkL/aSV/EkPrQbmhG+Dly8268rXO5zY42iuYa2CIBPcZWMfXDHYapG0RpDN4LhY4C7VC63aq2nekKEiJkbwXBC/8pHlC4I1hmkahSNmekKBJ3d9qdqF4TDQKpG0WITPSFvg8cA51aG9WJbgapRtNzEhNDbQf5/UL3kK+AliRpF0wwsELsKPgZQzuKBGwkRNYpONjAjGP63nl8ZVgJg10miRtHEmcER0gK414+IDW4kRNMoGjHvKGgrSJX9i4PLnjTTKFqbiP+xpCcAOIPngJNtDthm9iHJ4Rpr2jaAxDHAXifXhTNMaBpFM0zbBtgDh4C7HF0YbCRkv2HKRgDpbYD7QJ4ctnuBK8iTNIqmGbYNAJd3TFwZVgJgIyGSRtFEGwFzCQvgNjgEvMfhpeGiwxSNojVmZYRKHAO84PTacBhI0ShaYlY2AByppSwLlhp7vd9iDh4dRu0DwVv29knnV98FTi8EjaIJEoNb6U4AcO6Wqy17sJEQQaPohCqTcsIfBBly1e7tF/DyBI2ipQYVB3kKngC+cnN9uPsMQaNosUHdIp/xMwS0pApP0jOKFpjTKWbNsN9ntrDnnJ5RtNwcazhc2tfe7/IWcLopOaNopTG2oCH4GGCt246/8E4zOaNorjFlwuFmn/bnrm+yDbzHs8SGbcCYAmGHYQHYj7/v8iZgIyFyRtHRRSJaaPK/YaWEAOwftvodBq4gZhRtGSWANpoC+MKWwrVfu7vNj6YZRfMN6RQhcQwQn6NdRYKw75CYUbTNEAG8Y0vjwR1ubgQ2EiJmFE03JB3gBnkB2L8e83W3gZZRtMQMW8iztgpW/Oz8TnAjIVpG0YgZ+SDv2WrY4jwQABsJ0TKKjhZAGUH+4b/lqErRu5zeC24kRMoo2mGEAO6ylbHzCac3AyvIkzKKlo0SwDx6/Esc1CcIBJwu2E8YZRSdZ0JK4C+2I9y53tHd4ArylIyio+2hBDtGvulMAPaXzhJ44IjzQ8oCoMf/Btspdm50cr9j8LkzHaPoBAMEsNuxAOyVDzvJ5IbDQEJGUfqvgM07bRc47ODPCjcku5nwDEAuCPzadoWb1BNFJcLAJ6iMXi39ZeAN7gRgr1W3c8BlSMgYReeR3wg6ZrvG7d8r3hNuJETGKFpGXgBH3AvAvvWo4k3BRkL2W2QFQOww6MYVHgjA3ved2l0PgVekYhTtoH4cvN32BMPHle4KNxKiYhSNEE8IcXQMkNjVpXSGBzelIWIULSGeErbJ9gwnVfJ54QryRIyi6cQFcKt3ArC3qeSMfw5PKSQGsI12WvgG20tcq3CQD2eh0jCK5tM2hvzT9hYHpWuISYSBJIyiLaStYZvXeiwA+3HpnPHXzDCK5pE2h8LLcfvz/WobBb/KtgGVCAMpGEUHSNvDJY4BnrYe+1UtVewByZvD/YkpGEVzKReIeEjipGe9Ze34SO01IGkeg1uTUDCKVlIuFr4FJvO35KxVW9QU8NG3MneXsCMSMIqOLhFTQIb/GyUc4U/9/tETaoHAASnzGJyJRMAoWkC4TNxbEv/l+GefUEsbWrFH4v5wIyECRtFiuoUiV0scA5ypBrDrUbXXwJ0S2zhwIyH8RtFSuqVib5ELAUf2DG5TU8CjsHnsVTgvBLtRNLuQbrHok5Ih4Ai2r1RSAJwzDleQd16dXhPm0S0X/5wtHQKexvcb1TYOV26HfgNcnh67UbSDbsOI1xRCwJGw7Sa118Bt612HgciNookaRtA4DZI5BhhdEGqd4vHxl0DOOHw55EbRGrJNox5QCwFHXgO3qylg7SduA1HcRtHJZNvGSUzm/0r4xU2KgcDeIXdhIG6jaBrVxpFPKIeAI/jLNrVJ4HCqnHF4QsFtFC2n2jr2RwchYBxrTqopYF+KWRzuJ4nbKJpBtHm0zDHAoeQTt2IiUSrzGFyiGLVRdCzR9vFwCzd7ONUS7slr1STw76TmMYm0ZMRG0YTt4wlYQyRiL/vdlFfYqpYlYt+a7GhfwpiA2CgaSSiAfPQCOC5BGZDateNBNQVsS2Yeg88kERtF8xMKAP9GwN9dhIBxrLrbG/OYRDiC1yg6OaEA0G8EyBwDHIIv84air/SfiXPG4UZCeI2iaQkFgH4j4EOXIWAcxw6oKSBxw5FP4C/egnUkyxMK4HLk/K9b6zYEjONbxSyRhA1HJMJAtEbRyxMKIIrc2v6B+xAwjs13KprHEjUckXCoIzWKDkUTCgB7RsBNHoSAI7hLLUskUc64RBj4Fc6R7EjMv6hBzf9GCZoeULicYpW5BA1H4GkEqVG0JokAcJuDPpUIAVVq/mz4Uk0BoxuOSEgSp1E0N4kA2jHz//ZKr0LAONYfVlPA6IYjcCMhnEbR9iQCwJwZ/r3EMYCqK3Nor2IgcH7DkTs8/0l6UJpEAJiPg2SOAdTP3z5R9Jmf13BEomMJRqNobTL+MeeFPultCBjHX/apKeC8hiOw+RCjUbQkqQAG8QrgcY9DwDiOKmaJnNtwRCJBCaFRdDCpAPBaxGWOAZ5x9m75Qk0B5zYcgSvIIzSKViYVAF6H8LsSzLzs8NrHh9UUcHbDEbiREEKjaEFSAaDdDF437EcIGMd3PygGAhtVwkB0RtFkG8GYN4Ml/mhukjDff1xNAWc1HPkPPaNoR3L+0ZYKu8+nEHAkEFDMEjnTcESiXA02o2heCgF04uT/ft9CwBF8rZglMtJwBA4DD6zCNZqdKQSAtEzITz6GgHE8ppglEs8ZhxsJ2f/FNZqNKQQgKjDyL3MM4D4L/1vFomKnG45INBLCZRSdl4p/nJnBL0iw8YH726gWFTvdcOQZYkbR/JQCwJgYuuqAzyHgCPYoBgK/mcfgRkK4jKJpKQWAcSvoFQkqPDpzUSwqZq89LtVICJVRtCClAFpj+ATwuQQTxzy61y7FLJFTDUcO+bpH4TUmVKUUAMK+EVttHSFgHOsVi4rZJ9dIVJBHZBRNT80/wqLhEkGW/bOH93tYUQHbtkr4FfAYRacBAkDnDlkzrCsEjGOjajcCiS7WeIyi7YAAmrA1kd6jLwSMQ7WomMzpARajaHYTIAB0QYDEMYD9kMf3XHer5wrAYhSFQgB0ueHfaA0B4/j+Ba8FgMUomgsKAFmpoBclBvczH+67adhjBSAximaAAhC9mPiXOQa49qgfd/5um7cCwGEU7YX5x5UT8G+JoX3Pp+XHSW8VgMIoOighgKmI+F+1M4AQMI7V3nYnRGEULZcQAKaF4P5AQsARqBYVQ28UhReByBaCMhWdTvi5Df2rhwp4msIiENdCUOKk1acQMA7VomLIjaK5UgLAsxCUSdU84nMUssU7Bbwc+IBmSAlAZCHhf82KAEPAEXywwisBvBf0gGbJ8Y/GInhHsCFgHKpFxfAaRQclBXApDv6H7gs4BIxDtagYWqPopZICEPNQCOB5mRDwfR2/RLWoGFKj6DxZ/pEUjT0cfAg4AtWiYiiNopOlBYAiNXSDzJhfo+vXqBYVw2gULZAWAIp3wG4cIeCIHr3IEgnUKJopzz+Gd4DUMcAejT9o3WEPFBCkUXRAQQAI3gHvyISAj2hdlex1L4AgjaIKbwAhJgYugBsQhYBxqBYVQ2UUVXkDIMgOf9nGFALGoVpUDJNRdEBJAIGfBxzBuaw+6jpLJDCjaIaSAER1sPxLHQPsCeCHrd7tUgBBGUWr1fgP2ia8HV0IOILj7rJEhgMyiqYpCqAuO0j+Jbpx2PaWgH7c1h9cKeCDQH50rE5RAME2D9gkM5KvB/XrVIuKYTCK5qnyH+yR4Ju4T1aUi4oFL9xLlQUgyoIb4A3oz1YPucgS+TGA35ulzn+QqYFf4Q0B43jMeZZIEEbRXAcCCC4M3LwTcQgYh3JRsSCNoj11DgQQXMWwr1GHgHGscpwlot8omu+E/+BaCN2AOwQcwR6ngYB2o2i7IwEEFQY+hD4EjOMJh1kiuo2iWc74Fw3BDOsR/CFgHMpFxYIxijY4FEBdIDXjbpSZWLHU3FEuKhaEUTQ21qEAgjEIPEwiBBzBdicC2Kn1QGDQKf+ieJz+AZU6BsDUiMdRlohOo2hPsWMBBLESvEVm/O5CJABHWSL3avx9Nc75DyI38GM6IWAcRx0UFXtf388rcCEA/a0kZfrDISq7eBrqRcVe1fbbStzwr79ezGsyo7cRmwDUi4rt1fbTyl0JoEhzHzGZ/nAYezEqZ4k8o+uHdQh30NxM9BC5EDCONWpZIu/q+l2VLgUQ1dtFSMZ/tfIRjAKw7nlNRQC6LEK1rS4FIKbpHMRrsCZUSEGlqNhnmn7TNLf8i6ZajUP4D5oh4EggIF9UTNOBYG2TawHonAJ2yAzd/yy8+PZzWQE8S2UC0DoFvEU2BIxDtqjY2lVkJgCNU8Dq6+iGgCP4WSpLZAudCUCIpjGaxu64zNDdaSHHMZkskeNafso8TyYAfTaxk7RDwDg2wOmiv67X8kvSvOFftOqZAqSOAfZZ+AEXFftazwRQ5ZEANE0BB2UEsN2igO2pC1zdYJGaADRNAUelEit2kBCA9c31qR7iKWITgJ4p4A0Z/j+1iOC5FLntz1ObAIRo1VA/+kszQsA41idNbt6v5wdkCS/hf0PR12X4/8EihP0Jj7avO6bp9uWeCkC0+f177zQnBBx5DSToefeirlywNm/5F8U9fu+fXCOBoxYtHLv3vFKxz+q6s5tUYMwFpMnh2YMji5tHb/9O330ne82/mDKJ2XQWDW589YHtn73yyS6dN62Y4rkAdCeHMdyg03v+RVEJjysV/EH4gRweWCrI8UUAwVaOY8gjzx/+xUUxHlsKiJX6JACOA2mgUviGdB5d/Ej3j3+xLJvHFzuyl/koAESNpRlJkOsn/6LoAh5h3LigyFcBiIweHmPM6GkWPmOABxkzBvzmXxRO5FHGi8xC3wUgruZhxotFQgPm8DhjxaAO/kU0k0caJ8qiWgQgCng7COcWUI7QBN4OCuEWULDlAxkwluvjXzTW8nhjQ+10jQLQX0CSAWGq0ArODkKGPL38i7G8FgzlCvCsteAQjzoeDOUI7WjgYceDBhEA8nncsWBuEPyLpjIeeRzIagpEACKD08RRIJYhAkInDz4GdIrAkMejHzwGg+NfRPt5/INGf2GAAhCz+FAgYNReIgJFPe8HBbsDVC8CBu8HhW8H6Fy0MAvBoSV4/kVrH/MQFEpaEQhA1LFTICBk1gkUWFbBXASBimUCCQp4TzgAxAoEGlzBi0H9C8BygQicKK4daQIV/siM6MVkgQycHqIVc7HxL6q4gJRGpFehEwCfDOrkPyoQoo4VoAn9KPkXoq6DudHCf51AilJWgAZ0oOVfiFJOFPYdZaUCMRpZAX7z3yhQo3EMc+QnxiDnX4hingN8RFaxQI9ZrAD/+L9EEMAsXgv4hIkk+BdiOleU9gWR6YIIxrICfEBJkyCDsZwo6j3/UUEI0TZmzFssJ8W/EOPZLuAp8scLauA6Yh6iRhDEYubNKywVJNHFRaU9QXaXIIpFbB73ALWLBFkUczlJ18gsFoTBaWJu0V8nSCPKy0FXaIkK6pjNLIYu/D8XC5lHp1gijEABZwk5wpgCYQhKucWMA5SUCmNQyL0GlTGnUJiEJbwrqLb7t0QYBg4Ewvn650Ag7K//szDIzMphUBiK+klMLoxJ9cJYTOc6IiDypwuTsZAryqVEbKEwHI2cMJwCfY3CeBTN5C2BZIv/mUUiDMhg71hCdGSIkKB1gNkejYFWER7kRJjwcxHJEaFC4WUTmPQzmDCzUIQNyzhdcAT9y0QIUZTGewK/r/3TikQ4MYstpJZltc0S4cXU0DcbqegSoUbdYKh7TQwN1omwoznEZcbTmwVDiPKQGsgyy5n731HVEML1wIXdVcz8CC7KGxcu+sflTWfWz90cDlXKYEkOMz4KV1SHhf7qK5jthFuDU0PRhDazq4i5TnZEtMT4QsNZCwuZ5xQYf7HRBpIxF49njgFEuyvMpT/K/EpgSq6REqjIZfqld4auNC4crO7kfR8ltC8wif4F9cyoMjJqesxgv6cmg9l0hFmTDTgjiM2exUw6Rt3MLOLL/lw+8HcbDLSQfRP0tLQzfx5g+mUk9wfLZvKBX3inAf7zh3oa4D+/L1g0n4QGyuYvYq78Qs5S5PmDmQOc6uEzmqehdZd3LOYdHy0obkDoK+xvKGZm9OGiK+ci2iWMza3kqE87ovWzUWwTZg3W8zlvYAHBzL5ArWVDJTPZ3BMw6qbODqjcSP/kqbzRjwNTZjS0XaiT+wvbps3geR8Xipor87RsFJVddXEzJ3ZjfR/M6M6L+FaHMDuS1z2DZ330KGzumr/c47zSiuXzO5s5o58SLplx5dKr0l0vFLPS8xYvnPEnHk+ymHV1V8OctkivGu+9kbY5DV1XczaXSUuFxpz6zu6BOfkL+voj1RPLeifV/raZGKud1Fs2sTrS37cgf85Ad2d9TmMTjxaDwWAwGAwGg8FgMBgM8/D//sk3ozKi3g8AAAAASUVORK5CYII=;" parent="1" vertex="1">
                    <mxGeometry x="456" y="320" width="62" height="62" as="geometry"/>
                </mxCell>
                <mxCell id="42" value="5 - Ansible irá instalar o&lt;br&gt;CodeDeploy Agent na EC2" style="text;html=1;align=center;verticalAlign=middle;resizable=0;points=[];autosize=1;strokeColor=none;fillColor=none;" parent="1" vertex="1">
                    <mxGeometry x="518" y="350" width="170" height="40" as="geometry"/>
                </mxCell>
            </root>
        </mxGraphModel>
    </diagram>
</mxfile>